<svg width="1597" height="107" viewBox="0 0 1597 107" fill="none" xmlns="http://www.w3.org/2000/svg">
<mask id="path-1-outside-1_104_161" maskUnits="userSpaceOnUse" x="0" y="0" width="1597" height="107" fill="black">
<rect fill="white" width="1597" height="107"/>
<path d="M54.625 105.45C38.385 105.45 25.48 101.922 15.91 94.865C6.43667 87.8083 1.7 76.7883 1.7 61.805V6.41499C1.7 5.35166 2.08667 4.43333 2.86 3.66C3.63333 2.88666 4.55167 2.49999 5.615 2.49999H35.92C36.9833 2.49999 37.9017 2.88666 38.675 3.66C39.4483 4.43333 39.835 5.35166 39.835 6.41499V64.125C39.835 68.0883 41.14 71.1333 43.75 73.26C46.4567 75.3867 50.0817 76.45 54.625 76.45C59.1683 76.45 62.745 75.3867 65.355 73.26C68.0617 71.1333 69.415 68.0883 69.415 64.125V6.41499C69.415 5.35166 69.8017 4.43333 70.575 3.66C71.3483 2.88666 72.2667 2.49999 73.33 2.49999H103.635C104.698 2.49999 105.617 2.88666 106.39 3.66C107.163 4.43333 107.55 5.35166 107.55 6.41499V61.805C107.55 76.7883 102.765 87.8083 93.195 94.865C83.7217 101.922 70.865 105.45 54.625 105.45ZM157.043 69.49C158.107 69.49 159.025 69.8767 159.798 70.65C160.572 71.4233 160.958 72.3417 160.958 73.405V100.085C160.958 101.148 160.572 102.067 159.798 102.84C159.025 103.613 158.107 104 157.043 104H126.593C125.53 104 124.612 103.613 123.838 102.84C123.065 102.067 122.678 101.148 122.678 100.085V73.405C122.678 72.3417 123.065 71.4233 123.838 70.65C124.612 69.8767 125.53 69.49 126.593 69.49H157.043ZM236.987 39.33C247.62 40.49 256.127 42.375 262.507 44.985C268.983 47.595 273.672 51.0267 276.572 55.28C279.472 59.5333 280.922 64.85 280.922 71.23C280.922 78.19 278.65 84.28 274.107 89.5C269.66 94.6233 263.473 98.5867 255.547 101.39C247.62 104.097 238.582 105.45 228.432 105.45C217.122 105.45 207.552 104.048 199.722 101.245C191.892 98.4417 186.043 94.72 182.177 90.08C178.31 85.3433 176.377 80.1717 176.377 74.565C176.377 73.5983 176.667 72.825 177.247 72.245C177.923 71.665 178.745 71.375 179.712 71.375H209.437C211.467 71.375 213.11 72.0033 214.367 73.26C216.01 74.8067 217.847 75.87 219.877 76.45C221.907 76.9333 224.758 77.175 228.432 77.175C237.615 77.175 242.207 75.7733 242.207 72.97C242.207 71.81 241.578 70.8433 240.322 70.07C239.162 69.2 237.035 68.475 233.942 67.895C230.945 67.2183 226.498 66.5417 220.602 65.865C207.358 64.3183 197.208 61.0317 190.152 56.005C183.095 50.8817 179.567 43.68 179.567 34.4C179.567 27.8267 181.548 22.0267 185.512 17C189.475 11.9733 195.082 8.05833 202.332 5.25499C209.678 2.45166 218.185 1.04999 227.852 1.04999C237.905 1.04999 246.702 2.64499 254.242 5.83499C261.782 8.92833 267.533 12.795 271.497 17.435C275.46 22.075 277.442 26.6183 277.442 31.065C277.442 32.0317 277.103 32.805 276.427 33.385C275.847 33.965 275.025 34.255 273.962 34.255H242.787C241.143 34.255 239.645 33.675 238.292 32.515C237.228 31.5483 235.972 30.775 234.522 30.195C233.072 29.615 230.848 29.325 227.852 29.325C221.375 29.325 218.137 30.6783 218.137 33.385C218.137 34.835 219.393 35.995 221.907 36.865C224.42 37.6383 229.447 38.46 236.987 39.33ZM331.43 69.49C332.493 69.49 333.412 69.8767 334.185 70.65C334.958 71.4233 335.345 72.3417 335.345 73.405V100.085C335.345 101.148 334.958 102.067 334.185 102.84C333.412 103.613 332.493 104 331.43 104H300.98C299.917 104 298.998 103.613 298.225 102.84C297.452 102.067 297.065 101.148 297.065 100.085V73.405C297.065 72.3417 297.452 71.4233 298.225 70.65C298.998 69.8767 299.917 69.49 300.98 69.49H331.43ZM474.494 2.49999C475.557 2.49999 476.476 2.88666 477.249 3.66C478.022 4.43333 478.409 5.35166 478.409 6.41499V29.76C478.409 30.8233 478.022 31.7417 477.249 32.515C476.476 33.2883 475.557 33.675 474.494 33.675H443.319V100.085C443.319 101.148 442.932 102.067 442.159 102.84C441.386 103.613 440.467 104 439.404 104H409.534C408.471 104 407.552 103.613 406.779 102.84C406.006 102.067 405.619 101.148 405.619 100.085V33.675H374.444C373.381 33.675 372.462 33.2883 371.689 32.515C370.916 31.7417 370.529 30.8233 370.529 29.76V6.41499C370.529 5.35166 370.916 4.43333 371.689 3.66C372.462 2.88666 373.381 2.49999 374.444 2.49999H474.494ZM595.322 75.725C596.386 75.725 597.304 76.1117 598.077 76.885C598.851 77.6583 599.237 78.5767 599.237 79.64V100.085C599.237 101.148 598.851 102.067 598.077 102.84C597.304 103.613 596.386 104 595.322 104H503.682C502.619 104 501.701 103.613 500.927 102.84C500.154 102.067 499.767 101.148 499.767 100.085V6.41499C499.767 5.35166 500.154 4.43333 500.927 3.66C501.701 2.88666 502.619 2.49999 503.682 2.49999H593.872C594.936 2.49999 595.854 2.88666 596.627 3.66C597.401 4.43333 597.787 5.35166 597.787 6.41499V26.86C597.787 27.9233 597.401 28.8417 596.627 29.615C595.854 30.3883 594.936 30.775 593.872 30.775H537.467V39.91H585.897C586.961 39.91 587.879 40.2967 588.652 41.07C589.426 41.8433 589.812 42.7617 589.812 43.825V62.675C589.812 63.7383 589.426 64.6567 588.652 65.43C587.879 66.2033 586.961 66.59 585.897 66.59H537.467V75.725H595.322ZM658.876 64.85C658.876 68.8133 660.181 71.8583 662.791 73.985C665.497 76.1117 669.122 77.175 673.666 77.175C677.726 77.175 680.722 76.4983 682.656 75.145C684.589 73.7917 686.232 71.7617 687.586 69.055C688.842 66.5417 690.534 65.285 692.661 65.285H723.981C724.851 65.285 725.576 65.6233 726.156 66.3C726.832 66.88 727.171 67.605 727.171 68.475C727.171 74.3717 725.189 80.1717 721.226 85.875C717.262 91.4817 711.221 96.17 703.101 99.94C695.077 103.613 685.266 105.45 673.666 105.45C663.322 105.45 654.091 103.903 645.971 100.81C637.947 97.62 631.567 92.7867 626.831 86.31C622.094 79.7367 619.726 71.5683 619.726 61.805V44.695C619.726 34.9317 622.094 26.8117 626.831 20.335C631.567 13.7617 637.947 8.92833 645.971 5.83499C654.091 2.64499 663.322 1.04999 673.666 1.04999C685.266 1.04999 695.077 2.935 703.101 6.705C711.221 10.3783 717.262 15.0667 721.226 20.77C725.189 26.3767 727.171 32.1283 727.171 38.025C727.171 38.895 726.832 39.6683 726.156 40.345C725.576 40.925 724.851 41.215 723.981 41.215H692.661C690.534 41.215 688.842 39.9583 687.586 37.445C686.232 34.7383 684.589 32.7083 682.656 31.355C680.722 30.0017 677.726 29.325 673.666 29.325C669.122 29.325 665.497 30.3883 662.791 32.515C660.181 34.6417 658.876 37.6867 658.876 41.65V64.85ZM844.374 2.49999C845.437 2.49999 846.356 2.88666 847.129 3.66C847.902 4.43333 848.289 5.35166 848.289 6.41499V100.085C848.289 101.148 847.902 102.067 847.129 102.84C846.356 103.613 845.437 104 844.374 104H814.504C813.441 104 812.522 103.613 811.749 102.84C810.976 102.067 810.589 101.148 810.589 100.085V69.2H781.589V100.085C781.589 101.148 781.202 102.067 780.429 102.84C779.656 103.613 778.737 104 777.674 104H747.804C746.741 104 745.822 103.662 745.049 102.985C744.276 102.212 743.889 101.245 743.889 100.085V6.41499C743.889 5.35166 744.276 4.43333 745.049 3.66C745.822 2.88666 746.741 2.49999 747.804 2.49999H777.674C778.737 2.49999 779.656 2.88666 780.429 3.66C781.202 4.43333 781.589 5.35166 781.589 6.41499V36.14H810.589V6.41499C810.589 5.35166 810.976 4.43333 811.749 3.66C812.522 2.88666 813.441 2.49999 814.504 2.49999H844.374ZM965.348 2.49999C966.411 2.49999 967.329 2.88666 968.103 3.66C968.876 4.43333 969.263 5.35166 969.263 6.41499V100.085C969.263 101.148 968.876 102.067 968.103 102.84C967.329 103.613 966.411 104 965.348 104H942.003C939.683 104 937.749 102.985 936.203 100.955L904.593 60.645V100.085C904.593 101.148 904.206 102.067 903.433 102.84C902.659 103.613 901.741 104 900.678 104H873.708C872.644 104 871.726 103.613 870.953 102.84C870.179 102.067 869.793 101.148 869.793 100.085V6.41499C869.793 5.35166 870.179 4.43333 870.953 3.66C871.726 2.88666 872.644 2.49999 873.708 2.49999H897.198C899.518 2.49999 901.403 3.46666 902.853 5.4L934.463 49.045V6.41499C934.463 5.35166 934.849 4.43333 935.623 3.66C936.396 2.88666 937.314 2.49999 938.378 2.49999H965.348ZM1097.78 62.095C1097.78 76.885 1092.85 87.8083 1082.99 94.865C1073.22 101.922 1060.17 105.45 1043.84 105.45C1027.5 105.45 1014.4 101.922 1004.54 94.865C994.778 87.8083 989.896 76.7883 989.896 61.805V44.695C989.896 34.835 992.216 26.6667 996.856 20.19C1001.59 13.6167 1008.02 8.78333 1016.14 5.69C1024.26 2.59666 1033.49 1.04999 1043.84 1.04999C1054.18 1.04999 1063.36 2.59666 1071.39 5.69C1079.51 8.78333 1085.93 13.5683 1090.67 20.045C1095.41 26.5217 1097.78 34.6417 1097.78 44.405V62.095ZM1029.05 64.85C1029.05 68.8133 1030.35 71.8583 1032.96 73.985C1035.67 76.1117 1039.29 77.175 1043.84 77.175C1048.38 77.175 1051.96 76.1117 1054.57 73.985C1057.27 71.7617 1058.63 68.6683 1058.63 64.705V41.795C1058.63 37.8317 1057.27 34.7867 1054.57 32.66C1051.96 30.4367 1048.38 29.325 1043.84 29.325C1039.29 29.325 1035.67 30.3883 1032.96 32.515C1030.35 34.6417 1029.05 37.6867 1029.05 41.65V64.85ZM1214.98 74.275C1216.04 74.275 1216.96 74.6617 1217.73 75.435C1218.51 76.2083 1218.89 77.1267 1218.89 78.19V100.085C1218.89 101.148 1218.51 102.067 1217.73 102.84C1216.96 103.613 1216.04 104 1214.98 104H1130.3C1129.24 104 1128.32 103.613 1127.54 102.84C1126.77 102.067 1126.38 101.148 1126.38 100.085V6.41499C1126.38 5.35166 1126.77 4.43333 1127.54 3.66C1128.32 2.88666 1129.24 2.49999 1130.3 2.49999H1161.62C1162.68 2.49999 1163.6 2.88666 1164.37 3.66C1165.15 4.43333 1165.53 5.35166 1165.53 6.41499V74.275H1214.98ZM1345.52 62.095C1345.52 76.885 1340.59 87.8083 1330.73 94.865C1320.97 101.922 1307.92 105.45 1291.58 105.45C1275.25 105.45 1262.15 101.922 1252.29 94.865C1242.52 87.8083 1237.64 76.7883 1237.64 61.805V44.695C1237.64 34.835 1239.96 26.6667 1244.6 20.19C1249.34 13.6167 1255.77 8.78333 1263.89 5.69C1272.01 2.59666 1281.24 1.04999 1291.58 1.04999C1301.93 1.04999 1311.11 2.59666 1319.13 5.69C1327.25 8.78333 1333.68 13.5683 1338.42 20.045C1343.15 26.5217 1345.52 34.6417 1345.52 44.405V62.095ZM1276.79 64.85C1276.79 68.8133 1278.1 71.8583 1280.71 73.985C1283.41 76.1117 1287.04 77.175 1291.58 77.175C1296.13 77.175 1299.7 76.1117 1302.31 73.985C1305.02 71.7617 1306.37 68.6683 1306.37 64.705V41.795C1306.37 37.8317 1305.02 34.7867 1302.31 32.66C1299.7 30.4367 1296.13 29.325 1291.58 29.325C1287.04 29.325 1283.41 30.3883 1280.71 32.515C1278.1 34.6417 1276.79 37.6867 1276.79 41.65V64.85ZM1467.66 42.81C1468.72 42.81 1469.64 43.1967 1470.41 43.97C1471.18 44.7433 1471.57 45.6617 1471.57 46.725V62.095C1471.57 76.7883 1466.54 87.7117 1456.49 94.865C1446.53 101.922 1433.34 105.45 1416.91 105.45C1400.47 105.45 1387.23 101.922 1377.18 94.865C1367.22 87.7117 1362.24 76.6917 1362.24 61.805V44.695C1362.24 34.835 1364.66 26.6667 1369.49 20.19C1374.32 13.6167 1380.85 8.78333 1389.07 5.69C1397.28 2.59666 1406.56 1.04999 1416.91 1.04999C1429.28 1.04999 1439.48 3.07999 1447.5 7.13999C1455.52 11.2 1461.32 15.7917 1464.9 20.915C1468.57 26.0383 1470.41 30.195 1470.41 33.385C1470.41 34.255 1470.07 35.0283 1469.4 35.705C1468.82 36.285 1468.09 36.575 1467.22 36.575H1434.45C1432.52 36.575 1431.12 36.0433 1430.25 34.98C1427.25 31.21 1422.8 29.325 1416.91 29.325C1412.46 29.325 1408.74 30.34 1405.74 32.37C1402.84 34.4 1401.39 37.01 1401.39 40.2V64.85C1401.39 68.7167 1402.84 71.7617 1405.74 73.985C1408.64 76.1117 1412.36 77.175 1416.91 77.175C1422.9 77.175 1427.3 76.16 1430.1 74.13C1433 72.0033 1434.5 69.5383 1434.6 66.735H1425.61C1424.54 66.735 1423.62 66.3483 1422.85 65.575C1422.08 64.8017 1421.69 63.8833 1421.69 62.82V46.725C1421.69 45.6617 1422.08 44.7433 1422.85 43.97C1423.62 43.1967 1424.54 42.81 1425.61 42.81H1467.66ZM1592.4 2.49999C1593.27 2.49999 1593.99 2.83833 1594.57 3.515C1595.25 4.095 1595.59 4.77166 1595.59 5.545C1595.59 6.125 1595.44 6.70499 1595.15 7.28499L1558.61 67.75V100.085C1558.61 101.148 1558.23 102.067 1557.45 102.84C1556.68 103.613 1555.76 104 1554.7 104H1523.81C1522.75 104 1521.83 103.613 1521.06 102.84C1520.29 102.067 1519.9 101.148 1519.9 100.085V67.75L1483.5 7.28499C1483.21 6.70499 1483.07 6.17333 1483.07 5.69C1483.07 4.81999 1483.36 4.095 1483.94 3.515C1484.62 2.83833 1485.39 2.49999 1486.26 2.49999H1516.85C1519.56 2.49999 1521.54 3.61166 1522.8 5.83499L1539.18 34.545L1556 6.125C1557.45 3.70833 1559.48 2.49999 1562.09 2.49999H1592.4Z"/>
</mask>
<path d="M54.625 105.45C38.385 105.45 25.48 101.922 15.91 94.865C6.43667 87.8083 1.7 76.7883 1.7 61.805V6.41499C1.7 5.35166 2.08667 4.43333 2.86 3.66C3.63333 2.88666 4.55167 2.49999 5.615 2.49999H35.92C36.9833 2.49999 37.9017 2.88666 38.675 3.66C39.4483 4.43333 39.835 5.35166 39.835 6.41499V64.125C39.835 68.0883 41.14 71.1333 43.75 73.26C46.4567 75.3867 50.0817 76.45 54.625 76.45C59.1683 76.45 62.745 75.3867 65.355 73.26C68.0617 71.1333 69.415 68.0883 69.415 64.125V6.41499C69.415 5.35166 69.8017 4.43333 70.575 3.66C71.3483 2.88666 72.2667 2.49999 73.33 2.49999H103.635C104.698 2.49999 105.617 2.88666 106.39 3.66C107.163 4.43333 107.55 5.35166 107.55 6.41499V61.805C107.55 76.7883 102.765 87.8083 93.195 94.865C83.7217 101.922 70.865 105.45 54.625 105.45ZM157.043 69.49C158.107 69.49 159.025 69.8767 159.798 70.65C160.572 71.4233 160.958 72.3417 160.958 73.405V100.085C160.958 101.148 160.572 102.067 159.798 102.84C159.025 103.613 158.107 104 157.043 104H126.593C125.53 104 124.612 103.613 123.838 102.84C123.065 102.067 122.678 101.148 122.678 100.085V73.405C122.678 72.3417 123.065 71.4233 123.838 70.65C124.612 69.8767 125.53 69.49 126.593 69.49H157.043ZM236.987 39.33C247.62 40.49 256.127 42.375 262.507 44.985C268.983 47.595 273.672 51.0267 276.572 55.28C279.472 59.5333 280.922 64.85 280.922 71.23C280.922 78.19 278.65 84.28 274.107 89.5C269.66 94.6233 263.473 98.5867 255.547 101.39C247.62 104.097 238.582 105.45 228.432 105.45C217.122 105.45 207.552 104.048 199.722 101.245C191.892 98.4417 186.043 94.72 182.177 90.08C178.31 85.3433 176.377 80.1717 176.377 74.565C176.377 73.5983 176.667 72.825 177.247 72.245C177.923 71.665 178.745 71.375 179.712 71.375H209.437C211.467 71.375 213.11 72.0033 214.367 73.26C216.01 74.8067 217.847 75.87 219.877 76.45C221.907 76.9333 224.758 77.175 228.432 77.175C237.615 77.175 242.207 75.7733 242.207 72.97C242.207 71.81 241.578 70.8433 240.322 70.07C239.162 69.2 237.035 68.475 233.942 67.895C230.945 67.2183 226.498 66.5417 220.602 65.865C207.358 64.3183 197.208 61.0317 190.152 56.005C183.095 50.8817 179.567 43.68 179.567 34.4C179.567 27.8267 181.548 22.0267 185.512 17C189.475 11.9733 195.082 8.05833 202.332 5.25499C209.678 2.45166 218.185 1.04999 227.852 1.04999C237.905 1.04999 246.702 2.64499 254.242 5.83499C261.782 8.92833 267.533 12.795 271.497 17.435C275.46 22.075 277.442 26.6183 277.442 31.065C277.442 32.0317 277.103 32.805 276.427 33.385C275.847 33.965 275.025 34.255 273.962 34.255H242.787C241.143 34.255 239.645 33.675 238.292 32.515C237.228 31.5483 235.972 30.775 234.522 30.195C233.072 29.615 230.848 29.325 227.852 29.325C221.375 29.325 218.137 30.6783 218.137 33.385C218.137 34.835 219.393 35.995 221.907 36.865C224.42 37.6383 229.447 38.46 236.987 39.33ZM331.43 69.49C332.493 69.49 333.412 69.8767 334.185 70.65C334.958 71.4233 335.345 72.3417 335.345 73.405V100.085C335.345 101.148 334.958 102.067 334.185 102.84C333.412 103.613 332.493 104 331.43 104H300.98C299.917 104 298.998 103.613 298.225 102.84C297.452 102.067 297.065 101.148 297.065 100.085V73.405C297.065 72.3417 297.452 71.4233 298.225 70.65C298.998 69.8767 299.917 69.49 300.98 69.49H331.43ZM474.494 2.49999C475.557 2.49999 476.476 2.88666 477.249 3.66C478.022 4.43333 478.409 5.35166 478.409 6.41499V29.76C478.409 30.8233 478.022 31.7417 477.249 32.515C476.476 33.2883 475.557 33.675 474.494 33.675H443.319V100.085C443.319 101.148 442.932 102.067 442.159 102.84C441.386 103.613 440.467 104 439.404 104H409.534C408.471 104 407.552 103.613 406.779 102.84C406.006 102.067 405.619 101.148 405.619 100.085V33.675H374.444C373.381 33.675 372.462 33.2883 371.689 32.515C370.916 31.7417 370.529 30.8233 370.529 29.76V6.41499C370.529 5.35166 370.916 4.43333 371.689 3.66C372.462 2.88666 373.381 2.49999 374.444 2.49999H474.494ZM595.322 75.725C596.386 75.725 597.304 76.1117 598.077 76.885C598.851 77.6583 599.237 78.5767 599.237 79.64V100.085C599.237 101.148 598.851 102.067 598.077 102.84C597.304 103.613 596.386 104 595.322 104H503.682C502.619 104 501.701 103.613 500.927 102.84C500.154 102.067 499.767 101.148 499.767 100.085V6.41499C499.767 5.35166 500.154 4.43333 500.927 3.66C501.701 2.88666 502.619 2.49999 503.682 2.49999H593.872C594.936 2.49999 595.854 2.88666 596.627 3.66C597.401 4.43333 597.787 5.35166 597.787 6.41499V26.86C597.787 27.9233 597.401 28.8417 596.627 29.615C595.854 30.3883 594.936 30.775 593.872 30.775H537.467V39.91H585.897C586.961 39.91 587.879 40.2967 588.652 41.07C589.426 41.8433 589.812 42.7617 589.812 43.825V62.675C589.812 63.7383 589.426 64.6567 588.652 65.43C587.879 66.2033 586.961 66.59 585.897 66.59H537.467V75.725H595.322ZM658.876 64.85C658.876 68.8133 660.181 71.8583 662.791 73.985C665.497 76.1117 669.122 77.175 673.666 77.175C677.726 77.175 680.722 76.4983 682.656 75.145C684.589 73.7917 686.232 71.7617 687.586 69.055C688.842 66.5417 690.534 65.285 692.661 65.285H723.981C724.851 65.285 725.576 65.6233 726.156 66.3C726.832 66.88 727.171 67.605 727.171 68.475C727.171 74.3717 725.189 80.1717 721.226 85.875C717.262 91.4817 711.221 96.17 703.101 99.94C695.077 103.613 685.266 105.45 673.666 105.45C663.322 105.45 654.091 103.903 645.971 100.81C637.947 97.62 631.567 92.7867 626.831 86.31C622.094 79.7367 619.726 71.5683 619.726 61.805V44.695C619.726 34.9317 622.094 26.8117 626.831 20.335C631.567 13.7617 637.947 8.92833 645.971 5.83499C654.091 2.64499 663.322 1.04999 673.666 1.04999C685.266 1.04999 695.077 2.935 703.101 6.705C711.221 10.3783 717.262 15.0667 721.226 20.77C725.189 26.3767 727.171 32.1283 727.171 38.025C727.171 38.895 726.832 39.6683 726.156 40.345C725.576 40.925 724.851 41.215 723.981 41.215H692.661C690.534 41.215 688.842 39.9583 687.586 37.445C686.232 34.7383 684.589 32.7083 682.656 31.355C680.722 30.0017 677.726 29.325 673.666 29.325C669.122 29.325 665.497 30.3883 662.791 32.515C660.181 34.6417 658.876 37.6867 658.876 41.65V64.85ZM844.374 2.49999C845.437 2.49999 846.356 2.88666 847.129 3.66C847.902 4.43333 848.289 5.35166 848.289 6.41499V100.085C848.289 101.148 847.902 102.067 847.129 102.84C846.356 103.613 845.437 104 844.374 104H814.504C813.441 104 812.522 103.613 811.749 102.84C810.976 102.067 810.589 101.148 810.589 100.085V69.2H781.589V100.085C781.589 101.148 781.202 102.067 780.429 102.84C779.656 103.613 778.737 104 777.674 104H747.804C746.741 104 745.822 103.662 745.049 102.985C744.276 102.212 743.889 101.245 743.889 100.085V6.41499C743.889 5.35166 744.276 4.43333 745.049 3.66C745.822 2.88666 746.741 2.49999 747.804 2.49999H777.674C778.737 2.49999 779.656 2.88666 780.429 3.66C781.202 4.43333 781.589 5.35166 781.589 6.41499V36.14H810.589V6.41499C810.589 5.35166 810.976 4.43333 811.749 3.66C812.522 2.88666 813.441 2.49999 814.504 2.49999H844.374ZM965.348 2.49999C966.411 2.49999 967.329 2.88666 968.103 3.66C968.876 4.43333 969.263 5.35166 969.263 6.41499V100.085C969.263 101.148 968.876 102.067 968.103 102.84C967.329 103.613 966.411 104 965.348 104H942.003C939.683 104 937.749 102.985 936.203 100.955L904.593 60.645V100.085C904.593 101.148 904.206 102.067 903.433 102.84C902.659 103.613 901.741 104 900.678 104H873.708C872.644 104 871.726 103.613 870.953 102.84C870.179 102.067 869.793 101.148 869.793 100.085V6.41499C869.793 5.35166 870.179 4.43333 870.953 3.66C871.726 2.88666 872.644 2.49999 873.708 2.49999H897.198C899.518 2.49999 901.403 3.46666 902.853 5.4L934.463 49.045V6.41499C934.463 5.35166 934.849 4.43333 935.623 3.66C936.396 2.88666 937.314 2.49999 938.378 2.49999H965.348ZM1097.78 62.095C1097.78 76.885 1092.85 87.8083 1082.99 94.865C1073.22 101.922 1060.17 105.45 1043.84 105.45C1027.5 105.45 1014.4 101.922 1004.54 94.865C994.778 87.8083 989.896 76.7883 989.896 61.805V44.695C989.896 34.835 992.216 26.6667 996.856 20.19C1001.59 13.6167 1008.02 8.78333 1016.14 5.69C1024.26 2.59666 1033.49 1.04999 1043.84 1.04999C1054.18 1.04999 1063.36 2.59666 1071.39 5.69C1079.51 8.78333 1085.93 13.5683 1090.67 20.045C1095.41 26.5217 1097.78 34.6417 1097.78 44.405V62.095ZM1029.05 64.85C1029.05 68.8133 1030.35 71.8583 1032.96 73.985C1035.67 76.1117 1039.29 77.175 1043.84 77.175C1048.38 77.175 1051.96 76.1117 1054.57 73.985C1057.27 71.7617 1058.63 68.6683 1058.63 64.705V41.795C1058.63 37.8317 1057.27 34.7867 1054.57 32.66C1051.96 30.4367 1048.38 29.325 1043.84 29.325C1039.29 29.325 1035.67 30.3883 1032.96 32.515C1030.35 34.6417 1029.05 37.6867 1029.05 41.65V64.85ZM1214.98 74.275C1216.04 74.275 1216.96 74.6617 1217.73 75.435C1218.51 76.2083 1218.89 77.1267 1218.89 78.19V100.085C1218.89 101.148 1218.51 102.067 1217.73 102.84C1216.96 103.613 1216.04 104 1214.98 104H1130.3C1129.24 104 1128.32 103.613 1127.54 102.84C1126.77 102.067 1126.38 101.148 1126.38 100.085V6.41499C1126.38 5.35166 1126.77 4.43333 1127.54 3.66C1128.32 2.88666 1129.24 2.49999 1130.3 2.49999H1161.62C1162.68 2.49999 1163.6 2.88666 1164.37 3.66C1165.15 4.43333 1165.53 5.35166 1165.53 6.41499V74.275H1214.98ZM1345.52 62.095C1345.52 76.885 1340.59 87.8083 1330.73 94.865C1320.97 101.922 1307.92 105.45 1291.58 105.45C1275.25 105.45 1262.15 101.922 1252.29 94.865C1242.52 87.8083 1237.64 76.7883 1237.64 61.805V44.695C1237.64 34.835 1239.96 26.6667 1244.6 20.19C1249.34 13.6167 1255.77 8.78333 1263.89 5.69C1272.01 2.59666 1281.24 1.04999 1291.58 1.04999C1301.93 1.04999 1311.11 2.59666 1319.13 5.69C1327.25 8.78333 1333.68 13.5683 1338.42 20.045C1343.15 26.5217 1345.52 34.6417 1345.52 44.405V62.095ZM1276.79 64.85C1276.79 68.8133 1278.1 71.8583 1280.71 73.985C1283.41 76.1117 1287.04 77.175 1291.58 77.175C1296.13 77.175 1299.7 76.1117 1302.31 73.985C1305.02 71.7617 1306.37 68.6683 1306.37 64.705V41.795C1306.37 37.8317 1305.02 34.7867 1302.31 32.66C1299.7 30.4367 1296.13 29.325 1291.58 29.325C1287.04 29.325 1283.41 30.3883 1280.71 32.515C1278.1 34.6417 1276.79 37.6867 1276.79 41.65V64.85ZM1467.66 42.81C1468.72 42.81 1469.64 43.1967 1470.41 43.97C1471.18 44.7433 1471.57 45.6617 1471.57 46.725V62.095C1471.57 76.7883 1466.54 87.7117 1456.49 94.865C1446.53 101.922 1433.34 105.45 1416.91 105.45C1400.47 105.45 1387.23 101.922 1377.18 94.865C1367.22 87.7117 1362.24 76.6917 1362.24 61.805V44.695C1362.24 34.835 1364.66 26.6667 1369.49 20.19C1374.32 13.6167 1380.85 8.78333 1389.07 5.69C1397.28 2.59666 1406.56 1.04999 1416.91 1.04999C1429.28 1.04999 1439.48 3.07999 1447.5 7.13999C1455.52 11.2 1461.32 15.7917 1464.9 20.915C1468.57 26.0383 1470.41 30.195 1470.41 33.385C1470.41 34.255 1470.07 35.0283 1469.4 35.705C1468.82 36.285 1468.09 36.575 1467.22 36.575H1434.45C1432.52 36.575 1431.12 36.0433 1430.25 34.98C1427.25 31.21 1422.8 29.325 1416.91 29.325C1412.46 29.325 1408.74 30.34 1405.74 32.37C1402.84 34.4 1401.39 37.01 1401.39 40.2V64.85C1401.39 68.7167 1402.84 71.7617 1405.74 73.985C1408.64 76.1117 1412.36 77.175 1416.91 77.175C1422.9 77.175 1427.3 76.16 1430.1 74.13C1433 72.0033 1434.5 69.5383 1434.6 66.735H1425.61C1424.54 66.735 1423.62 66.3483 1422.85 65.575C1422.08 64.8017 1421.69 63.8833 1421.69 62.82V46.725C1421.69 45.6617 1422.08 44.7433 1422.85 43.97C1423.62 43.1967 1424.54 42.81 1425.61 42.81H1467.66ZM1592.4 2.49999C1593.27 2.49999 1593.99 2.83833 1594.57 3.515C1595.25 4.095 1595.59 4.77166 1595.59 5.545C1595.59 6.125 1595.44 6.70499 1595.15 7.28499L1558.61 67.75V100.085C1558.61 101.148 1558.23 102.067 1557.45 102.84C1556.68 103.613 1555.76 104 1554.7 104H1523.81C1522.75 104 1521.83 103.613 1521.06 102.84C1520.29 102.067 1519.9 101.148 1519.9 100.085V67.75L1483.5 7.28499C1483.21 6.70499 1483.07 6.17333 1483.07 5.69C1483.07 4.81999 1483.36 4.095 1483.94 3.515C1484.62 2.83833 1485.39 2.49999 1486.26 2.49999H1516.85C1519.56 2.49999 1521.54 3.61166 1522.8 5.83499L1539.18 34.545L1556 6.125C1557.45 3.70833 1559.48 2.49999 1562.09 2.49999H1592.4Z" fill="url(#paint0_linear_104_161)"/>
<path d="M15.91 94.865L15.3126 95.667L15.3165 95.6699L15.91 94.865ZM38.675 3.66L39.3821 2.95289V2.95289L38.675 3.66ZM43.75 73.26L43.1183 74.0352L43.1252 74.0408L43.1322 74.0463L43.75 73.26ZM65.355 73.26L64.7372 72.4737L64.7302 72.4792L64.7233 72.4848L65.355 73.26ZM106.39 3.66L107.097 2.95289L107.097 2.95289L106.39 3.66ZM93.195 94.865L92.6015 94.0601L92.5976 94.063L93.195 94.865ZM54.625 104.45C38.5218 104.45 25.8486 100.951 16.5035 94.0602L15.3165 95.6699C25.1114 102.892 38.2482 106.45 54.625 106.45V104.45ZM16.5074 94.063C7.35415 87.2448 2.7 76.5661 2.7 61.805H0.7C0.7 77.0105 5.51919 88.3718 15.3126 95.667L16.5074 94.063ZM2.7 61.805V6.415H0.7V61.805H2.7ZM2.7 6.415C2.7 5.62523 2.97533 4.95889 3.56711 4.3671L2.15289 2.95289C1.19801 3.90778 0.7 5.0781 0.7 6.415H2.7ZM3.56711 4.3671C4.15889 3.77532 4.82523 3.49999 5.615 3.49999V1.49999C4.2781 1.49999 3.10778 1.998 2.15289 2.95289L3.56711 4.3671ZM5.615 3.49999H35.92V1.49999H5.615V3.49999ZM35.92 3.49999C36.7098 3.49999 37.3761 3.77532 37.9679 4.3671L39.3821 2.95289C38.4272 1.998 37.2569 1.49999 35.92 1.49999V3.49999ZM37.9679 4.3671C38.5597 4.95889 38.835 5.62523 38.835 6.415H40.835C40.835 5.0781 40.337 3.90778 39.3821 2.95289L37.9679 4.3671ZM38.835 6.415V64.125H40.835V6.415H38.835ZM38.835 64.125C38.835 68.3296 40.2328 71.6841 43.1183 74.0352L44.3817 72.4848C42.0472 70.5826 40.835 67.8471 40.835 64.125H38.835ZM43.1322 74.0463C46.0642 76.3501 49.9294 77.45 54.625 77.45V75.45C50.2339 75.45 46.8491 74.4233 44.3678 72.4737L43.1322 74.0463ZM54.625 77.45C59.3181 77.45 63.1446 76.351 65.9867 74.0352L64.7233 72.4848C62.3454 74.4223 59.0185 75.45 54.625 75.45V77.45ZM65.9728 74.0463C68.9592 71.6999 70.415 68.3427 70.415 64.125H68.415C68.415 67.8339 67.1641 70.5668 64.7372 72.4737L65.9728 74.0463ZM70.415 64.125V6.415H68.415V64.125H70.415ZM70.415 6.415C70.415 5.62523 70.6903 4.95889 71.2821 4.3671L69.8679 2.95289C68.913 3.90777 68.415 5.0781 68.415 6.415H70.415ZM71.2821 4.3671C71.8739 3.77532 72.5402 3.49999 73.33 3.49999V1.49999C71.9931 1.49999 70.8228 1.998 69.8679 2.95289L71.2821 4.3671ZM73.33 3.49999H103.635V1.49999H73.33V3.49999ZM103.635 3.49999C104.425 3.49999 105.091 3.77532 105.683 4.3671L107.097 2.95289C106.142 1.998 104.972 1.49999 103.635 1.49999V3.49999ZM105.683 4.3671C106.275 4.95888 106.55 5.62522 106.55 6.415H108.55C108.55 5.0781 108.052 3.90778 107.097 2.95289L105.683 4.3671ZM106.55 6.415V61.805H108.55V6.415H106.55ZM106.55 61.805C106.55 76.5624 101.85 87.2405 92.6015 94.0602L93.7885 95.6699C103.68 88.3762 108.55 77.0143 108.55 61.805H106.55ZM92.5976 94.063C83.3511 100.951 70.7289 104.45 54.625 104.45V106.45C71.0011 106.45 84.0922 102.893 93.7924 95.667L92.5976 94.063ZM159.798 70.65L159.091 71.3571V71.3571L159.798 70.65ZM123.838 102.84L124.545 102.133V102.133L123.838 102.84ZM123.838 70.65L124.545 71.3571V71.3571L123.838 70.65ZM157.043 70.49C157.833 70.49 158.499 70.7653 159.091 71.3571L160.505 69.9429C159.551 68.988 158.38 68.49 157.043 68.49V70.49ZM159.091 71.3571C159.683 71.9489 159.958 72.6152 159.958 73.405H161.958C161.958 72.0681 161.46 70.8978 160.505 69.9429L159.091 71.3571ZM159.958 73.405V100.085H161.958V73.405H159.958ZM159.958 100.085C159.958 100.875 159.683 101.541 159.091 102.133L160.505 103.547C161.46 102.592 161.958 101.422 161.958 100.085H159.958ZM159.091 102.133C158.499 102.725 157.833 103 157.043 103V105C158.38 105 159.551 104.502 160.505 103.547L159.091 102.133ZM157.043 103H126.593V105H157.043V103ZM126.593 103C125.804 103 125.137 102.725 124.545 102.133L123.131 103.547C124.086 104.502 125.256 105 126.593 105V103ZM124.545 102.133C123.954 101.541 123.678 100.875 123.678 100.085H121.678C121.678 101.422 122.176 102.592 123.131 103.547L124.545 102.133ZM123.678 100.085V73.405H121.678V100.085H123.678ZM123.678 73.405C123.678 72.6152 123.954 71.9489 124.545 71.3571L123.131 69.9429C122.176 70.8978 121.678 72.0681 121.678 73.405H123.678ZM124.545 71.3571C125.137 70.7653 125.804 70.49 126.593 70.49V68.49C125.256 68.49 124.086 68.988 123.131 69.9429L124.545 71.3571ZM126.593 70.49H157.043V68.49H126.593V70.49ZM236.987 39.33L236.872 40.3234L236.878 40.3241L236.987 39.33ZM262.507 44.985L262.128 45.9106L262.133 45.9125L262.507 44.985ZM276.572 55.28L275.745 55.8433V55.8433L276.572 55.28ZM274.107 89.5L273.352 88.8435L273.352 88.8445L274.107 89.5ZM255.547 101.39L255.87 102.336L255.88 102.333L255.547 101.39ZM199.722 101.245L199.385 102.186L199.722 101.245ZM182.177 90.08L181.402 90.7124L181.408 90.7202L182.177 90.08ZM177.247 72.245L176.596 71.4857L176.567 71.5107L176.54 71.5379L177.247 72.245ZM214.367 73.26L213.66 73.9671L213.67 73.9778L213.681 73.9882L214.367 73.26ZM219.877 76.45L219.602 77.4115L219.623 77.4176L219.645 77.4228L219.877 76.45ZM240.322 70.07L239.722 70.87L239.758 70.8976L239.798 70.9217L240.322 70.07ZM233.942 67.895L233.721 68.8704L233.739 68.8745L233.757 68.8779L233.942 67.895ZM220.602 65.865L220.486 66.8582L220.488 66.8585L220.602 65.865ZM190.152 56.005L189.564 56.8142L189.572 56.8195L190.152 56.005ZM185.512 17L184.726 16.3808L185.512 17ZM202.332 5.25499L201.975 4.32069L201.971 4.32229L202.332 5.25499ZM254.242 5.83499L253.852 6.75602L253.862 6.76016L254.242 5.83499ZM271.497 17.435L270.736 18.0845V18.0845L271.497 17.435ZM276.427 33.385L275.776 32.6257L275.747 32.6507L275.72 32.6779L276.427 33.385ZM238.292 32.515L237.619 33.2549L237.63 33.2648L237.641 33.2743L238.292 32.515ZM234.522 30.195L234.15 31.1235V31.1235L234.522 30.195ZM221.907 36.865L221.58 37.81L221.596 37.8157L221.613 37.8208L221.907 36.865ZM236.878 40.3241C247.464 41.4789 255.868 43.3497 262.128 45.9105L262.885 44.0595C256.385 41.4003 247.776 39.5011 237.095 38.3359L236.878 40.3241ZM262.133 45.9125C268.49 48.4742 272.99 51.8023 275.745 55.8433L277.398 54.7167C274.353 50.251 269.477 46.7157 262.88 44.0575L262.133 45.9125ZM275.745 55.8433C278.508 59.8947 279.922 65.0025 279.922 71.23H281.922C281.922 64.6975 280.436 59.172 277.398 54.7167L275.745 55.8433ZM279.922 71.23C279.922 77.9502 277.736 83.8066 273.352 88.8435L274.861 90.1565C279.564 84.7533 281.922 78.4298 281.922 71.23H279.922ZM273.352 88.8445C269.042 93.8094 263.016 97.6879 255.213 100.447L255.88 102.333C263.931 99.4854 270.278 95.4372 274.862 90.1555L273.352 88.8445ZM255.224 100.444C247.42 103.108 238.494 104.45 228.432 104.45V106.45C238.669 106.45 247.82 105.085 255.87 102.336L255.224 100.444ZM228.432 104.45C217.198 104.45 207.749 103.057 200.059 100.304L199.385 102.186C207.354 105.04 217.045 106.45 228.432 106.45V104.45ZM200.059 100.304C192.336 97.5386 186.662 93.9005 182.945 89.4398L181.408 90.7202C185.425 95.5395 191.447 99.3447 199.385 102.186L200.059 100.304ZM182.951 89.4476C179.216 84.8722 177.377 79.9198 177.377 74.565H175.377C175.377 80.4235 177.404 85.8145 181.402 90.7124L182.951 89.4476ZM177.377 74.565C177.377 73.8126 177.595 73.3114 177.954 72.9521L176.54 71.5379C175.739 72.3386 175.377 73.3841 175.377 74.565H177.377ZM177.898 73.0043C178.377 72.5932 178.962 72.375 179.712 72.375V70.375C178.528 70.375 177.47 70.7368 176.596 71.4857L177.898 73.0043ZM179.712 72.375H209.437V70.375H179.712V72.375ZM209.437 72.375C211.243 72.375 212.618 72.9251 213.66 73.9671L215.074 72.5529C213.602 71.0816 211.691 70.375 209.437 70.375V72.375ZM213.681 73.9882C215.433 75.6366 217.408 76.7847 219.602 77.4115L220.151 75.4885C218.285 74.9553 216.587 73.9768 215.052 72.5318L213.681 73.9882ZM219.645 77.4228C221.787 77.9329 224.73 78.175 228.432 78.175V76.175C224.787 76.175 222.026 75.9338 220.108 75.4772L219.645 77.4228ZM228.432 78.175C233.049 78.175 236.614 77.8254 239.055 77.0802C241.429 76.3554 243.207 75.087 243.207 72.97H241.207C241.207 73.6564 240.688 74.4904 238.471 75.1673C236.321 75.8238 232.997 76.175 228.432 76.175V78.175ZM243.207 72.97C243.207 71.3669 242.306 70.117 240.846 69.2183L239.798 70.9217C240.851 71.5696 241.207 72.2531 241.207 72.97H243.207ZM240.922 69.27C239.562 68.2505 237.233 67.4948 234.126 66.9121L233.757 68.8779C236.837 69.4552 238.761 70.1495 239.722 70.87L240.922 69.27ZM234.162 66.9196C231.111 66.2307 226.622 65.5493 220.716 64.8715L220.488 66.8585C226.375 67.5341 230.779 68.2059 233.721 68.8704L234.162 66.9196ZM220.718 64.8717C207.559 63.335 197.597 60.0806 190.732 55.1905L189.572 56.8195C196.82 61.9827 207.157 65.3017 220.486 66.8582L220.718 64.8717ZM190.739 55.1958C183.961 50.2743 180.567 43.3839 180.567 34.4H178.567C178.567 43.9761 182.23 51.489 189.564 56.8142L190.739 55.1958ZM180.567 34.4C180.567 28.0448 182.477 22.4643 186.297 17.6192L184.726 16.3808C180.62 21.589 178.567 27.6086 178.567 34.4H180.567ZM186.297 17.6192C190.128 12.7605 195.574 8.94027 202.692 6.18769L201.971 4.32229C194.59 7.17639 188.822 11.1862 184.726 16.3808L186.297 17.6192ZM202.688 6.18929C209.898 3.43808 218.28 2.05 227.852 2.05V0.0499954C218.09 0.0499954 209.458 1.46524 201.975 4.3207L202.688 6.18929ZM227.852 2.05C237.801 2.05 246.46 3.62856 253.852 6.75596L254.631 4.91403C246.943 1.66143 238.009 0.0499954 227.852 0.0499954V2.05ZM253.862 6.76016C261.302 9.81255 266.905 13.599 270.736 18.0845L272.257 16.7855C268.162 11.991 262.261 8.04411 254.621 4.90982L253.862 6.76016ZM270.736 18.0845C274.603 22.6108 276.442 26.9322 276.442 31.065H278.442C278.442 26.3045 276.318 21.5392 272.257 16.7855L270.736 18.0845ZM276.442 31.065C276.442 31.7677 276.211 32.2532 275.776 32.6257L277.078 34.1443C277.996 33.3568 278.442 32.2956 278.442 31.065H276.442ZM275.72 32.6779C275.378 33.0194 274.842 33.255 273.962 33.255V35.255C275.208 35.255 276.315 34.9106 277.134 34.0921L275.72 32.6779ZM273.962 33.255H242.787V35.255H273.962V33.255ZM242.787 33.255C241.403 33.255 240.131 32.7746 238.943 31.7557L237.641 33.2743C239.159 34.5754 240.884 35.255 242.787 35.255V33.255ZM238.964 31.7751C237.805 30.7214 236.444 29.887 234.893 29.2665L234.15 31.1235C235.499 31.663 236.651 32.3753 237.619 33.2549L238.964 31.7751ZM234.893 29.2665C233.261 28.6136 230.881 28.325 227.852 28.325V30.325C230.816 30.325 232.883 30.6164 234.15 31.1235L234.893 29.2665ZM227.852 28.325C224.574 28.325 221.985 28.6631 220.18 29.4173C219.267 29.7986 218.502 30.3082 217.962 30.9852C217.41 31.6778 217.137 32.4921 217.137 33.385H219.137C219.137 32.9245 219.269 32.5547 219.526 32.2323C219.795 31.8943 220.244 31.558 220.951 31.2627C222.385 30.6636 224.653 30.325 227.852 30.325V28.325ZM217.137 33.385C217.137 35.5481 219.027 36.9264 221.58 37.81L222.234 35.92C219.76 35.0636 219.137 34.1219 219.137 33.385H217.137ZM221.613 37.8208C224.228 38.6254 229.345 39.4549 236.872 40.3234L237.101 38.3366C229.548 37.4651 224.612 36.6512 222.201 35.9092L221.613 37.8208ZM334.185 70.65L333.478 71.3571V71.3571L334.185 70.65ZM298.225 102.84L298.932 102.133V102.133L298.225 102.84ZM298.225 70.65L298.932 71.3571V71.3571L298.225 70.65ZM331.43 70.49C332.22 70.49 332.886 70.7653 333.478 71.3571L334.892 69.9429C333.937 68.988 332.767 68.49 331.43 68.49V70.49ZM333.478 71.3571C334.07 71.9489 334.345 72.6152 334.345 73.405H336.345C336.345 72.0681 335.847 70.8978 334.892 69.9429L333.478 71.3571ZM334.345 73.405V100.085H336.345V73.405H334.345ZM334.345 100.085C334.345 100.875 334.07 101.541 333.478 102.133L334.892 103.547C335.847 102.592 336.345 101.422 336.345 100.085H334.345ZM333.478 102.133C332.886 102.725 332.22 103 331.43 103V105C332.767 105 333.937 104.502 334.892 103.547L333.478 102.133ZM331.43 103H300.98V105H331.43V103ZM300.98 103C300.19 103 299.524 102.725 298.932 102.133L297.518 103.547C298.473 104.502 299.643 105 300.98 105V103ZM298.932 102.133C298.34 101.541 298.065 100.875 298.065 100.085H296.065C296.065 101.422 296.563 102.592 297.518 103.547L298.932 102.133ZM298.065 100.085V73.405H296.065V100.085H298.065ZM298.065 73.405C298.065 72.6152 298.34 71.9489 298.932 71.3571L297.518 69.9429C296.563 70.8978 296.065 72.0681 296.065 73.405H298.065ZM298.932 71.3571C299.524 70.7653 300.19 70.49 300.98 70.49V68.49C299.643 68.49 298.473 68.988 297.518 69.9429L298.932 71.3571ZM300.98 70.49H331.43V68.49H300.98V70.49ZM443.319 33.675V32.675H442.319V33.675H443.319ZM442.159 102.84L442.866 103.547L442.159 102.84ZM406.779 102.84L406.072 103.547L406.779 102.84ZM405.619 33.675H406.619V32.675H405.619V33.675ZM474.494 3.49999C475.284 3.49999 475.95 3.77532 476.542 4.3671L477.956 2.95289C477.001 1.998 475.831 1.49999 474.494 1.49999V3.49999ZM476.542 4.3671C477.134 4.95889 477.409 5.62523 477.409 6.415H479.409C479.409 5.0781 478.911 3.90777 477.956 2.95289L476.542 4.3671ZM477.409 6.415V29.76H479.409V6.415H477.409ZM477.409 29.76C477.409 30.5498 477.134 31.2161 476.542 31.8079L477.956 33.2221C478.911 32.2672 479.409 31.0969 479.409 29.76H477.409ZM476.542 31.8079C475.95 32.3997 475.284 32.675 474.494 32.675V34.675C475.831 34.675 477.001 34.177 477.956 33.2221L476.542 31.8079ZM474.494 32.675H443.319V34.675H474.494V32.675ZM442.319 33.675V100.085H444.319V33.675H442.319ZM442.319 100.085C442.319 100.875 442.044 101.541 441.452 102.133L442.866 103.547C443.821 102.592 444.319 101.422 444.319 100.085H442.319ZM441.452 102.133C440.86 102.725 440.194 103 439.404 103V105C440.741 105 441.911 104.502 442.866 103.547L441.452 102.133ZM439.404 103H409.534V105H439.404V103ZM409.534 103C408.744 103 408.078 102.725 407.486 102.133L406.072 103.547C407.027 104.502 408.197 105 409.534 105V103ZM407.486 102.133C406.894 101.541 406.619 100.875 406.619 100.085H404.619C404.619 101.422 405.117 102.592 406.072 103.547L407.486 102.133ZM406.619 100.085V33.675H404.619V100.085H406.619ZM405.619 32.675H374.444V34.675H405.619V32.675ZM374.444 32.675C373.654 32.675 372.988 32.3997 372.396 31.8079L370.982 33.2221C371.937 34.177 373.107 34.675 374.444 34.675V32.675ZM372.396 31.8079C371.804 31.2161 371.529 30.5498 371.529 29.76H369.529C369.529 31.0969 370.027 32.2672 370.982 33.2221L372.396 31.8079ZM371.529 29.76V6.415H369.529V29.76H371.529ZM371.529 6.415C371.529 5.62523 371.804 4.95889 372.396 4.3671L370.982 2.95289C370.027 3.90778 369.529 5.0781 369.529 6.415H371.529ZM372.396 4.3671C372.988 3.77532 373.654 3.49999 374.444 3.49999V1.49999C373.107 1.49999 371.937 1.998 370.982 2.95289L372.396 4.3671ZM374.444 3.49999H474.494V1.49999H374.444V3.49999ZM598.077 76.885L597.37 77.5921V77.5921L598.077 76.885ZM598.077 102.84L597.37 102.133V102.133L598.077 102.84ZM596.627 3.66L595.92 4.3671V4.3671L596.627 3.66ZM596.627 29.615L595.92 28.9079V28.9079L596.627 29.615ZM537.467 30.775V29.775H536.467V30.775H537.467ZM537.467 39.91H536.467V40.91H537.467V39.91ZM588.652 41.07L587.945 41.7771V41.7771L588.652 41.07ZM588.652 65.43L587.945 64.7229L588.652 65.43ZM537.467 66.59V65.59H536.467V66.59H537.467ZM537.467 75.725H536.467V76.725H537.467V75.725ZM595.322 76.725C596.112 76.725 596.779 77.0003 597.37 77.5921L598.785 76.1779C597.83 75.223 596.659 74.725 595.322 74.725V76.725ZM597.37 77.5921C597.962 78.1839 598.237 78.8502 598.237 79.64H600.237C600.237 78.3031 599.739 77.1328 598.784 76.1779L597.37 77.5921ZM598.237 79.64V100.085H600.237V79.64H598.237ZM598.237 100.085C598.237 100.875 597.962 101.541 597.37 102.133L598.784 103.547C599.739 102.592 600.237 101.422 600.237 100.085H598.237ZM597.37 102.133C596.779 102.725 596.112 103 595.322 103V105C596.659 105 597.83 104.502 598.785 103.547L597.37 102.133ZM595.322 103H503.682V105H595.322V103ZM503.682 103C502.893 103 502.226 102.725 501.635 102.133L500.22 103.547C501.175 104.502 502.346 105 503.682 105V103ZM501.635 102.133C501.043 101.541 500.767 100.875 500.767 100.085H498.767C498.767 101.422 499.265 102.592 500.22 103.547L501.635 102.133ZM500.767 100.085V6.415H498.767V100.085H500.767ZM500.767 6.415C500.767 5.62523 501.043 4.95889 501.635 4.3671L500.22 2.95289C499.265 3.90778 498.767 5.0781 498.767 6.415H500.767ZM501.635 4.3671C502.226 3.77532 502.893 3.49999 503.682 3.49999V1.49999C502.346 1.49999 501.175 1.998 500.22 2.95289L501.635 4.3671ZM503.682 3.49999H593.872V1.49999H503.682V3.49999ZM593.872 3.49999C594.662 3.49999 595.329 3.77532 595.92 4.3671L597.335 2.95289C596.38 1.998 595.209 1.49999 593.872 1.49999V3.49999ZM595.92 4.3671C596.512 4.95889 596.787 5.62523 596.787 6.415H598.787C598.787 5.0781 598.289 3.90777 597.335 2.95289L595.92 4.3671ZM596.787 6.415V26.86H598.787V6.415H596.787ZM596.787 26.86C596.787 27.6498 596.512 28.3161 595.92 28.9079L597.335 30.3221C598.289 29.3672 598.787 28.1969 598.787 26.86H596.787ZM595.92 28.9079C595.329 29.4997 594.662 29.775 593.872 29.775V31.775C595.209 31.775 596.38 31.277 597.335 30.3221L595.92 28.9079ZM593.872 29.775H537.467V31.775H593.872V29.775ZM536.467 30.775V39.91H538.467V30.775H536.467ZM537.467 40.91H585.897V38.91H537.467V40.91ZM585.897 40.91C586.687 40.91 587.354 41.1853 587.945 41.7771L589.359 40.3629C588.405 39.408 587.234 38.91 585.897 38.91V40.91ZM587.945 41.7771C588.537 42.3689 588.812 43.0352 588.812 43.825H590.812C590.812 42.4881 590.314 41.3178 589.359 40.3629L587.945 41.7771ZM588.812 43.825V62.675H590.812V43.825H588.812ZM588.812 62.675C588.812 63.4648 588.537 64.1311 587.945 64.7229L589.359 66.1371C590.314 65.1822 590.812 64.0119 590.812 62.675H588.812ZM587.945 64.7229C587.354 65.3147 586.687 65.59 585.897 65.59V67.59C587.234 67.59 588.405 67.092 589.359 66.1371L587.945 64.7229ZM585.897 65.59H537.467V67.59H585.897V65.59ZM536.467 66.59V75.725H538.467V66.59H536.467ZM537.467 76.725H595.322V74.725H537.467V76.725ZM662.791 73.985L662.159 74.7602L662.166 74.7658L662.173 74.7713L662.791 73.985ZM682.656 75.145L682.082 74.3258V74.3258L682.656 75.145ZM687.586 69.055L686.691 68.6078L687.586 69.055ZM726.156 66.3L725.396 66.9508L725.447 67.0092L725.505 67.0592L726.156 66.3ZM721.226 85.875L722.042 86.4523L722.047 86.4457L721.226 85.875ZM703.101 99.94L703.517 100.849L703.522 100.847L703.101 99.94ZM645.971 100.81L645.601 101.739L645.608 101.742L645.615 101.744L645.971 100.81ZM626.831 86.31L626.019 86.8946L626.024 86.9003L626.831 86.31ZM626.831 20.335L627.638 20.9253L627.642 20.9196L626.831 20.335ZM645.971 5.83499L646.331 6.76807L646.336 6.76575L645.971 5.83499ZM703.101 6.705L702.675 7.61007L702.682 7.61313L702.689 7.61611L703.101 6.705ZM721.226 20.77L720.405 21.3407L720.409 21.3472L721.226 20.77ZM726.156 40.345L726.863 41.0521V41.0521L726.156 40.345ZM687.586 37.445L686.691 37.8922V37.8922L687.586 37.445ZM682.656 31.355L683.229 30.5358V30.5358L682.656 31.355ZM662.791 32.515L662.173 31.7287L662.166 31.7342L662.159 31.7398L662.791 32.515ZM657.876 64.85C657.876 69.0546 659.274 72.4091 662.159 74.7602L663.422 73.2098C661.088 71.3076 659.876 68.5721 659.876 64.85H657.876ZM662.173 74.7713C665.105 77.0751 668.97 78.175 673.666 78.175V76.175C669.275 76.175 665.89 75.1483 663.409 73.1987L662.173 74.7713ZM673.666 78.175C677.799 78.175 681.045 77.4931 683.229 75.9642L682.082 74.3258C680.4 75.5036 677.652 76.175 673.666 76.175V78.175ZM683.229 75.9642C685.332 74.4923 687.073 72.3167 688.48 69.5022L686.691 68.6078C685.392 71.2066 683.846 73.091 682.082 74.3258L683.229 75.9642ZM688.48 69.5022C689.631 67.1999 691.037 66.285 692.661 66.285V64.285C690.031 64.285 688.054 65.8834 686.691 68.6078L688.48 69.5022ZM692.661 66.285H723.981V64.285H692.661V66.285ZM723.981 66.285C724.551 66.285 725.001 66.4896 725.396 66.9508L726.915 65.6492C726.15 64.7571 725.151 64.285 723.981 64.285V66.285ZM725.505 67.0592C725.966 67.4546 726.171 67.905 726.171 68.475H728.171C728.171 67.305 727.699 66.3054 726.807 65.5407L725.505 67.0592ZM726.171 68.475C726.171 74.1334 724.273 79.738 720.405 85.3043L722.047 86.4457C726.105 80.6053 728.171 74.6099 728.171 68.475H726.171ZM720.409 85.2978C716.573 90.7249 710.688 95.3148 702.68 99.033L703.522 100.847C711.753 97.0252 717.952 92.2384 722.042 86.4522L720.409 85.2978ZM702.685 99.0308C694.826 102.629 685.165 104.45 673.666 104.45V106.45C685.366 106.45 695.329 104.598 703.517 100.849L702.685 99.0308ZM673.666 104.45C663.421 104.45 654.314 102.918 646.327 99.8755L645.615 101.744C653.868 104.889 663.223 106.45 673.666 106.45V104.45ZM646.34 99.8808C638.478 96.7548 632.255 92.0328 627.638 85.7197L626.024 86.9003C630.88 93.5405 637.417 98.4852 645.601 101.739L646.34 99.8808ZM627.642 85.7254C623.052 79.3548 620.726 71.4025 620.726 61.805H618.726C618.726 71.7342 621.137 80.1185 626.019 86.8946L627.642 85.7254ZM620.726 61.805V44.695H618.726V61.805H620.726ZM620.726 44.695C620.726 35.0969 623.052 27.1963 627.638 20.9253L626.024 19.7447C621.136 26.427 618.726 34.7664 618.726 44.695H620.726ZM627.642 20.9196C632.258 14.5136 638.477 9.79603 646.331 6.76805L645.611 4.90194C637.418 8.06062 630.877 13.0097 626.019 19.7504L627.642 20.9196ZM646.336 6.76575C654.32 3.62914 663.425 2.05 673.666 2.05V0.0499954C663.22 0.0499954 653.861 1.66084 645.605 4.90424L646.336 6.76575ZM673.666 2.05C685.162 2.05 694.82 3.91875 702.675 7.61007L703.526 5.79993C695.335 1.95124 685.369 0.0499954 673.666 0.0499954V2.05ZM702.689 7.61611C710.69 11.2357 716.57 15.8221 720.405 21.3407L722.047 20.1993C717.955 14.3112 711.752 9.52096 703.513 5.79389L702.689 7.61611ZM720.409 21.3472C724.273 26.8137 726.171 32.3676 726.171 38.025H728.171C728.171 31.8891 726.105 25.9396 722.042 20.1928L720.409 21.3472ZM726.171 38.025C726.171 38.602 725.958 39.1282 725.449 39.6379L726.863 41.0521C727.706 40.2085 728.171 39.188 728.171 38.025H726.171ZM725.449 39.6379C725.068 40.0181 724.603 40.215 723.981 40.215V42.215C725.098 42.215 726.083 41.8319 726.863 41.0521L725.449 39.6379ZM723.981 40.215H692.661V42.215H723.981V40.215ZM692.661 40.215C691.037 40.215 689.631 39.3001 688.48 36.9978L686.691 37.8922C688.054 40.6166 690.031 42.215 692.661 42.215V40.215ZM688.48 36.9978C687.073 34.1833 685.332 32.0077 683.229 30.5358L682.082 32.1742C683.846 33.409 685.392 35.2934 686.691 37.8922L688.48 36.9978ZM683.229 30.5358C681.045 29.0069 677.799 28.325 673.666 28.325V30.325C677.652 30.325 680.4 30.9964 682.082 32.1742L683.229 30.5358ZM673.666 28.325C668.97 28.325 665.105 29.4249 662.173 31.7287L663.409 33.3013C665.89 31.3517 669.275 30.325 673.666 30.325V28.325ZM662.159 31.7398C659.274 34.0909 657.876 37.4454 657.876 41.65H659.876C659.876 37.9279 661.088 35.1924 663.422 33.2902L662.159 31.7398ZM657.876 41.65V64.85H659.876V41.65H657.876ZM847.129 3.66L846.422 4.3671V4.3671L847.129 3.66ZM847.129 102.84L846.422 102.133V102.133L847.129 102.84ZM811.749 102.84L812.456 102.133V102.133L811.749 102.84ZM810.589 69.2H811.589V68.2H810.589V69.2ZM781.589 69.2V68.2H780.589V69.2H781.589ZM780.429 102.84L779.722 102.133V102.133L780.429 102.84ZM745.049 102.985L744.342 103.692L744.366 103.716L744.391 103.738L745.049 102.985ZM745.049 3.66L745.756 4.3671L745.049 3.66ZM780.429 3.66L779.722 4.3671L780.429 3.66ZM781.589 36.14H780.589V37.14H781.589V36.14ZM810.589 36.14V37.14H811.589V36.14H810.589ZM811.749 3.66L812.456 4.3671V4.3671L811.749 3.66ZM844.374 3.49999C845.164 3.49999 845.83 3.77532 846.422 4.3671L847.836 2.95289C846.881 1.998 845.711 1.49999 844.374 1.49999V3.49999ZM846.422 4.3671C847.014 4.95889 847.289 5.62523 847.289 6.415H849.289C849.289 5.0781 848.791 3.90777 847.836 2.95289L846.422 4.3671ZM847.289 6.415V100.085H849.289V6.415H847.289ZM847.289 100.085C847.289 100.875 847.014 101.541 846.422 102.133L847.836 103.547C848.791 102.592 849.289 101.422 849.289 100.085H847.289ZM846.422 102.133C845.83 102.725 845.164 103 844.374 103V105C845.711 105 846.881 104.502 847.836 103.547L846.422 102.133ZM844.374 103H814.504V105H844.374V103ZM814.504 103C813.714 103 813.048 102.725 812.456 102.133L811.042 103.547C811.997 104.502 813.167 105 814.504 105V103ZM812.456 102.133C811.864 101.541 811.589 100.875 811.589 100.085H809.589C809.589 101.422 810.087 102.592 811.042 103.547L812.456 102.133ZM811.589 100.085V69.2H809.589V100.085H811.589ZM810.589 68.2H781.589V70.2H810.589V68.2ZM780.589 69.2V100.085H782.589V69.2H780.589ZM780.589 100.085C780.589 100.875 780.314 101.541 779.722 102.133L781.136 103.547C782.091 102.592 782.589 101.422 782.589 100.085H780.589ZM779.722 102.133C779.13 102.725 778.464 103 777.674 103V105C779.011 105 780.181 104.502 781.136 103.547L779.722 102.133ZM777.674 103H747.804V105H777.674V103ZM747.804 103C746.974 103 746.292 102.744 745.708 102.232L744.391 103.738C745.353 104.58 746.508 105 747.804 105V103ZM745.756 102.278C745.183 101.704 744.889 100.998 744.889 100.085H742.889C742.889 101.492 743.369 102.719 744.342 103.692L745.756 102.278ZM744.889 100.085V6.415H742.889V100.085H744.889ZM744.889 6.415C744.889 5.62523 745.164 4.95889 745.756 4.3671L744.342 2.95289C743.387 3.90778 742.889 5.0781 742.889 6.415H744.889ZM745.756 4.3671C746.348 3.77532 747.014 3.49999 747.804 3.49999V1.49999C746.467 1.49999 745.297 1.998 744.342 2.95289L745.756 4.3671ZM747.804 3.49999H777.674V1.49999H747.804V3.49999ZM777.674 3.49999C778.464 3.49999 779.13 3.77532 779.722 4.3671L781.136 2.95289C780.181 1.998 779.011 1.49999 777.674 1.49999V3.49999ZM779.722 4.3671C780.314 4.95889 780.589 5.62523 780.589 6.415H782.589C782.589 5.0781 782.091 3.90777 781.136 2.95289L779.722 4.3671ZM780.589 6.415V36.14H782.589V6.415H780.589ZM781.589 37.14H810.589V35.14H781.589V37.14ZM811.589 36.14V6.415H809.589V36.14H811.589ZM811.589 6.415C811.589 5.62523 811.864 4.95889 812.456 4.3671L811.042 2.95289C810.087 3.90777 809.589 5.0781 809.589 6.415H811.589ZM812.456 4.3671C813.048 3.77532 813.714 3.49999 814.504 3.49999V1.49999C813.167 1.49999 811.997 1.998 811.042 2.95289L812.456 4.3671ZM814.504 3.49999H844.374V1.49999H814.504V3.49999ZM936.203 100.955L936.998 100.349L936.989 100.338L936.203 100.955ZM904.593 60.645L905.379 60.0279L903.593 57.7492V60.645H904.593ZM903.433 102.84L904.14 103.547L903.433 102.84ZM902.853 5.4L903.662 4.81343L903.658 4.80667L903.653 4.8L902.853 5.4ZM934.463 49.045L933.653 49.6316L935.463 52.1306V49.045H934.463ZM935.623 3.66L936.33 4.3671V4.3671L935.623 3.66ZM965.348 3.49999C966.137 3.49999 966.804 3.77532 967.395 4.3671L968.81 2.95289C967.855 1.998 966.684 1.49999 965.348 1.49999V3.49999ZM967.395 4.3671C967.987 4.95889 968.263 5.62523 968.263 6.415H970.263C970.263 5.0781 969.765 3.90777 968.81 2.95289L967.395 4.3671ZM968.263 6.415V100.085H970.263V6.415H968.263ZM968.263 100.085C968.263 100.875 967.987 101.541 967.395 102.133L968.81 103.547C969.765 102.592 970.263 101.422 970.263 100.085H968.263ZM967.395 102.133C966.804 102.725 966.137 103 965.348 103V105C966.684 105 967.855 104.502 968.81 103.547L967.395 102.133ZM965.348 103H942.003V105H965.348V103ZM942.003 103C940.029 103 938.377 102.159 936.998 100.349L935.407 101.561C937.121 103.811 939.336 105 942.003 105V103ZM936.989 100.338L905.379 60.0279L903.806 61.2621L935.416 101.572L936.989 100.338ZM903.593 60.645V100.085H905.593V60.645H903.593ZM903.593 100.085C903.593 100.875 903.317 101.541 902.725 102.133L904.14 103.547C905.095 102.592 905.593 101.422 905.593 100.085H903.593ZM902.725 102.133C902.134 102.725 901.467 103 900.678 103V105C902.014 105 903.185 104.502 904.14 103.547L902.725 102.133ZM900.678 103H873.708V105H900.678V103ZM873.708 103C872.918 103 872.251 102.725 871.66 102.133L870.245 103.547C871.2 104.502 872.371 105 873.708 105V103ZM871.66 102.133C871.068 101.541 870.793 100.875 870.793 100.085H868.793C868.793 101.422 869.291 102.592 870.245 103.547L871.66 102.133ZM870.793 100.085V6.415H868.793V100.085H870.793ZM870.793 6.415C870.793 5.62523 871.068 4.95889 871.66 4.3671L870.245 2.95289C869.291 3.90778 868.793 5.0781 868.793 6.415H870.793ZM871.66 4.3671C872.251 3.77532 872.918 3.49999 873.708 3.49999V1.49999C872.371 1.49999 871.2 1.998 870.245 2.95289L871.66 4.3671ZM873.708 3.49999H897.198V1.49999H873.708V3.49999ZM897.198 3.49999C899.188 3.49999 900.782 4.30618 902.053 6L903.653 4.8C902.023 2.62715 899.847 1.49999 897.198 1.49999V3.49999ZM902.043 5.98657L933.653 49.6316L935.272 48.4584L903.662 4.81343L902.043 5.98657ZM935.463 49.045V6.415H933.463V49.045H935.463ZM935.463 6.415C935.463 5.62523 935.738 4.95889 936.33 4.3671L934.915 2.95289C933.961 3.90777 933.463 5.0781 933.463 6.415H935.463ZM936.33 4.3671C936.921 3.77532 937.588 3.49999 938.378 3.49999V1.49999C937.041 1.49999 935.87 1.998 934.915 2.95289L936.33 4.3671ZM938.378 3.49999H965.348V1.49999H938.378V3.49999ZM1082.99 94.865L1082.4 94.0518L1082.4 94.0545L1082.99 94.865ZM1004.54 94.865L1003.96 95.6755L1003.96 95.6782L1004.54 94.865ZM996.856 20.19L996.045 19.6054L996.043 19.6076L996.856 20.19ZM1016.14 5.68999L1015.78 4.75551L1016.14 5.68999ZM1071.39 5.68999L1071.03 6.62306L1071.03 6.62448L1071.39 5.68999ZM1090.67 20.045L1089.86 20.6353L1090.67 20.045ZM1032.96 73.985L1032.33 74.7602L1032.34 74.7658L1032.34 74.7713L1032.96 73.985ZM1054.57 73.985L1055.2 74.7602L1055.2 74.7577L1054.57 73.985ZM1054.57 32.66L1053.92 33.4212L1053.93 33.4341L1053.95 33.4463L1054.57 32.66ZM1032.96 32.515L1032.34 31.7287L1032.34 31.7342L1032.33 31.7398L1032.96 32.515ZM1096.78 62.095C1096.78 76.6423 1091.94 87.2251 1082.4 94.0518L1083.57 95.6782C1093.75 88.3916 1098.78 77.1276 1098.78 62.095H1096.78ZM1082.4 94.0545C1072.86 100.951 1060.04 104.45 1043.84 104.45V106.45C1060.31 106.45 1073.59 102.892 1083.57 95.6755L1082.4 94.0545ZM1043.84 104.45C1027.64 104.45 1014.76 100.951 1005.12 94.0518L1003.96 95.6782C1014.04 102.892 1027.36 106.45 1043.84 106.45V104.45ZM1005.13 94.0545C995.687 87.2319 990.896 76.5549 990.896 61.805H988.896C988.896 77.0218 993.868 88.3848 1003.96 95.6755L1005.13 94.0545ZM990.896 61.805V44.695H988.896V61.805H990.896ZM990.896 44.695C990.896 34.9936 993.177 27.0425 997.669 20.7724L996.043 19.6076C991.255 26.2908 988.896 34.6764 988.896 44.695H990.896ZM997.667 20.7746C1002.28 14.3715 1008.55 9.6535 1016.5 6.62448L1015.78 4.75551C1007.5 7.91316 1000.9 12.8618 996.045 19.6054L997.667 20.7746ZM1016.5 6.62448C1024.48 3.58184 1033.59 2.05 1043.84 2.05V0.0499954C1033.39 0.0499954 1024.04 1.61148 1015.78 4.75551L1016.5 6.62448ZM1043.84 2.05C1054.08 2.05 1063.14 3.58194 1071.03 6.62305L1071.75 4.75694C1063.59 1.61138 1054.28 0.0499954 1043.84 0.0499954V2.05ZM1071.03 6.62448C1078.98 9.65501 1085.25 14.3275 1089.86 20.6353L1091.48 19.4547C1086.62 12.8092 1080.03 7.91165 1071.74 4.75551L1071.03 6.62448ZM1089.86 20.6353C1094.45 26.9063 1096.78 34.8069 1096.78 44.405H1098.78C1098.78 34.4764 1096.37 26.137 1091.48 19.4547L1089.86 20.6353ZM1096.78 44.405V62.095H1098.78V44.405H1096.78ZM1028.05 64.85C1028.05 69.0546 1029.44 72.4091 1032.33 74.7602L1033.59 73.2098C1031.26 71.3076 1030.05 68.5721 1030.05 64.85H1028.05ZM1032.34 74.7713C1035.28 77.0751 1039.14 78.175 1043.84 78.175V76.175C1039.44 76.175 1036.06 75.1483 1033.58 73.1987L1032.34 74.7713ZM1043.84 78.175C1048.53 78.175 1052.36 77.076 1055.2 74.7602L1053.93 73.2098C1051.56 75.1473 1048.23 76.175 1043.84 76.175V78.175ZM1055.2 74.7577C1058.17 72.318 1059.63 68.9233 1059.63 64.705H1057.63C1057.63 68.4134 1056.37 71.2053 1053.93 73.2123L1055.2 74.7577ZM1059.63 64.705V41.795H1057.63V64.705H1059.63ZM1059.63 41.795C1059.63 37.5773 1058.17 34.2201 1055.18 31.8737L1053.95 33.4463C1056.38 35.3532 1057.63 38.0861 1057.63 41.795H1059.63ZM1055.21 31.8988C1052.37 29.4772 1048.54 28.325 1043.84 28.325V30.325C1048.22 30.325 1051.54 31.3961 1053.92 33.4212L1055.21 31.8988ZM1043.84 28.325C1039.14 28.325 1035.28 29.4249 1032.34 31.7287L1033.58 33.3013C1036.06 31.3517 1039.44 30.325 1043.84 30.325V28.325ZM1032.33 31.7398C1029.44 34.0909 1028.05 37.4454 1028.05 41.65H1030.05C1030.05 37.9279 1031.26 35.1924 1033.59 33.2902L1032.33 31.7398ZM1028.05 41.65V64.85H1030.05V41.65H1028.05ZM1164.37 3.66L1163.67 4.3671L1164.37 3.66ZM1165.53 74.275H1164.53V75.275H1165.53V74.275ZM1214.98 75.275C1215.77 75.275 1216.44 75.5503 1217.03 76.1421L1218.44 74.7279C1217.49 73.773 1216.32 73.275 1214.98 73.275V75.275ZM1217.03 76.1421C1217.62 76.7339 1217.89 77.4002 1217.89 78.19H1219.89C1219.89 76.8531 1219.4 75.6828 1218.44 74.7279L1217.03 76.1421ZM1217.89 78.19V100.085H1219.89V78.19H1217.89ZM1217.89 100.085C1217.89 100.875 1217.62 101.541 1217.03 102.133L1218.44 103.547C1219.4 102.592 1219.89 101.422 1219.89 100.085H1217.89ZM1217.03 102.133C1216.44 102.725 1215.77 103 1214.98 103V105C1216.32 105 1217.49 104.502 1218.44 103.547L1217.03 102.133ZM1214.98 103H1130.3V105H1214.98V103ZM1130.3 103C1129.51 103 1128.84 102.725 1128.25 102.133L1126.84 103.547C1127.79 104.502 1128.96 105 1130.3 105V103ZM1128.25 102.133C1127.66 101.541 1127.38 100.875 1127.38 100.085H1125.38C1125.38 101.422 1125.88 102.592 1126.84 103.547L1128.25 102.133ZM1127.38 100.085V6.415H1125.38V100.085H1127.38ZM1127.38 6.415C1127.38 5.62523 1127.66 4.95889 1128.25 4.3671L1126.84 2.95289C1125.88 3.90778 1125.38 5.0781 1125.38 6.415H1127.38ZM1128.25 4.3671C1128.84 3.77532 1129.51 3.49999 1130.3 3.49999V1.49999C1128.96 1.49999 1127.79 1.998 1126.84 2.95289L1128.25 4.3671ZM1130.3 3.49999H1161.62V1.49999H1130.3V3.49999ZM1161.62 3.49999C1162.41 3.49999 1163.08 3.77532 1163.67 4.3671L1165.08 2.95289C1164.13 1.998 1162.96 1.49999 1161.62 1.49999V3.49999ZM1163.67 4.3671C1164.26 4.95889 1164.53 5.62523 1164.53 6.415H1166.53C1166.53 5.0781 1166.04 3.90777 1165.08 2.95289L1163.67 4.3671ZM1164.53 6.415V74.275H1166.53V6.415H1164.53ZM1165.53 75.275H1214.98V73.275H1165.53V75.275ZM1330.73 94.865L1330.15 94.0518L1330.15 94.0545L1330.73 94.865ZM1252.29 94.865L1251.7 95.6755L1251.71 95.6782L1252.29 94.865ZM1244.6 20.19L1243.79 19.6054L1243.79 19.6076L1244.6 20.19ZM1263.89 5.68999L1263.53 4.75551L1263.89 5.68999ZM1319.13 5.68999L1318.77 6.62306L1318.78 6.62448L1319.13 5.68999ZM1338.42 20.045L1337.61 20.6353L1338.42 20.045ZM1280.71 73.985L1280.08 74.7602L1280.08 74.7658L1280.09 74.7713L1280.71 73.985ZM1302.31 73.985L1302.94 74.7602L1302.95 74.7577L1302.31 73.985ZM1302.31 32.66L1301.66 33.4212L1301.68 33.4341L1301.69 33.4463L1302.31 32.66ZM1280.71 32.515L1280.09 31.7287L1280.08 31.7342L1280.08 31.7398L1280.71 32.515ZM1344.52 62.095C1344.52 76.6423 1339.69 87.2251 1330.15 94.0518L1331.31 95.6782C1341.5 88.3916 1346.52 77.1276 1346.52 62.095H1344.52ZM1330.15 94.0545C1320.61 100.951 1307.78 104.45 1291.58 104.45V106.45C1308.06 106.45 1321.33 102.892 1331.32 95.6755L1330.15 94.0545ZM1291.58 104.45C1275.38 104.45 1262.51 100.951 1252.87 94.0518L1251.71 95.6782C1261.79 102.892 1275.11 106.45 1291.58 106.45V104.45ZM1252.87 94.0545C1243.43 87.2319 1238.64 76.5549 1238.64 61.805H1236.64C1236.64 77.0218 1241.61 88.3848 1251.7 95.6755L1252.87 94.0545ZM1238.64 61.805V44.695H1236.64V61.805H1238.64ZM1238.64 44.695C1238.64 34.9936 1240.92 27.0425 1245.42 20.7724L1243.79 19.6076C1239 26.2908 1236.64 34.6764 1236.64 44.695H1238.64ZM1245.41 20.7746C1250.03 14.3715 1256.29 9.6535 1264.24 6.62448L1263.53 4.75551C1255.24 7.91316 1248.65 12.8618 1243.79 19.6054L1245.41 20.7746ZM1264.24 6.62448C1272.23 3.58184 1281.34 2.05 1291.58 2.05V0.0499954C1281.14 0.0499954 1271.78 1.61148 1263.53 4.75551L1264.24 6.62448ZM1291.58 2.05C1301.83 2.05 1310.88 3.58194 1318.77 6.62305L1319.49 4.75694C1311.33 1.61138 1302.02 0.0499954 1291.58 0.0499954V2.05ZM1318.78 6.62448C1326.73 9.65501 1333 14.3275 1337.61 20.6353L1339.22 19.4547C1334.36 12.8092 1327.77 7.91165 1319.49 4.75551L1318.78 6.62448ZM1337.61 20.6353C1342.2 26.9063 1344.52 34.8069 1344.52 44.405H1346.52C1346.52 34.4764 1344.11 26.137 1339.22 19.4547L1337.61 20.6353ZM1344.52 44.405V62.095H1346.52V44.405H1344.52ZM1275.79 64.85C1275.79 69.0546 1277.19 72.4091 1280.08 74.7602L1281.34 73.2098C1279 71.3076 1277.79 68.5721 1277.79 64.85H1275.79ZM1280.09 74.7713C1283.02 77.0751 1286.89 78.175 1291.58 78.175V76.175C1287.19 76.175 1283.81 75.1483 1281.33 73.1987L1280.09 74.7713ZM1291.58 78.175C1296.28 78.175 1300.1 77.076 1302.94 74.7602L1301.68 73.2098C1299.3 75.1473 1295.98 76.175 1291.58 76.175V78.175ZM1302.95 74.7577C1305.92 72.318 1307.37 68.9233 1307.37 64.705H1305.37C1305.37 68.4134 1304.12 71.2053 1301.68 73.2123L1302.95 74.7577ZM1307.37 64.705V41.795H1305.37V64.705H1307.37ZM1307.37 41.795C1307.37 37.5773 1305.92 34.2201 1302.93 31.8737L1301.69 33.4463C1304.12 35.3532 1305.37 38.0861 1305.37 41.795H1307.37ZM1302.96 31.8988C1300.12 29.4772 1296.29 28.325 1291.58 28.325V30.325C1295.97 30.325 1299.29 31.3961 1301.66 33.4212L1302.96 31.8988ZM1291.58 28.325C1286.89 28.325 1283.02 29.4249 1280.09 31.7287L1281.33 33.3013C1283.81 31.3517 1287.19 30.325 1291.58 30.325V28.325ZM1280.08 31.7398C1277.19 34.0909 1275.79 37.4454 1275.79 41.65H1277.79C1277.79 37.9279 1279 35.1924 1281.34 33.2902L1280.08 31.7398ZM1275.79 41.65V64.85H1277.79V41.65H1275.79ZM1470.41 43.97L1469.7 44.6771V44.6771L1470.41 43.97ZM1456.49 94.865L1457.07 95.6809L1457.07 95.6798L1456.49 94.865ZM1377.18 94.865L1376.59 95.6772L1376.6 95.6835L1377.18 94.865ZM1369.49 20.19L1370.29 20.7881L1370.3 20.7824L1369.49 20.19ZM1389.07 5.68999L1389.42 6.62587L1389.07 5.68999ZM1464.9 20.915L1464.08 21.4875L1464.09 21.4977L1464.9 20.915ZM1469.4 35.705L1470.1 36.4121V36.4121L1469.4 35.705ZM1430.25 34.98L1429.46 35.6023L1429.47 35.6132L1430.25 34.98ZM1405.74 32.37L1405.18 31.5421L1405.17 31.5464L1405.17 31.5508L1405.74 32.37ZM1405.74 73.985L1405.13 74.7786L1405.14 74.7851L1405.15 74.7914L1405.74 73.985ZM1430.1 74.13L1430.69 74.94L1430.69 74.9364L1430.1 74.13ZM1434.6 66.735L1435.6 66.7695L1435.63 65.735H1434.6V66.735ZM1422.85 43.97L1422.14 43.2629V43.2629L1422.85 43.97ZM1467.66 43.81C1468.45 43.81 1469.11 44.0853 1469.7 44.6771L1471.12 43.2629C1470.16 42.308 1468.99 41.81 1467.66 41.81V43.81ZM1469.7 44.6771C1470.3 45.2689 1470.57 45.9352 1470.57 46.725H1472.57C1472.57 45.3881 1472.07 44.2178 1471.12 43.2629L1469.7 44.6771ZM1470.57 46.725V62.095H1472.57V46.725H1470.57ZM1470.57 62.095C1470.57 76.535 1465.65 87.1218 1455.91 94.0502L1457.07 95.6798C1467.44 88.3015 1472.57 77.0417 1472.57 62.095H1470.57ZM1455.91 94.0491C1446.17 100.951 1433.2 104.45 1416.91 104.45V106.45C1433.48 106.45 1446.89 102.893 1457.07 95.6809L1455.91 94.0491ZM1416.91 104.45C1400.61 104.45 1387.59 100.951 1377.75 94.0465L1376.6 95.6835C1386.87 102.892 1400.34 106.45 1416.91 106.45V104.45ZM1377.76 94.0529C1368.12 87.1286 1363.24 76.4475 1363.24 61.805H1361.24C1361.24 76.9358 1366.32 88.2947 1376.59 95.6771L1377.76 94.0529ZM1363.24 61.805V44.695H1361.24V61.805H1363.24ZM1363.24 44.695C1363.24 35.002 1365.61 27.0568 1370.29 20.7881L1368.69 19.5919C1363.7 26.2765 1361.24 34.6679 1361.24 44.695H1363.24ZM1370.3 20.7824C1375.01 14.377 1381.37 9.65642 1389.42 6.62587L1388.71 4.75412C1380.33 7.91023 1373.64 12.8564 1368.69 19.5976L1370.3 20.7824ZM1389.42 6.62587C1397.5 3.58175 1406.66 2.05 1416.91 2.05V0.0499954C1406.46 0.0499954 1397.06 1.61157 1388.71 4.75412L1389.42 6.62587ZM1416.91 2.05C1429.18 2.05 1439.21 4.0646 1447.05 8.03226L1447.95 6.24773C1439.75 2.09539 1429.38 0.0499954 1416.91 0.0499954V2.05ZM1447.05 8.03226C1454.99 12.0483 1460.63 16.5459 1464.08 21.4874L1465.72 20.3426C1462.02 15.0374 1456.06 10.3517 1447.95 6.24773L1447.05 8.03226ZM1464.09 21.4977C1467.74 26.59 1469.41 30.5269 1469.41 33.385H1471.41C1471.41 29.8631 1469.41 25.4867 1465.71 20.3323L1464.09 21.4977ZM1469.41 33.385C1469.41 33.962 1469.2 34.4882 1468.69 34.9979L1470.1 36.4121C1470.95 35.5685 1471.41 34.548 1471.41 33.385H1469.41ZM1468.69 34.9979C1468.31 35.3781 1467.84 35.575 1467.22 35.575V37.575C1468.34 37.575 1469.32 37.1919 1470.1 36.4121L1468.69 34.9979ZM1467.22 35.575H1434.45V37.575H1467.22V35.575ZM1434.45 35.575C1432.69 35.575 1431.63 35.0944 1431.02 34.3468L1429.47 35.6132C1430.6 36.9922 1432.35 37.575 1434.45 37.575V35.575ZM1431.03 34.3578C1427.8 30.2956 1423.03 28.325 1416.91 28.325V30.325C1422.57 30.325 1426.7 32.1244 1429.46 35.6022L1431.03 34.3578ZM1416.91 28.325C1412.31 28.325 1408.38 29.3766 1405.18 31.5421L1406.3 33.1979C1409.1 31.3034 1412.61 30.325 1416.91 30.325V28.325ZM1405.17 31.5508C1402.03 33.744 1400.39 36.6441 1400.39 40.2H1402.39C1402.39 37.3759 1403.65 35.056 1406.31 33.1892L1405.17 31.5508ZM1400.39 40.2V64.85H1402.39V40.2H1400.39ZM1400.39 64.85C1400.39 69.0067 1401.97 72.3536 1405.13 74.7786L1406.35 73.1914C1403.71 71.1697 1402.39 68.4266 1402.39 64.85H1400.39ZM1405.15 74.7914C1408.26 77.0736 1412.21 78.175 1416.91 78.175V76.175C1412.52 76.175 1409.02 75.1497 1406.33 73.1786L1405.15 74.7914ZM1416.91 78.175C1422.97 78.175 1427.63 77.1551 1430.69 74.9399L1429.51 73.3201C1426.97 75.1649 1422.83 76.175 1416.91 76.175V78.175ZM1430.69 74.9364C1433.76 72.6842 1435.49 69.9622 1435.6 66.7695L1433.6 66.7005C1433.51 69.1144 1432.24 71.3224 1429.51 73.3236L1430.69 74.9364ZM1434.6 65.735H1425.61V67.735H1434.6V65.735ZM1425.61 65.735C1424.82 65.735 1424.15 65.4597 1423.56 64.8679L1422.14 66.2821C1423.1 67.237 1424.27 67.735 1425.61 67.735V65.735ZM1423.56 64.8679C1422.97 64.2761 1422.69 63.6098 1422.69 62.82H1420.69C1420.69 64.1569 1421.19 65.3272 1422.14 66.2821L1423.56 64.8679ZM1422.69 62.82V46.725H1420.69V62.82H1422.69ZM1422.69 46.725C1422.69 45.9352 1422.97 45.2689 1423.56 44.6771L1422.14 43.2629C1421.19 44.2178 1420.69 45.3881 1420.69 46.725H1422.69ZM1423.56 44.6771C1424.15 44.0853 1424.82 43.81 1425.61 43.81V41.81C1424.27 41.81 1423.1 42.308 1422.14 43.2629L1423.56 44.6771ZM1425.61 43.81H1467.66V41.81H1425.61V43.81ZM1594.57 3.515L1593.82 4.16579L1593.87 4.22419L1593.92 4.27425L1594.57 3.515ZM1595.15 7.28499L1596.01 7.8022L1596.03 7.76797L1596.05 7.7322L1595.15 7.28499ZM1558.61 67.75L1557.76 67.2328L1557.61 67.4713V67.75H1558.61ZM1557.45 102.84L1556.75 102.133V102.133L1557.45 102.84ZM1521.06 102.84L1521.77 102.133V102.133L1521.06 102.84ZM1519.9 67.75H1520.9V67.4723L1520.76 67.2343L1519.9 67.75ZM1483.5 7.28499L1482.61 7.73221L1482.63 7.76719L1482.65 7.8007L1483.5 7.28499ZM1483.94 3.515L1484.65 4.22211V4.2221L1483.94 3.515ZM1522.8 5.83499L1521.93 6.32705L1521.93 6.33066L1522.8 5.83499ZM1539.18 34.545L1538.32 35.0407L1539.17 36.5349L1540.04 35.0543L1539.18 34.545ZM1556 6.125L1555.15 5.61049L1555.14 5.61568L1556 6.125ZM1592.4 3.49999C1592.97 3.49999 1593.42 3.70455 1593.82 4.16579L1595.33 2.8642C1594.57 1.97211 1593.57 1.49999 1592.4 1.49999V3.49999ZM1593.92 4.27425C1594.42 4.69646 1594.59 5.10967 1594.59 5.545H1596.59C1596.59 4.43365 1596.09 3.49353 1595.23 2.75574L1593.92 4.27425ZM1594.59 5.545C1594.59 5.95223 1594.49 6.38007 1594.26 6.83778L1596.05 7.7322C1596.4 7.02992 1596.59 6.29776 1596.59 5.545H1594.59ZM1594.3 6.76778L1557.76 67.2328L1559.47 68.2672L1596.01 7.8022L1594.3 6.76778ZM1557.61 67.75V100.085H1559.61V67.75H1557.61ZM1557.61 100.085C1557.61 100.875 1557.34 101.541 1556.75 102.133L1558.16 103.547C1559.12 102.592 1559.61 101.422 1559.61 100.085H1557.61ZM1556.75 102.133C1556.16 102.725 1555.49 103 1554.7 103V105C1556.04 105 1557.21 104.502 1558.16 103.547L1556.75 102.133ZM1554.7 103H1523.81V105H1554.7V103ZM1523.81 103C1523.02 103 1522.36 102.725 1521.77 102.133L1520.35 103.547C1521.31 104.502 1522.48 105 1523.81 105V103ZM1521.77 102.133C1521.17 101.541 1520.9 100.875 1520.9 100.085H1518.9C1518.9 101.422 1519.4 102.592 1520.35 103.547L1521.77 102.133ZM1520.9 100.085V67.75H1518.9V100.085H1520.9ZM1520.76 67.2343L1484.36 6.76929L1482.65 7.8007L1519.04 68.2657L1520.76 67.2343ZM1484.4 6.83778C1484.16 6.35138 1484.07 5.97437 1484.07 5.68999H1482.07C1482.07 6.37229 1482.27 7.05861 1482.61 7.73221L1484.4 6.83778ZM1484.07 5.68999C1484.07 5.06736 1484.27 4.60231 1484.65 4.22211L1483.23 2.80789C1482.45 3.58768 1482.07 4.57263 1482.07 5.68999H1484.07ZM1484.65 4.2221C1485.16 3.71238 1485.68 3.49999 1486.26 3.49999V1.49999C1485.1 1.49999 1484.08 1.96428 1483.23 2.80789L1484.65 4.2221ZM1486.26 3.49999H1516.85V1.49999H1486.26V3.49999ZM1516.85 3.49999C1519.23 3.49999 1520.86 4.44002 1521.93 6.32705L1523.67 5.34294C1522.22 2.7833 1519.9 1.49999 1516.85 1.49999V3.49999ZM1521.93 6.33066L1538.32 35.0407L1540.05 34.0493L1523.67 5.33933L1521.93 6.33066ZM1540.04 35.0543L1556.86 6.63432L1555.14 5.61568L1538.32 34.0357L1540.04 35.0543ZM1556.86 6.63949C1558.15 4.49494 1559.87 3.49999 1562.09 3.49999V1.49999C1559.1 1.49999 1556.76 2.92171 1555.15 5.6105L1556.86 6.63949ZM1562.09 3.49999H1592.4V1.49999H1562.09V3.49999Z" fill="#313131" mask="url(#path-1-outside-1_104_161)"/>
<defs>
<linearGradient id="paint0_linear_104_161" x1="732.376" y1="-241.125" x2="732.376" y2="94.875" gradientUnits="userSpaceOnUse">
<stop stop-color="#313131"/>
<stop offset="0.471682" stop-color="#535353" stop-opacity="0.479916"/>
<stop offset="1" stop-color="white" stop-opacity="0"/>
</linearGradient>
</defs>
</svg>
