<svg width="58" height="35" viewBox="0 0 58 35" fill="none" xmlns="http://www.w3.org/2000/svg">
<path d="M55.5812 5.93566C54.1654 6.34114 52.6889 5.52208 52.2835 4.10624C51.878 2.6904 52.697 1.21393 54.1129 0.808444C55.5287 0.402963 57.0052 1.22202 57.4107 2.63786C57.8161 4.0537 56.9971 5.53018 55.5812 5.93566ZM4.2108 34.294C2.79496 34.6994 1.31849 33.8804 0.913012 32.4645C0.50753 31.0487 1.32659 29.5722 2.74243 29.1668C4.15827 28.7613 5.63474 29.5803 6.04022 30.9962C6.4457 32.412 5.62665 33.8885 4.2108 34.294ZM2.99717 31.5885C3.36664 30.3401 3.73288 29.1549 4.09619 28.0303L5.04777 28.3377C4.68719 29.4539 4.32337 30.6311 3.95606 31.8723L2.99717 31.5885ZM6.58698 21.1317C7.69017 18.4371 8.77396 16.27 9.84859 14.5508L10.6966 15.0808C9.66027 16.7387 8.60098 18.8517 7.51242 21.5105L6.58698 21.1317ZM15.1718 9.31812C17.685 8.24621 20.1518 8.92315 22.5728 10.1551L22.1193 11.0463C19.7879 9.85996 17.6656 9.34163 15.5641 10.2379L15.1718 9.31812ZM28.8465 13.9543C30.933 15.2079 33.0802 16.2962 35.3581 16.7441L35.1652 17.7253C32.7134 17.2432 30.4459 16.0818 28.3315 14.8116L28.8465 13.9543ZM42.1621 15.9169C43.9431 15.106 45.8386 13.7675 47.8624 11.718L48.5739 12.4206C46.4851 14.536 44.4922 15.9547 42.5765 16.827L42.1621 15.9169ZM52.4104 6.15643C53.0695 5.21537 53.7402 4.20049 54.423 3.10721L55.2712 3.6369C54.5799 4.74386 53.8995 5.7735 53.2295 6.7301L52.4104 6.15643Z" fill="#34C81E"/>
</svg>
