<svg width="76" height="15" viewBox="0 0 76 15" fill="none" xmlns="http://www.w3.org/2000/svg">
<path d="M72.2661 0.936412C70.8503 1.34189 70.0312 2.81837 70.4367 4.23421C70.8422 5.65005 72.3186 6.46911 73.7345 6.06362C75.1503 5.65814 75.9694 4.18167 75.5639 2.76583C75.1584 1.34999 73.6819 0.530931 72.2661 0.936412ZM2.50737 3.31337C1.09153 3.71885 0.272474 5.19532 0.677956 6.61116C1.08344 8.027 2.5599 8.84606 3.97575 8.44058C5.39159 8.0351 6.21064 6.55863 5.80516 5.14279C5.39968 3.72695 3.92321 2.90789 2.50737 3.31337ZM3.46789 6.32282C4.64121 5.72717 5.76246 5.27708 6.84087 4.95187L6.55215 3.99446C5.41268 4.33808 4.23669 4.81105 3.01523 5.43113L3.46789 6.32282ZM13.9631 4.47664C16.2992 4.86306 18.5428 5.73644 20.8443 6.83135L21.2739 5.92833C18.9373 4.81673 16.5964 3.89863 14.1263 3.49004L13.9631 4.47664ZM27.4676 10.2008C29.6194 11.2721 31.9 12.3042 34.3914 13.1034L34.6969 12.1512C32.2736 11.3739 30.0436 10.3662 27.9133 9.30563L27.4676 10.2008ZM41.7884 14.5632C44.1085 14.7335 46.6031 14.6511 49.3142 14.2257L49.1591 13.2378C46.5226 13.6515 44.1046 13.7305 41.8616 13.5659L41.7884 14.5632ZM56.5938 12.3865C58.7696 11.6418 61.0682 10.6917 63.5044 9.50574L63.0667 8.60662C60.664 9.77628 58.4034 10.7101 56.27 11.4404L56.5938 12.3865ZM70.081 5.91701C71.1219 5.2912 72.1856 4.62588 73.2728 3.91925L72.7278 3.08079C71.65 3.78132 70.5963 4.44042 69.5657 5.05996L70.081 5.91701Z" fill="#34C81E"/>
</svg>
