<svg width="79" height="37" viewBox="0 0 79 37" fill="none" xmlns="http://www.w3.org/2000/svg">
<path d="M76.234 5.56359C74.8182 5.96907 73.3417 5.15001 72.9362 3.73417C72.5308 2.31833 73.3498 0.841856 74.7657 0.436375C76.1815 0.0308936 77.658 0.849952 78.0634 2.26579C78.4689 3.68163 77.6499 5.15811 76.234 5.56359ZM3.3933 36.0622C1.97746 36.4677 0.500992 35.6486 0.0955101 34.2328C-0.309971 32.8169 0.509081 31.3405 1.92493 30.935C3.34077 30.5295 4.81724 31.3485 5.22272 32.7644C5.6282 34.1802 4.80915 35.6567 3.3933 36.0622ZM2.24968 33.2116C3.11113 31.9826 3.94977 30.8254 4.7671 29.7362L5.56696 30.3364C4.75659 31.4163 3.92429 32.5647 3.06855 33.7856L2.24968 33.2116ZM10.1815 23.1505C12.4516 20.6756 14.5525 18.7745 16.5308 17.3357L17.119 18.1444C15.2061 19.5356 13.1544 21.3888 10.9184 23.8265L10.1815 23.1505ZM24.3536 13.6832C27.3759 13.0698 30.1774 13.4023 32.9773 14.0061L32.7664 14.9837C30.025 14.3924 27.3795 14.0894 24.5525 14.6632L24.3536 13.6832ZM41.2353 15.9291C43.7735 16.3869 46.4926 16.6214 49.5427 16.279L49.6543 17.2728C46.4833 17.6288 43.6636 17.3832 41.0577 16.9132L41.2353 15.9291ZM57.591 14.1615C59.8854 13.2285 62.3597 11.9581 65.0483 10.2608L65.5821 11.1064C62.85 12.8312 60.3233 14.13 57.9677 15.0878L57.591 14.1615ZM71.902 5.34415C72.9626 4.49806 74.0524 3.59191 75.1726 2.62198L75.8271 3.37798C74.6973 4.35621 73.5973 5.27098 72.5256 6.1259L71.902 5.34415Z" fill="#34C81E"/>
</svg>
