<svg width="626" height="49" viewBox="0 0 626 49" fill="none" xmlns="http://www.w3.org/2000/svg">
<mask id="path-1-outside-1_321_2818" maskUnits="userSpaceOnUse" x="0" y="0" width="626" height="49" fill="black">
<rect fill="white" width="626" height="49"/>
<path d="M49.944 2.2C50.328 2.2 50.648 2.34933 50.904 2.648C51.2027 2.904 51.352 3.224 51.352 3.608L51.288 4.056L36.568 44.888C36.3547 45.4853 36.0133 45.9973 35.544 46.424C35.0747 46.808 34.456 47 33.688 47H18.776C18.008 47 17.3893 46.808 16.92 46.424C16.4507 45.9973 16.1307 45.5493 15.96 45.08L1.112 4.056L1.048 3.608C1.048 3.224 1.176 2.904 1.432 2.648C1.73067 2.34933 2.072 2.2 2.456 2.2H15.96C16.728 2.2 17.3467 2.43466 17.816 2.904C18.328 3.33067 18.6693 3.8 18.84 4.312L26.2 28.824L33.56 4.312C33.7307 3.75733 34.0507 3.26667 34.52 2.84C34.9893 2.41333 35.6293 2.2 36.44 2.2H49.944ZM99.311 34.52C99.7803 34.52 100.186 34.6907 100.527 35.032C100.868 35.3733 101.039 35.7787 101.039 36.248V45.272C101.039 45.7413 100.868 46.1467 100.527 46.488C100.186 46.8293 99.7803 47 99.311 47H58.863C58.3937 47 57.9883 46.8293 57.647 46.488C57.3057 46.1467 57.135 45.7413 57.135 45.272V3.928C57.135 3.45867 57.3057 3.05333 57.647 2.712C57.9883 2.37066 58.3937 2.2 58.863 2.2H98.671C99.1403 2.2 99.5457 2.37066 99.887 2.712C100.228 3.05333 100.399 3.45867 100.399 3.928V12.952C100.399 13.4213 100.228 13.8267 99.887 14.168C99.5457 14.5093 99.1403 14.68 98.671 14.68H73.775V18.712H95.151C95.6203 18.712 96.0257 18.8827 96.367 19.224C96.7083 19.5653 96.879 19.9707 96.879 20.44V28.76C96.879 29.2293 96.7083 29.6347 96.367 29.976C96.0257 30.3173 95.6203 30.488 95.151 30.488H73.775V34.52H99.311ZM156.358 45.016C156.443 45.1867 156.486 45.3787 156.486 45.592C156.486 45.976 156.337 46.3173 156.038 46.616C155.782 46.872 155.462 47 155.078 47H140.55C139.953 47 139.398 46.8507 138.886 46.552C138.417 46.2533 138.075 45.8693 137.862 45.4L132.23 32.728H126.854V45.272C126.854 45.7413 126.683 46.1467 126.342 46.488C126.001 46.8293 125.595 47 125.126 47H111.302C110.833 47 110.427 46.8293 110.086 46.488C109.745 46.1467 109.574 45.7413 109.574 45.272V3.928C109.574 3.45867 109.745 3.05333 110.086 2.712C110.427 2.37066 110.833 2.2 111.302 2.2H136.198C140.038 2.2 143.387 2.81866 146.246 4.056C149.147 5.29333 151.366 7.08533 152.902 9.432C154.438 11.7787 155.206 14.5307 155.206 17.688C155.206 23.4907 152.966 27.6933 148.486 30.296L156.358 45.016ZM134.854 20.888C135.793 20.888 136.518 20.5893 137.03 19.992C137.542 19.352 137.798 18.5627 137.798 17.624C137.798 16.6853 137.542 15.8747 137.03 15.192C136.561 14.4667 135.835 14.104 134.854 14.104H126.854V20.888H134.854ZM192.029 33.88H203.613C204.082 33.88 204.488 34.0507 204.829 34.392C205.17 34.7333 205.341 35.1387 205.341 35.608V45.272C205.341 45.7413 205.17 46.1467 204.829 46.488C204.488 46.8293 204.082 47 203.613 47H163.037C162.568 47 162.162 46.8293 161.821 46.488C161.48 46.1467 161.309 45.7413 161.309 45.272V35.608C161.309 35.1387 161.48 34.7333 161.821 34.392C162.162 34.0507 162.568 33.88 163.037 33.88H174.749V15.32H163.037C162.568 15.32 162.162 15.1493 161.821 14.808C161.48 14.4667 161.309 14.0613 161.309 13.592V3.928C161.309 3.45867 161.48 3.05333 161.821 2.712C162.162 2.37066 162.568 2.2 163.037 2.2H203.613C204.082 2.2 204.488 2.37066 204.829 2.712C205.17 3.05333 205.341 3.45867 205.341 3.928V13.592C205.341 14.0613 205.17 14.4667 204.829 14.808C204.488 15.1493 204.082 15.32 203.613 15.32H192.029V33.88ZM257.332 2.2C257.801 2.2 258.207 2.37066 258.548 2.712C258.889 3.05333 259.06 3.45867 259.06 3.928V13.656C259.06 14.1253 258.889 14.5307 258.548 14.872C258.207 15.2133 257.801 15.384 257.332 15.384H232.18V19.48H253.172C253.641 19.48 254.047 19.6507 254.388 19.992C254.729 20.3333 254.9 20.7387 254.9 21.208V30.872C254.9 31.3413 254.729 31.7467 254.388 32.088C254.047 32.4293 253.641 32.6 253.172 32.6H232.18V45.272C232.18 45.7413 232.009 46.1467 231.668 46.488C231.327 46.8293 230.921 47 230.452 47H216.628C216.159 47 215.753 46.8293 215.412 46.488C215.071 46.1467 214.9 45.7413 214.9 45.272V3.928C214.9 3.45867 215.071 3.05333 215.412 2.712C215.753 2.37066 216.159 2.2 216.628 2.2H257.332ZM296.779 33.88H308.363C308.832 33.88 309.238 34.0507 309.579 34.392C309.92 34.7333 310.091 35.1387 310.091 35.608V45.272C310.091 45.7413 309.92 46.1467 309.579 46.488C309.238 46.8293 308.832 47 308.363 47H267.787C267.318 47 266.912 46.8293 266.571 46.488C266.23 46.1467 266.059 45.7413 266.059 45.272V35.608C266.059 35.1387 266.23 34.7333 266.571 34.392C266.912 34.0507 267.318 33.88 267.787 33.88H279.499V15.32H267.787C267.318 15.32 266.912 15.1493 266.571 14.808C266.23 14.4667 266.059 14.0613 266.059 13.592V3.928C266.059 3.45867 266.23 3.05333 266.571 2.712C266.912 2.37066 267.318 2.2 267.787 2.2H308.363C308.832 2.2 309.238 2.37066 309.579 2.712C309.92 3.05333 310.091 3.45867 310.091 3.928V13.592C310.091 14.0613 309.92 14.4667 309.579 14.808C309.238 15.1493 308.832 15.32 308.363 15.32H296.779V33.88ZM334.562 29.72C334.562 31.4693 335.138 32.8133 336.29 33.752C337.485 34.6907 339.085 35.16 341.09 35.16C342.882 35.16 344.205 34.8613 345.058 34.264C345.911 33.6667 346.637 32.7707 347.234 31.576C347.789 30.4667 348.535 29.912 349.474 29.912H363.298C363.682 29.912 364.002 30.0613 364.258 30.36C364.557 30.616 364.706 30.936 364.706 31.32C364.706 33.9227 363.831 36.4827 362.082 39C360.333 41.4747 357.666 43.544 354.082 45.208C350.541 46.8293 346.21 47.64 341.09 47.64C336.525 47.64 332.45 46.9573 328.866 45.592C325.325 44.184 322.509 42.0507 320.418 39.192C318.327 36.2907 317.282 32.6853 317.282 28.376V20.824C317.282 16.5147 318.327 12.9307 320.418 10.072C322.509 7.17066 325.325 5.03733 328.866 3.672C332.45 2.264 336.525 1.56 341.09 1.56C346.21 1.56 350.541 2.392 354.082 4.056C357.666 5.67733 360.333 7.74667 362.082 10.264C363.831 12.7387 364.706 15.2773 364.706 17.88C364.706 18.264 364.557 18.6053 364.258 18.904C364.002 19.16 363.682 19.288 363.298 19.288H349.474C348.535 19.288 347.789 18.7333 347.234 17.624C346.637 16.4293 345.911 15.5333 345.058 14.936C344.205 14.3387 342.882 14.04 341.09 14.04C339.085 14.04 337.485 14.5093 336.29 15.448C335.138 16.3867 334.562 17.7307 334.562 19.48V29.72ZM383.609 44.824C383.054 46.2747 382.094 47 380.729 47H368.633C368.249 47 367.908 46.872 367.609 46.616C367.353 46.3173 367.225 45.976 367.225 45.592L367.289 45.208L381.241 4.312C381.412 3.75733 381.732 3.26667 382.201 2.84C382.67 2.41333 383.31 2.2 384.121 2.2H401.913C402.724 2.2 403.364 2.41333 403.833 2.84C404.302 3.26667 404.622 3.75733 404.793 4.312L418.745 45.208L418.809 45.592C418.809 45.976 418.66 46.3173 418.361 46.616C418.105 46.872 417.785 47 417.401 47H405.305C403.94 47 402.98 46.2747 402.425 44.824L400.825 40.344H385.209L383.609 44.824ZM393.017 14.552L388.473 27.864H397.561L393.017 14.552ZM467.28 2.2C467.749 2.2 468.155 2.37066 468.496 2.712C468.837 3.05333 469.008 3.45867 469.008 3.928V14.232C469.008 14.7013 468.837 15.1067 468.496 15.448C468.155 15.7893 467.749 15.96 467.28 15.96H453.52V45.272C453.52 45.7413 453.349 46.1467 453.008 46.488C452.667 46.8293 452.261 47 451.792 47H438.608C438.139 47 437.733 46.8293 437.392 46.488C437.051 46.1467 436.88 45.7413 436.88 45.272V15.96H423.12C422.651 15.96 422.245 15.7893 421.904 15.448C421.563 15.1067 421.392 14.7013 421.392 14.232V3.928C421.392 3.45867 421.563 3.05333 421.904 2.712C422.245 2.37066 422.651 2.2 423.12 2.2H467.28ZM506.279 33.88H517.863C518.332 33.88 518.738 34.0507 519.079 34.392C519.42 34.7333 519.591 35.1387 519.591 35.608V45.272C519.591 45.7413 519.42 46.1467 519.079 46.488C518.738 46.8293 518.332 47 517.863 47H477.287C476.818 47 476.412 46.8293 476.071 46.488C475.73 46.1467 475.559 45.7413 475.559 45.272V35.608C475.559 35.1387 475.73 34.7333 476.071 34.392C476.412 34.0507 476.818 33.88 477.287 33.88H488.999V15.32H477.287C476.818 15.32 476.412 15.1493 476.071 14.808C475.73 14.4667 475.559 14.0613 475.559 13.592V3.928C475.559 3.45867 475.73 3.05333 476.071 2.712C476.412 2.37066 476.818 2.2 477.287 2.2H517.863C518.332 2.2 518.738 2.37066 519.079 2.712C519.42 3.05333 519.591 3.45867 519.591 3.928V13.592C519.591 14.0613 519.42 14.4667 519.079 14.808C518.738 15.1493 518.332 15.32 517.863 15.32H506.279V33.88ZM573.758 28.504C573.758 35.032 571.582 39.8533 567.23 42.968C562.921 46.0827 557.161 47.64 549.95 47.64C542.739 47.64 536.958 46.0827 532.606 42.968C528.297 39.8533 526.142 34.9893 526.142 28.376V20.824C526.142 16.472 527.166 12.8667 529.214 10.008C531.305 7.10667 534.142 4.97333 537.726 3.608C541.31 2.24266 545.385 1.56 549.95 1.56C554.515 1.56 558.569 2.24266 562.11 3.608C565.694 4.97333 568.531 7.08533 570.622 9.944C572.713 12.8027 573.758 16.3867 573.758 20.696V28.504ZM543.422 29.72C543.422 31.4693 543.998 32.8133 545.15 33.752C546.345 34.6907 547.945 35.16 549.95 35.16C551.955 35.16 553.534 34.6907 554.686 33.752C555.881 32.7707 556.478 31.4053 556.478 29.656V19.544C556.478 17.7947 555.881 16.4507 554.686 15.512C553.534 14.5307 551.955 14.04 549.95 14.04C547.945 14.04 546.345 14.5093 545.15 15.448C543.998 16.3867 543.422 17.7307 543.422 19.48V29.72ZM622.357 2.2C622.826 2.2 623.232 2.37066 623.573 2.712C623.914 3.05333 624.085 3.45867 624.085 3.928V45.272C624.085 45.7413 623.914 46.1467 623.573 46.488C623.232 46.8293 622.826 47 622.357 47H612.053C611.029 47 610.176 46.552 609.493 45.656L595.541 27.864V45.272C595.541 45.7413 595.37 46.1467 595.029 46.488C594.688 46.8293 594.282 47 593.813 47H581.909C581.44 47 581.034 46.8293 580.693 46.488C580.352 46.1467 580.181 45.7413 580.181 45.272V3.928C580.181 3.45867 580.352 3.05333 580.693 2.712C581.034 2.37066 581.44 2.2 581.909 2.2H592.277C593.301 2.2 594.133 2.62666 594.773 3.48L608.725 22.744V3.928C608.725 3.45867 608.896 3.05333 609.237 2.712C609.578 2.37066 609.984 2.2 610.453 2.2H622.357Z"/>
</mask>
<path d="M49.944 2.2C50.328 2.2 50.648 2.34933 50.904 2.648C51.2027 2.904 51.352 3.224 51.352 3.608L51.288 4.056L36.568 44.888C36.3547 45.4853 36.0133 45.9973 35.544 46.424C35.0747 46.808 34.456 47 33.688 47H18.776C18.008 47 17.3893 46.808 16.92 46.424C16.4507 45.9973 16.1307 45.5493 15.96 45.08L1.112 4.056L1.048 3.608C1.048 3.224 1.176 2.904 1.432 2.648C1.73067 2.34933 2.072 2.2 2.456 2.2H15.96C16.728 2.2 17.3467 2.43466 17.816 2.904C18.328 3.33067 18.6693 3.8 18.84 4.312L26.2 28.824L33.56 4.312C33.7307 3.75733 34.0507 3.26667 34.52 2.84C34.9893 2.41333 35.6293 2.2 36.44 2.2H49.944ZM99.311 34.52C99.7803 34.52 100.186 34.6907 100.527 35.032C100.868 35.3733 101.039 35.7787 101.039 36.248V45.272C101.039 45.7413 100.868 46.1467 100.527 46.488C100.186 46.8293 99.7803 47 99.311 47H58.863C58.3937 47 57.9883 46.8293 57.647 46.488C57.3057 46.1467 57.135 45.7413 57.135 45.272V3.928C57.135 3.45867 57.3057 3.05333 57.647 2.712C57.9883 2.37066 58.3937 2.2 58.863 2.2H98.671C99.1403 2.2 99.5457 2.37066 99.887 2.712C100.228 3.05333 100.399 3.45867 100.399 3.928V12.952C100.399 13.4213 100.228 13.8267 99.887 14.168C99.5457 14.5093 99.1403 14.68 98.671 14.68H73.775V18.712H95.151C95.6203 18.712 96.0257 18.8827 96.367 19.224C96.7083 19.5653 96.879 19.9707 96.879 20.44V28.76C96.879 29.2293 96.7083 29.6347 96.367 29.976C96.0257 30.3173 95.6203 30.488 95.151 30.488H73.775V34.52H99.311ZM156.358 45.016C156.443 45.1867 156.486 45.3787 156.486 45.592C156.486 45.976 156.337 46.3173 156.038 46.616C155.782 46.872 155.462 47 155.078 47H140.55C139.953 47 139.398 46.8507 138.886 46.552C138.417 46.2533 138.075 45.8693 137.862 45.4L132.23 32.728H126.854V45.272C126.854 45.7413 126.683 46.1467 126.342 46.488C126.001 46.8293 125.595 47 125.126 47H111.302C110.833 47 110.427 46.8293 110.086 46.488C109.745 46.1467 109.574 45.7413 109.574 45.272V3.928C109.574 3.45867 109.745 3.05333 110.086 2.712C110.427 2.37066 110.833 2.2 111.302 2.2H136.198C140.038 2.2 143.387 2.81866 146.246 4.056C149.147 5.29333 151.366 7.08533 152.902 9.432C154.438 11.7787 155.206 14.5307 155.206 17.688C155.206 23.4907 152.966 27.6933 148.486 30.296L156.358 45.016ZM134.854 20.888C135.793 20.888 136.518 20.5893 137.03 19.992C137.542 19.352 137.798 18.5627 137.798 17.624C137.798 16.6853 137.542 15.8747 137.03 15.192C136.561 14.4667 135.835 14.104 134.854 14.104H126.854V20.888H134.854ZM192.029 33.88H203.613C204.082 33.88 204.488 34.0507 204.829 34.392C205.17 34.7333 205.341 35.1387 205.341 35.608V45.272C205.341 45.7413 205.17 46.1467 204.829 46.488C204.488 46.8293 204.082 47 203.613 47H163.037C162.568 47 162.162 46.8293 161.821 46.488C161.48 46.1467 161.309 45.7413 161.309 45.272V35.608C161.309 35.1387 161.48 34.7333 161.821 34.392C162.162 34.0507 162.568 33.88 163.037 33.88H174.749V15.32H163.037C162.568 15.32 162.162 15.1493 161.821 14.808C161.48 14.4667 161.309 14.0613 161.309 13.592V3.928C161.309 3.45867 161.48 3.05333 161.821 2.712C162.162 2.37066 162.568 2.2 163.037 2.2H203.613C204.082 2.2 204.488 2.37066 204.829 2.712C205.17 3.05333 205.341 3.45867 205.341 3.928V13.592C205.341 14.0613 205.17 14.4667 204.829 14.808C204.488 15.1493 204.082 15.32 203.613 15.32H192.029V33.88ZM257.332 2.2C257.801 2.2 258.207 2.37066 258.548 2.712C258.889 3.05333 259.06 3.45867 259.06 3.928V13.656C259.06 14.1253 258.889 14.5307 258.548 14.872C258.207 15.2133 257.801 15.384 257.332 15.384H232.18V19.48H253.172C253.641 19.48 254.047 19.6507 254.388 19.992C254.729 20.3333 254.9 20.7387 254.9 21.208V30.872C254.9 31.3413 254.729 31.7467 254.388 32.088C254.047 32.4293 253.641 32.6 253.172 32.6H232.18V45.272C232.18 45.7413 232.009 46.1467 231.668 46.488C231.327 46.8293 230.921 47 230.452 47H216.628C216.159 47 215.753 46.8293 215.412 46.488C215.071 46.1467 214.9 45.7413 214.9 45.272V3.928C214.9 3.45867 215.071 3.05333 215.412 2.712C215.753 2.37066 216.159 2.2 216.628 2.2H257.332ZM296.779 33.88H308.363C308.832 33.88 309.238 34.0507 309.579 34.392C309.92 34.7333 310.091 35.1387 310.091 35.608V45.272C310.091 45.7413 309.92 46.1467 309.579 46.488C309.238 46.8293 308.832 47 308.363 47H267.787C267.318 47 266.912 46.8293 266.571 46.488C266.23 46.1467 266.059 45.7413 266.059 45.272V35.608C266.059 35.1387 266.23 34.7333 266.571 34.392C266.912 34.0507 267.318 33.88 267.787 33.88H279.499V15.32H267.787C267.318 15.32 266.912 15.1493 266.571 14.808C266.23 14.4667 266.059 14.0613 266.059 13.592V3.928C266.059 3.45867 266.23 3.05333 266.571 2.712C266.912 2.37066 267.318 2.2 267.787 2.2H308.363C308.832 2.2 309.238 2.37066 309.579 2.712C309.92 3.05333 310.091 3.45867 310.091 3.928V13.592C310.091 14.0613 309.92 14.4667 309.579 14.808C309.238 15.1493 308.832 15.32 308.363 15.32H296.779V33.88ZM334.562 29.72C334.562 31.4693 335.138 32.8133 336.29 33.752C337.485 34.6907 339.085 35.16 341.09 35.16C342.882 35.16 344.205 34.8613 345.058 34.264C345.911 33.6667 346.637 32.7707 347.234 31.576C347.789 30.4667 348.535 29.912 349.474 29.912H363.298C363.682 29.912 364.002 30.0613 364.258 30.36C364.557 30.616 364.706 30.936 364.706 31.32C364.706 33.9227 363.831 36.4827 362.082 39C360.333 41.4747 357.666 43.544 354.082 45.208C350.541 46.8293 346.21 47.64 341.09 47.64C336.525 47.64 332.45 46.9573 328.866 45.592C325.325 44.184 322.509 42.0507 320.418 39.192C318.327 36.2907 317.282 32.6853 317.282 28.376V20.824C317.282 16.5147 318.327 12.9307 320.418 10.072C322.509 7.17066 325.325 5.03733 328.866 3.672C332.45 2.264 336.525 1.56 341.09 1.56C346.21 1.56 350.541 2.392 354.082 4.056C357.666 5.67733 360.333 7.74667 362.082 10.264C363.831 12.7387 364.706 15.2773 364.706 17.88C364.706 18.264 364.557 18.6053 364.258 18.904C364.002 19.16 363.682 19.288 363.298 19.288H349.474C348.535 19.288 347.789 18.7333 347.234 17.624C346.637 16.4293 345.911 15.5333 345.058 14.936C344.205 14.3387 342.882 14.04 341.09 14.04C339.085 14.04 337.485 14.5093 336.29 15.448C335.138 16.3867 334.562 17.7307 334.562 19.48V29.72ZM383.609 44.824C383.054 46.2747 382.094 47 380.729 47H368.633C368.249 47 367.908 46.872 367.609 46.616C367.353 46.3173 367.225 45.976 367.225 45.592L367.289 45.208L381.241 4.312C381.412 3.75733 381.732 3.26667 382.201 2.84C382.67 2.41333 383.31 2.2 384.121 2.2H401.913C402.724 2.2 403.364 2.41333 403.833 2.84C404.302 3.26667 404.622 3.75733 404.793 4.312L418.745 45.208L418.809 45.592C418.809 45.976 418.66 46.3173 418.361 46.616C418.105 46.872 417.785 47 417.401 47H405.305C403.94 47 402.98 46.2747 402.425 44.824L400.825 40.344H385.209L383.609 44.824ZM393.017 14.552L388.473 27.864H397.561L393.017 14.552ZM467.28 2.2C467.749 2.2 468.155 2.37066 468.496 2.712C468.837 3.05333 469.008 3.45867 469.008 3.928V14.232C469.008 14.7013 468.837 15.1067 468.496 15.448C468.155 15.7893 467.749 15.96 467.28 15.96H453.52V45.272C453.52 45.7413 453.349 46.1467 453.008 46.488C452.667 46.8293 452.261 47 451.792 47H438.608C438.139 47 437.733 46.8293 437.392 46.488C437.051 46.1467 436.88 45.7413 436.88 45.272V15.96H423.12C422.651 15.96 422.245 15.7893 421.904 15.448C421.563 15.1067 421.392 14.7013 421.392 14.232V3.928C421.392 3.45867 421.563 3.05333 421.904 2.712C422.245 2.37066 422.651 2.2 423.12 2.2H467.28ZM506.279 33.88H517.863C518.332 33.88 518.738 34.0507 519.079 34.392C519.42 34.7333 519.591 35.1387 519.591 35.608V45.272C519.591 45.7413 519.42 46.1467 519.079 46.488C518.738 46.8293 518.332 47 517.863 47H477.287C476.818 47 476.412 46.8293 476.071 46.488C475.73 46.1467 475.559 45.7413 475.559 45.272V35.608C475.559 35.1387 475.73 34.7333 476.071 34.392C476.412 34.0507 476.818 33.88 477.287 33.88H488.999V15.32H477.287C476.818 15.32 476.412 15.1493 476.071 14.808C475.73 14.4667 475.559 14.0613 475.559 13.592V3.928C475.559 3.45867 475.73 3.05333 476.071 2.712C476.412 2.37066 476.818 2.2 477.287 2.2H517.863C518.332 2.2 518.738 2.37066 519.079 2.712C519.42 3.05333 519.591 3.45867 519.591 3.928V13.592C519.591 14.0613 519.42 14.4667 519.079 14.808C518.738 15.1493 518.332 15.32 517.863 15.32H506.279V33.88ZM573.758 28.504C573.758 35.032 571.582 39.8533 567.23 42.968C562.921 46.0827 557.161 47.64 549.95 47.64C542.739 47.64 536.958 46.0827 532.606 42.968C528.297 39.8533 526.142 34.9893 526.142 28.376V20.824C526.142 16.472 527.166 12.8667 529.214 10.008C531.305 7.10667 534.142 4.97333 537.726 3.608C541.31 2.24266 545.385 1.56 549.95 1.56C554.515 1.56 558.569 2.24266 562.11 3.608C565.694 4.97333 568.531 7.08533 570.622 9.944C572.713 12.8027 573.758 16.3867 573.758 20.696V28.504ZM543.422 29.72C543.422 31.4693 543.998 32.8133 545.15 33.752C546.345 34.6907 547.945 35.16 549.95 35.16C551.955 35.16 553.534 34.6907 554.686 33.752C555.881 32.7707 556.478 31.4053 556.478 29.656V19.544C556.478 17.7947 555.881 16.4507 554.686 15.512C553.534 14.5307 551.955 14.04 549.95 14.04C547.945 14.04 546.345 14.5093 545.15 15.448C543.998 16.3867 543.422 17.7307 543.422 19.48V29.72ZM622.357 2.2C622.826 2.2 623.232 2.37066 623.573 2.712C623.914 3.05333 624.085 3.45867 624.085 3.928V45.272C624.085 45.7413 623.914 46.1467 623.573 46.488C623.232 46.8293 622.826 47 622.357 47H612.053C611.029 47 610.176 46.552 609.493 45.656L595.541 27.864V45.272C595.541 45.7413 595.37 46.1467 595.029 46.488C594.688 46.8293 594.282 47 593.813 47H581.909C581.44 47 581.034 46.8293 580.693 46.488C580.352 46.1467 580.181 45.7413 580.181 45.272V3.928C580.181 3.45867 580.352 3.05333 580.693 2.712C581.034 2.37066 581.44 2.2 581.909 2.2H592.277C593.301 2.2 594.133 2.62666 594.773 3.48L608.725 22.744V3.928C608.725 3.45867 608.896 3.05333 609.237 2.712C609.578 2.37066 609.984 2.2 610.453 2.2H622.357Z" fill="url(#paint0_linear_321_2818)"/>
<path d="M50.904 2.648L50.1447 3.29879L50.1948 3.35719L50.2532 3.40726L50.904 2.648ZM51.352 3.608L52.3419 3.74942L52.352 3.67906V3.608H51.352ZM51.288 4.056L52.2287 4.39514L52.2635 4.2988L52.278 4.19742L51.288 4.056ZM36.568 44.888L35.6273 44.5489L35.6263 44.5517L36.568 44.888ZM35.544 46.424L36.1772 47.198L36.1974 47.1815L36.2167 47.1639L35.544 46.424ZM16.92 46.424L16.2473 47.1639L16.2666 47.1815L16.2868 47.198L16.92 46.424ZM15.96 45.08L15.0197 45.4203L15.0202 45.4217L15.96 45.08ZM1.112 4.056L0.12205 4.19742L0.136624 4.29943L0.171694 4.39633L1.112 4.056ZM1.048 3.608H0.0480001V3.67907L0.0580505 3.74942L1.048 3.608ZM1.432 2.648L2.13911 3.35511L2.13911 3.3551L1.432 2.648ZM17.816 2.904L17.1089 3.6111L17.141 3.64318L17.1758 3.67222L17.816 2.904ZM18.84 4.312L19.7978 4.02442L19.7934 4.01003L19.7887 3.99577L18.84 4.312ZM26.2 28.824L25.2422 29.1116L26.2 32.3013L27.1578 29.1116L26.2 28.824ZM33.56 4.312L32.6042 4.0179L32.6022 4.02442L33.56 4.312ZM34.52 2.84L33.8473 2.10006L33.8473 2.10006L34.52 2.84ZM49.944 3.2C50.028 3.2 50.0734 3.21555 50.1447 3.29879L51.6633 1.99721C51.2226 1.48311 50.628 1.2 49.944 1.2V3.2ZM50.2532 3.40726C50.3364 3.4786 50.352 3.52401 50.352 3.608H52.352C52.352 2.92399 52.0689 2.3294 51.5548 1.88874L50.2532 3.40726ZM50.3621 3.46658L50.2981 3.91458L52.278 4.19742L52.3419 3.74942L50.3621 3.46658ZM50.3473 3.71686L35.6273 44.5489L37.5087 45.2271L52.2287 4.39514L50.3473 3.71686ZM35.6263 44.5517C35.4681 44.9944 35.2192 45.3678 34.8713 45.6841L36.2167 47.1639C36.8075 46.6269 37.2412 45.9762 37.5097 45.2243L35.6263 44.5517ZM34.9108 45.65C34.6633 45.8525 34.288 46 33.688 46V48C34.624 48 35.486 47.7635 36.1772 47.198L34.9108 45.65ZM33.688 46H18.776V48H33.688V46ZM18.776 46C18.176 46 17.8007 45.8525 17.5532 45.65L16.2868 47.198C16.978 47.7635 17.84 48 18.776 48V46ZM17.5927 45.6841C17.2117 45.3378 17.0021 45.0195 16.8998 44.7383L15.0202 45.4217C15.2593 46.0792 15.6896 46.6569 16.2473 47.1639L17.5927 45.6841ZM16.9003 44.7397L2.05231 3.71567L0.171694 4.39633L15.0197 45.4203L16.9003 44.7397ZM2.10195 3.91458L2.03795 3.46658L0.0580505 3.74942L0.12205 4.19742L2.10195 3.91458ZM2.048 3.608C2.048 3.47136 2.0829 3.41131 2.13911 3.35511L0.724895 1.94089C0.269098 2.39669 0.0480001 2.97664 0.0480001 3.608H2.048ZM2.13911 3.3551C2.27083 3.22338 2.36499 3.2 2.456 3.2V1.2C1.77901 1.2 1.1905 1.47528 0.724892 1.94089L2.13911 3.3551ZM2.456 3.2H15.96V1.2H2.456V3.2ZM15.96 3.2C16.5079 3.2 16.8567 3.35896 17.1089 3.6111L18.5231 2.19689C17.8366 1.51037 16.9481 1.2 15.96 1.2V3.2ZM17.1758 3.67222C17.5785 4.00776 17.7919 4.32989 17.8913 4.62822L19.7887 3.99577C19.5468 3.27011 19.0775 2.65358 18.4562 2.13578L17.1758 3.67222ZM17.8822 4.59957L25.2422 29.1116L27.1578 28.5364L19.7978 4.02442L17.8822 4.59957ZM27.1578 29.1116L34.5178 4.59957L32.6022 4.02442L25.2422 28.5364L27.1578 29.1116ZM34.5158 4.60608C34.6289 4.23843 34.8432 3.8976 35.1927 3.57993L33.8473 2.10006C33.2581 2.63573 32.8324 3.27623 32.6042 4.01791L34.5158 4.60608ZM35.1927 3.57994C35.4311 3.36317 35.8066 3.2 36.44 3.2V1.2C35.4521 1.2 34.5476 1.46349 33.8473 2.10006L35.1927 3.57994ZM36.44 3.2H49.944V1.2H36.44V3.2ZM100.527 35.032L99.8199 35.7391V35.7391L100.527 35.032ZM100.527 46.488L99.8199 45.7809V45.7809L100.527 46.488ZM99.887 2.712L99.1799 3.4191V3.41911L99.887 2.712ZM99.887 14.168L99.1799 13.4609V13.4609L99.887 14.168ZM73.775 14.68V13.68H72.775V14.68H73.775ZM73.775 18.712H72.775V19.712H73.775V18.712ZM96.367 19.224L95.6599 19.9311L95.6599 19.9311L96.367 19.224ZM96.367 29.976L95.6599 29.2689L95.6599 29.2689L96.367 29.976ZM73.775 30.488V29.488H72.775V30.488H73.775ZM73.775 34.52H72.775V35.52H73.775V34.52ZM99.311 35.52C99.5068 35.52 99.6601 35.5793 99.8199 35.7391L101.234 34.3249C100.711 33.802 100.054 33.52 99.311 33.52V35.52ZM99.8199 35.7391C99.9797 35.8989 100.039 36.0522 100.039 36.248H102.039C102.039 35.5051 101.757 34.8478 101.234 34.3249L99.8199 35.7391ZM100.039 36.248V45.272H102.039V36.248H100.039ZM100.039 45.272C100.039 45.4678 99.9797 45.6211 99.8199 45.7809L101.234 47.1951C101.757 46.6722 102.039 46.0149 102.039 45.272H100.039ZM99.8199 45.7809C99.6601 45.9407 99.5068 46 99.311 46V48C100.054 48 100.711 47.718 101.234 47.1951L99.8199 45.7809ZM99.311 46H58.863V48H99.311V46ZM58.863 46C58.6672 46 58.5139 45.9407 58.3541 45.7809L56.9399 47.1951C57.4628 47.718 58.1201 48 58.863 48V46ZM58.3541 45.7809C58.1943 45.6211 58.135 45.4678 58.135 45.272H56.135C56.135 46.0149 56.417 46.6722 56.9399 47.1951L58.3541 45.7809ZM58.135 45.272V3.928H56.135V45.272H58.135ZM58.135 3.928C58.135 3.73223 58.1943 3.57889 58.3541 3.4191L56.9399 2.00489C56.417 2.52778 56.135 3.1851 56.135 3.928H58.135ZM58.3541 3.4191C58.5139 3.25932 58.6672 3.2 58.863 3.2V1.2C58.1201 1.2 57.4628 1.48201 56.9399 2.00489L58.3541 3.4191ZM58.863 3.2H98.671V1.2H58.863V3.2ZM98.671 3.2C98.8668 3.2 99.0201 3.25932 99.1799 3.4191L100.594 2.00489C100.071 1.48201 99.4139 1.2 98.671 1.2V3.2ZM99.1799 3.41911C99.3397 3.57889 99.399 3.73223 99.399 3.928H101.399C101.399 3.1851 101.117 2.52778 100.594 2.00489L99.1799 3.41911ZM99.399 3.928V12.952H101.399V3.928H99.399ZM99.399 12.952C99.399 13.1478 99.3397 13.3011 99.1799 13.4609L100.594 14.8751C101.117 14.3522 101.399 13.6949 101.399 12.952H99.399ZM99.1799 13.4609C99.0201 13.6207 98.8668 13.68 98.671 13.68V15.68C99.4139 15.68 100.071 15.398 100.594 14.8751L99.1799 13.4609ZM98.671 13.68H73.775V15.68H98.671V13.68ZM72.775 14.68V18.712H74.775V14.68H72.775ZM73.775 19.712H95.151V17.712H73.775V19.712ZM95.151 19.712C95.3468 19.712 95.5001 19.7713 95.6599 19.9311L97.0741 18.5169C96.5512 17.994 95.8939 17.712 95.151 17.712V19.712ZM95.6599 19.9311C95.8197 20.0909 95.879 20.2442 95.879 20.44H97.879C97.879 19.6971 97.597 19.0398 97.0741 18.5169L95.6599 19.9311ZM95.879 20.44V28.76H97.879V20.44H95.879ZM95.879 28.76C95.879 28.9558 95.8197 29.1091 95.6599 29.2689L97.0741 30.6831C97.597 30.1602 97.879 29.5029 97.879 28.76H95.879ZM95.6599 29.2689C95.5001 29.4287 95.3468 29.488 95.151 29.488V31.488C95.8939 31.488 96.5512 31.206 97.0741 30.6831L95.6599 29.2689ZM95.151 29.488H73.775V31.488H95.151V29.488ZM72.775 30.488V34.52H74.775V30.488H72.775ZM73.775 35.52H99.311V33.52H73.775V35.52ZM156.358 45.016L157.252 44.5688L157.246 44.5565L157.24 44.5444L156.358 45.016ZM156.038 46.616L155.331 45.9089L155.331 45.9089L156.038 46.616ZM138.886 46.552L138.349 47.3957L138.365 47.406L138.382 47.4158L138.886 46.552ZM137.862 45.4L136.948 45.8062L136.952 45.8138L137.862 45.4ZM132.23 32.728L133.144 32.3219L132.88 31.728H132.23V32.728ZM126.854 32.728V31.728H125.854V32.728H126.854ZM126.342 46.488L125.635 45.7809L126.342 46.488ZM146.246 4.056L145.849 4.97374L145.854 4.97584L146.246 4.056ZM152.902 9.432L152.065 9.97966L152.902 9.432ZM148.486 30.296L147.984 29.4313L147.149 29.9163L147.604 30.7676L148.486 30.296ZM137.03 19.992L137.789 20.6428L137.8 20.6299L137.811 20.6167L137.03 19.992ZM137.03 15.192L136.19 15.7353L136.209 15.7643L136.23 15.792L137.03 15.192ZM126.854 14.104V13.104H125.854V14.104H126.854ZM126.854 20.888H125.854V21.888H126.854V20.888ZM155.464 45.4632C155.472 45.4794 155.486 45.5154 155.486 45.592H157.486C157.486 45.2419 157.415 44.894 157.252 44.5688L155.464 45.4632ZM155.486 45.592C155.486 45.683 155.463 45.7772 155.331 45.9089L156.745 47.3231C157.211 46.8575 157.486 46.269 157.486 45.592H155.486ZM155.331 45.9089C155.275 45.9651 155.215 46 155.078 46V48C155.709 48 156.289 47.7789 156.745 47.3231L155.331 45.9089ZM155.078 46H140.55V48H155.078V46ZM140.55 46C140.128 46 139.748 45.897 139.39 45.6882L138.382 47.4158C139.048 47.8044 139.777 48 140.55 48V46ZM139.423 45.7083C139.104 45.5051 138.899 45.265 138.772 44.9862L136.952 45.8138C137.252 46.4736 137.73 47.0015 138.349 47.3957L139.423 45.7083ZM138.776 44.9939L133.144 32.3219L131.316 33.1341L136.948 45.8061L138.776 44.9939ZM132.23 31.728H126.854V33.728H132.23V31.728ZM125.854 32.728V45.272H127.854V32.728H125.854ZM125.854 45.272C125.854 45.4678 125.795 45.6211 125.635 45.7809L127.049 47.1951C127.572 46.6722 127.854 46.0149 127.854 45.272H125.854ZM125.635 45.7809C125.475 45.9407 125.322 46 125.126 46V48C125.869 48 126.526 47.718 127.049 47.1951L125.635 45.7809ZM125.126 46H111.302V48H125.126V46ZM111.302 46C111.106 46 110.953 45.9407 110.793 45.7809L109.379 47.1951C109.902 47.718 110.559 48 111.302 48V46ZM110.793 45.7809C110.633 45.6211 110.574 45.4678 110.574 45.272H108.574C108.574 46.0149 108.856 46.6722 109.379 47.1951L110.793 45.7809ZM110.574 45.272V3.928H108.574V45.272H110.574ZM110.574 3.928C110.574 3.73223 110.633 3.57889 110.793 3.4191L109.379 2.00489C108.856 2.52778 108.574 3.1851 108.574 3.928H110.574ZM110.793 3.4191C110.953 3.25932 111.106 3.2 111.302 3.2V1.2C110.559 1.2 109.902 1.48201 109.379 2.00489L110.793 3.4191ZM111.302 3.2H136.198V1.2H111.302V3.2ZM136.198 3.2C139.932 3.2 143.141 3.80173 145.849 4.97372L146.643 3.13828C143.634 1.8356 140.144 1.2 136.198 1.2V3.2ZM145.854 4.97584C148.597 6.1457 150.651 7.8183 152.065 9.97966L153.739 8.88434C152.081 6.35236 149.698 4.44096 146.638 3.13616L145.854 4.97584ZM152.065 9.97966C153.482 12.1436 154.206 14.7 154.206 17.688H156.206C156.206 14.3614 155.394 11.4137 153.739 8.88434L152.065 9.97966ZM154.206 17.688C154.206 23.1859 152.114 27.0321 147.984 29.4313L148.988 31.1607C153.818 28.3546 156.206 23.7955 156.206 17.688H154.206ZM147.604 30.7676L155.476 45.4876L157.24 44.5444L149.368 29.8244L147.604 30.7676ZM134.854 21.888C136.023 21.888 137.05 21.5049 137.789 20.6428L136.271 19.3412C135.986 19.6738 135.563 19.888 134.854 19.888V21.888ZM137.811 20.6167C138.485 19.7741 138.798 18.755 138.798 17.624H136.798C136.798 18.3703 136.599 18.9299 136.249 19.3673L137.811 20.6167ZM138.798 17.624C138.798 16.4918 138.485 15.4652 137.83 14.592L136.23 15.792C136.599 16.2841 136.798 16.8789 136.798 17.624H138.798ZM137.87 14.6487C137.188 13.5959 136.12 13.104 134.854 13.104V15.104C135.55 15.104 135.933 15.3374 136.19 15.7353L137.87 14.6487ZM134.854 13.104H126.854V15.104H134.854V13.104ZM125.854 14.104V20.888H127.854V14.104H125.854ZM126.854 21.888H134.854V19.888H126.854V21.888ZM192.029 33.88H191.029V34.88H192.029V33.88ZM174.749 33.88V34.88H175.749V33.88H174.749ZM174.749 15.32H175.749V14.32H174.749V15.32ZM161.821 14.808L161.114 15.5151V15.5151L161.821 14.808ZM204.829 14.808L205.536 15.5151V15.5151L204.829 14.808ZM192.029 15.32V14.32H191.029V15.32H192.029ZM192.029 34.88H203.613V32.88H192.029V34.88ZM203.613 34.88C203.809 34.88 203.962 34.9393 204.122 35.0991L205.536 33.6849C205.013 33.162 204.356 32.88 203.613 32.88V34.88ZM204.122 35.0991C204.282 35.2589 204.341 35.4122 204.341 35.608H206.341C206.341 34.8651 206.059 34.2078 205.536 33.6849L204.122 35.0991ZM204.341 35.608V45.272H206.341V35.608H204.341ZM204.341 45.272C204.341 45.4678 204.282 45.6211 204.122 45.7809L205.536 47.1951C206.059 46.6722 206.341 46.0149 206.341 45.272H204.341ZM204.122 45.7809C203.962 45.9407 203.809 46 203.613 46V48C204.356 48 205.013 47.718 205.536 47.1951L204.122 45.7809ZM203.613 46H163.037V48H203.613V46ZM163.037 46C162.841 46 162.688 45.9407 162.528 45.7809L161.114 47.1951C161.637 47.718 162.294 48 163.037 48V46ZM162.528 45.7809C162.368 45.6211 162.309 45.4678 162.309 45.272H160.309C160.309 46.0149 160.591 46.6722 161.114 47.1951L162.528 45.7809ZM162.309 45.272V35.608H160.309V45.272H162.309ZM162.309 35.608C162.309 35.4122 162.368 35.2589 162.528 35.0991L161.114 33.6849C160.591 34.2078 160.309 34.8651 160.309 35.608H162.309ZM162.528 35.0991C162.688 34.9393 162.841 34.88 163.037 34.88V32.88C162.294 32.88 161.637 33.162 161.114 33.6849L162.528 35.0991ZM163.037 34.88H174.749V32.88H163.037V34.88ZM175.749 33.88V15.32H173.749V33.88H175.749ZM174.749 14.32H163.037V16.32H174.749V14.32ZM163.037 14.32C162.841 14.32 162.688 14.2607 162.528 14.1009L161.114 15.5151C161.637 16.038 162.294 16.32 163.037 16.32V14.32ZM162.528 14.1009C162.368 13.9411 162.309 13.7878 162.309 13.592H160.309C160.309 14.3349 160.591 14.9922 161.114 15.5151L162.528 14.1009ZM162.309 13.592V3.928H160.309V13.592H162.309ZM162.309 3.928C162.309 3.73223 162.368 3.57889 162.528 3.4191L161.114 2.00489C160.591 2.52778 160.309 3.1851 160.309 3.928H162.309ZM162.528 3.4191C162.688 3.25932 162.841 3.2 163.037 3.2V1.2C162.294 1.2 161.637 1.48201 161.114 2.00489L162.528 3.4191ZM163.037 3.2H203.613V1.2H163.037V3.2ZM203.613 3.2C203.809 3.2 203.962 3.25932 204.122 3.41911L205.536 2.00489C205.013 1.48201 204.356 1.2 203.613 1.2V3.2ZM204.122 3.41911C204.282 3.57889 204.341 3.73223 204.341 3.928H206.341C206.341 3.1851 206.059 2.52778 205.536 2.00489L204.122 3.41911ZM204.341 3.928V13.592H206.341V3.928H204.341ZM204.341 13.592C204.341 13.7878 204.282 13.9411 204.122 14.1009L205.536 15.5151C206.059 14.9922 206.341 14.3349 206.341 13.592H204.341ZM204.122 14.1009C203.962 14.2607 203.809 14.32 203.613 14.32V16.32C204.356 16.32 205.013 16.038 205.536 15.5151L204.122 14.1009ZM203.613 14.32H192.029V16.32H203.613V14.32ZM191.029 15.32V33.88H193.029V15.32H191.029ZM258.548 2.712L259.255 2.00489L259.255 2.00489L258.548 2.712ZM258.548 14.872L259.255 15.5791L259.255 15.5791L258.548 14.872ZM232.18 15.384V14.384H231.18V15.384H232.18ZM232.18 19.48H231.18V20.48H232.18V19.48ZM254.388 19.992L253.681 20.6991V20.6991L254.388 19.992ZM254.388 32.088L253.681 31.3809V31.3809L254.388 32.088ZM232.18 32.6V31.6H231.18V32.6H232.18ZM231.668 46.488L232.375 47.1951L231.668 46.488ZM257.332 3.2C257.528 3.2 257.681 3.25932 257.841 3.41911L259.255 2.00489C258.732 1.482 258.075 1.2 257.332 1.2V3.2ZM257.841 3.4191C258.001 3.57888 258.06 3.73223 258.06 3.928H260.06C260.06 3.1851 259.778 2.52778 259.255 2.00489L257.841 3.4191ZM258.06 3.928V13.656H260.06V3.928H258.06ZM258.06 13.656C258.06 13.8518 258.001 14.0051 257.841 14.1649L259.255 15.5791C259.778 15.0562 260.06 14.3989 260.06 13.656H258.06ZM257.841 14.1649C257.681 14.3247 257.528 14.384 257.332 14.384V16.384C258.075 16.384 258.732 16.102 259.255 15.5791L257.841 14.1649ZM257.332 14.384H232.18V16.384H257.332V14.384ZM231.18 15.384V19.48H233.18V15.384H231.18ZM232.18 20.48H253.172V18.48H232.18V20.48ZM253.172 20.48C253.368 20.48 253.521 20.5393 253.681 20.6991L255.095 19.2849C254.572 18.762 253.915 18.48 253.172 18.48V20.48ZM253.681 20.6991C253.841 20.8589 253.9 21.0122 253.9 21.208H255.9C255.9 20.4651 255.618 19.8078 255.095 19.2849L253.681 20.6991ZM253.9 21.208V30.872H255.9V21.208H253.9ZM253.9 30.872C253.9 31.0678 253.841 31.2211 253.681 31.3809L255.095 32.7951C255.618 32.2722 255.9 31.6149 255.9 30.872H253.9ZM253.681 31.3809C253.521 31.5407 253.368 31.6 253.172 31.6V33.6C253.915 33.6 254.572 33.318 255.095 32.7951L253.681 31.3809ZM253.172 31.6H232.18V33.6H253.172V31.6ZM231.18 32.6V45.272H233.18V32.6H231.18ZM231.18 45.272C231.18 45.4678 231.121 45.6211 230.961 45.7809L232.375 47.1951C232.898 46.6722 233.18 46.0149 233.18 45.272H231.18ZM230.961 45.7809C230.801 45.9407 230.648 46 230.452 46V48C231.195 48 231.852 47.718 232.375 47.1951L230.961 45.7809ZM230.452 46H216.628V48H230.452V46ZM216.628 46C216.432 46 216.279 45.9407 216.119 45.7809L214.705 47.1951C215.228 47.718 215.885 48 216.628 48V46ZM216.119 45.7809C215.959 45.6211 215.9 45.4678 215.9 45.272H213.9C213.9 46.0149 214.182 46.6722 214.705 47.1951L216.119 45.7809ZM215.9 45.272V3.928H213.9V45.272H215.9ZM215.9 3.928C215.9 3.73223 215.959 3.57889 216.119 3.4191L214.705 2.00489C214.182 2.52778 213.9 3.1851 213.9 3.928H215.9ZM216.119 3.4191C216.279 3.25932 216.432 3.2 216.628 3.2V1.2C215.885 1.2 215.228 1.48201 214.705 2.00489L216.119 3.4191ZM216.628 3.2H257.332V1.2H216.628V3.2ZM296.779 33.88H295.779V34.88H296.779V33.88ZM279.499 33.88V34.88H280.499V33.88H279.499ZM279.499 15.32H280.499V14.32H279.499V15.32ZM266.571 14.808L265.864 15.5151V15.5151L266.571 14.808ZM309.579 14.808L310.286 15.5151V15.5151L309.579 14.808ZM296.779 15.32V14.32H295.779V15.32H296.779ZM296.779 34.88H308.363V32.88H296.779V34.88ZM308.363 34.88C308.559 34.88 308.712 34.9393 308.872 35.0991L310.286 33.6849C309.763 33.162 309.106 32.88 308.363 32.88V34.88ZM308.872 35.0991C309.032 35.2589 309.091 35.4122 309.091 35.608H311.091C311.091 34.8651 310.809 34.2078 310.286 33.6849L308.872 35.0991ZM309.091 35.608V45.272H311.091V35.608H309.091ZM309.091 45.272C309.091 45.4678 309.032 45.6211 308.872 45.7809L310.286 47.1951C310.809 46.6722 311.091 46.0149 311.091 45.272H309.091ZM308.872 45.7809C308.712 45.9407 308.559 46 308.363 46V48C309.106 48 309.763 47.718 310.286 47.1951L308.872 45.7809ZM308.363 46H267.787V48H308.363V46ZM267.787 46C267.591 46 267.438 45.9407 267.278 45.7809L265.864 47.1951C266.387 47.718 267.044 48 267.787 48V46ZM267.278 45.7809C267.118 45.6211 267.059 45.4678 267.059 45.272H265.059C265.059 46.0149 265.341 46.6722 265.864 47.1951L267.278 45.7809ZM267.059 45.272V35.608H265.059V45.272H267.059ZM267.059 35.608C267.059 35.4122 267.118 35.2589 267.278 35.0991L265.864 33.6849C265.341 34.2078 265.059 34.8651 265.059 35.608H267.059ZM267.278 35.0991C267.438 34.9393 267.591 34.88 267.787 34.88V32.88C267.044 32.88 266.387 33.162 265.864 33.6849L267.278 35.0991ZM267.787 34.88H279.499V32.88H267.787V34.88ZM280.499 33.88V15.32H278.499V33.88H280.499ZM279.499 14.32H267.787V16.32H279.499V14.32ZM267.787 14.32C267.591 14.32 267.438 14.2607 267.278 14.1009L265.864 15.5151C266.387 16.038 267.044 16.32 267.787 16.32V14.32ZM267.278 14.1009C267.118 13.9411 267.059 13.7878 267.059 13.592H265.059C265.059 14.3349 265.341 14.9922 265.864 15.5151L267.278 14.1009ZM267.059 13.592V3.928H265.059V13.592H267.059ZM267.059 3.928C267.059 3.73223 267.118 3.57889 267.278 3.4191L265.864 2.00489C265.341 2.52778 265.059 3.1851 265.059 3.928H267.059ZM267.278 3.4191C267.438 3.25932 267.591 3.2 267.787 3.2V1.2C267.044 1.2 266.387 1.48201 265.864 2.00489L267.278 3.4191ZM267.787 3.2H308.363V1.2H267.787V3.2ZM308.363 3.2C308.559 3.2 308.712 3.25932 308.872 3.41911L310.286 2.00489C309.763 1.48201 309.106 1.2 308.363 1.2V3.2ZM308.872 3.41911C309.032 3.57889 309.091 3.73223 309.091 3.928H311.091C311.091 3.1851 310.809 2.52778 310.286 2.00489L308.872 3.41911ZM309.091 3.928V13.592H311.091V3.928H309.091ZM309.091 13.592C309.091 13.7878 309.032 13.9411 308.872 14.1009L310.286 15.5151C310.809 14.9922 311.091 14.3349 311.091 13.592H309.091ZM308.872 14.1009C308.712 14.2607 308.559 14.32 308.363 14.32V16.32C309.106 16.32 309.763 16.038 310.286 15.5151L308.872 14.1009ZM308.363 14.32H296.779V16.32H308.363V14.32ZM295.779 15.32V33.88H297.779V15.32H295.779ZM336.29 33.752L335.658 34.5272L335.665 34.5328L335.672 34.5383L336.29 33.752ZM345.058 34.264L344.485 33.4448V33.4448L345.058 34.264ZM347.234 31.576L346.34 31.1288L347.234 31.576ZM364.258 30.36L363.499 31.0108L363.549 31.0692L363.607 31.1193L364.258 30.36ZM362.082 39L362.899 39.5773L362.903 39.5707L362.082 39ZM354.082 45.208L354.498 46.1173L354.503 46.115L354.082 45.208ZM328.866 45.592L328.497 46.5212L328.503 46.5239L328.51 46.5265L328.866 45.592ZM320.418 39.192L319.607 39.7766L319.611 39.7823L320.418 39.192ZM320.418 10.072L321.225 10.6623L321.229 10.6566L320.418 10.072ZM328.866 3.672L329.226 4.60507L329.232 4.60275L328.866 3.672ZM354.082 4.056L353.657 4.96107L353.663 4.96413L353.67 4.96711L354.082 4.056ZM362.082 10.264L361.261 10.8347L361.265 10.8412L362.082 10.264ZM364.258 18.904L364.965 19.6111V19.6111L364.258 18.904ZM347.234 17.624L346.34 18.0712V18.0712L347.234 17.624ZM345.058 14.936L345.631 14.1168L345.058 14.936ZM336.29 15.448L335.672 14.6617L335.665 14.6672L335.658 14.6728L336.29 15.448ZM333.562 29.72C333.562 31.7106 334.231 33.3641 335.658 34.5272L336.922 32.9768C336.045 32.2626 335.562 31.2281 335.562 29.72H333.562ZM335.672 34.5383C337.092 35.6541 338.932 36.16 341.09 36.16V34.16C339.237 34.16 337.877 33.7273 336.908 32.9657L335.672 34.5383ZM341.09 36.16C342.956 36.16 344.527 35.8561 345.631 35.0832L344.485 33.4448C343.882 33.8666 342.809 34.16 341.09 34.16V36.16ZM345.631 35.0832C346.654 34.3673 347.477 33.3257 348.128 32.0232L346.34 31.1288C345.796 32.2156 345.168 32.966 344.485 33.4448L345.631 35.0832ZM348.128 32.0232C348.578 31.1249 349.038 30.912 349.474 30.912V28.912C348.032 28.912 347 29.8084 346.34 31.1288L348.128 32.0232ZM349.474 30.912H363.298V28.912H349.474V30.912ZM363.298 30.912C363.382 30.912 363.427 30.9276 363.499 31.0108L365.017 29.7092C364.577 29.1951 363.982 28.912 363.298 28.912V30.912ZM363.607 31.1193C363.69 31.1906 363.706 31.236 363.706 31.32H365.706C365.706 30.636 365.423 30.0414 364.909 29.6007L363.607 31.1193ZM363.706 31.32C363.706 33.6844 362.915 36.049 361.261 38.4293L362.903 39.5707C364.748 36.9163 365.706 34.1609 365.706 31.32H363.706ZM361.265 38.4228C359.643 40.7179 357.133 42.6888 353.661 44.301L354.503 46.115C358.199 44.3992 361.022 42.2314 362.899 39.5772L361.265 38.4228ZM353.666 44.2988C350.289 45.8446 346.109 46.64 341.09 46.64V48.64C346.311 48.64 350.792 47.8141 354.498 46.1172L353.666 44.2988ZM341.09 46.64C336.624 46.64 332.673 45.9722 329.222 44.6575L328.51 46.5265C332.227 47.9425 336.426 48.64 341.09 48.64V46.64ZM329.235 44.6628C325.855 43.3188 323.196 41.2968 321.225 38.6017L319.611 39.7823C321.821 42.8045 324.794 45.0492 328.497 46.5212L329.235 44.6628ZM321.229 38.6074C319.285 35.9088 318.282 32.5195 318.282 28.376H316.282C316.282 32.8512 317.37 36.6725 319.607 39.7766L321.229 38.6074ZM318.282 28.376V20.824H316.282V28.376H318.282ZM318.282 20.824C318.282 16.6799 319.285 13.3153 321.225 10.6623L319.611 9.48168C317.37 12.546 316.282 16.3494 316.282 20.824H318.282ZM321.229 10.6566C323.199 7.92265 325.854 5.90504 329.226 4.60505L328.506 2.73894C324.795 4.16962 321.818 6.41868 319.607 9.48738L321.229 10.6566ZM329.232 4.60275C332.68 3.24815 336.627 2.56 341.09 2.56V0.559998C336.422 0.559998 332.22 1.27985 328.5 2.74125L329.232 4.60275ZM341.09 2.56C346.106 2.56 350.283 3.37575 353.657 4.96107L354.507 3.15093C350.798 1.40825 346.314 0.559998 341.09 0.559998V2.56ZM353.67 4.96711C357.135 6.5347 359.64 8.50213 361.261 10.8347L362.903 9.69334C361.025 6.99121 358.197 4.81996 354.494 3.14489L353.67 4.96711ZM361.265 10.8412C362.916 13.1757 363.706 15.5166 363.706 17.88H365.706C365.706 15.0381 364.747 12.3016 362.899 9.68676L361.265 10.8412ZM363.706 17.88C363.706 17.971 363.683 18.0652 363.551 18.1969L364.965 19.6111C365.431 19.1455 365.706 18.557 365.706 17.88H363.706ZM363.551 18.1969C363.495 18.2531 363.435 18.288 363.298 18.288V20.288C363.929 20.288 364.509 20.0669 364.965 19.6111L363.551 18.1969ZM363.298 18.288H349.474V20.288H363.298V18.288ZM349.474 18.288C349.038 18.288 348.578 18.0751 348.128 17.1768L346.34 18.0712C347 19.3916 348.032 20.288 349.474 20.288V18.288ZM348.128 17.1768C347.477 15.8743 346.654 14.8327 345.631 14.1168L344.485 15.7552C345.168 16.234 345.796 16.9844 346.34 18.0712L348.128 17.1768ZM345.631 14.1168C344.527 13.3439 342.956 13.04 341.09 13.04V15.04C342.809 15.04 343.882 15.3334 344.485 15.7552L345.631 14.1168ZM341.09 13.04C338.932 13.04 337.092 13.5459 335.672 14.6617L336.908 16.2343C337.877 15.4727 339.237 15.04 341.09 15.04V13.04ZM335.658 14.6728C334.231 15.8359 333.562 17.4894 333.562 19.48H335.562C335.562 17.9719 336.045 16.9374 336.922 16.2232L335.658 14.6728ZM333.562 19.48V29.72H335.562V19.48H333.562ZM383.609 44.824L384.543 45.1811L384.547 45.1708L384.551 45.1603L383.609 44.824ZM367.609 46.616L366.85 47.2668L366.9 47.3252L366.958 47.3753L367.609 46.616ZM367.225 45.592L366.239 45.4276L366.225 45.5092V45.592H367.225ZM367.289 45.208L366.343 44.8851L366.316 44.9627L366.303 45.0436L367.289 45.208ZM381.241 4.312L382.187 4.63488L382.192 4.62055L382.197 4.60608L381.241 4.312ZM382.201 2.84L381.528 2.10006V2.10006L382.201 2.84ZM403.833 2.84L404.506 2.10006V2.10006L403.833 2.84ZM404.793 4.312L403.837 4.60608L403.842 4.62055L403.847 4.63488L404.793 4.312ZM418.745 45.208L419.731 45.0436L419.718 44.9627L419.691 44.8851L418.745 45.208ZM418.809 45.592H419.809V45.5092L419.795 45.4276L418.809 45.592ZM418.361 46.616L419.068 47.3231V47.3231L418.361 46.616ZM402.425 44.824L401.483 45.1603L401.487 45.1708L401.491 45.1811L402.425 44.824ZM400.825 40.344L401.767 40.0077L401.53 39.344H400.825V40.344ZM385.209 40.344V39.344H384.504L384.267 40.0077L385.209 40.344ZM393.017 14.552L393.963 14.229L393.017 11.4564L392.071 14.229L393.017 14.552ZM388.473 27.864L387.527 27.541L387.075 28.864H388.473V27.864ZM397.561 27.864V28.864H398.959L398.507 27.541L397.561 27.864ZM382.675 44.4669C382.445 45.0673 382.163 45.4369 381.87 45.6581C381.587 45.8723 381.225 46 380.729 46V48C381.599 48 382.399 47.7651 383.076 47.2539C383.743 46.7497 384.218 46.0314 384.543 45.1811L382.675 44.4669ZM380.729 46H368.633V48H380.729V46ZM368.633 46C368.494 46 368.382 45.9615 368.26 45.8567L366.958 47.3753C367.433 47.7825 368.004 48 368.633 48V46ZM368.368 45.9652C368.263 45.8429 368.225 45.731 368.225 45.592H366.225C366.225 46.221 366.443 46.7917 366.85 47.2668L368.368 45.9652ZM368.211 45.7564L368.275 45.3724L366.303 45.0436L366.239 45.4276L368.211 45.7564ZM368.235 45.5309L382.187 4.63488L380.295 3.98911L366.343 44.8851L368.235 45.5309ZM382.197 4.60608C382.31 4.23843 382.524 3.8976 382.874 3.57994L381.528 2.10006C380.939 2.63573 380.513 3.27623 380.285 4.01791L382.197 4.60608ZM382.874 3.57994C383.112 3.36317 383.488 3.2 384.121 3.2V1.2C383.133 1.2 382.229 1.46349 381.528 2.10006L382.874 3.57994ZM384.121 3.2H401.913V1.2H384.121V3.2ZM401.913 3.2C402.546 3.2 402.922 3.36317 403.16 3.57994L404.506 2.10006C403.805 1.46349 402.901 1.2 401.913 1.2V3.2ZM403.16 3.57994C403.51 3.8976 403.724 4.23843 403.837 4.60608L405.749 4.01791C405.521 3.27623 405.095 2.63573 404.506 2.10006L403.16 3.57994ZM403.847 4.63488L417.799 45.5309L419.691 44.8851L405.739 3.98911L403.847 4.63488ZM417.759 45.3724L417.823 45.7564L419.795 45.4276L419.731 45.0436L417.759 45.3724ZM417.809 45.592C417.809 45.683 417.786 45.7772 417.654 45.9089L419.068 47.3231C419.534 46.8575 419.809 46.269 419.809 45.592H417.809ZM417.654 45.9089C417.598 45.9651 417.538 46 417.401 46V48C418.032 48 418.612 47.7789 419.068 47.3231L417.654 45.9089ZM417.401 46H405.305V48H417.401V46ZM405.305 46C404.809 46 404.447 45.8723 404.164 45.6581C403.871 45.4369 403.589 45.0673 403.359 44.4669L401.491 45.1811C401.816 46.0314 402.291 46.7497 402.958 47.2539C403.635 47.7651 404.435 48 405.305 48V46ZM403.367 44.4877L401.767 40.0077L399.883 40.6803L401.483 45.1603L403.367 44.4877ZM400.825 39.344H385.209V41.344H400.825V39.344ZM384.267 40.0077L382.667 44.4877L384.551 45.1603L386.151 40.6803L384.267 40.0077ZM392.071 14.229L387.527 27.541L389.419 28.187L393.963 14.875L392.071 14.229ZM388.473 28.864H397.561V26.864H388.473V28.864ZM398.507 27.541L393.963 14.229L392.071 14.875L396.615 28.187L398.507 27.541ZM453.52 15.96V14.96H452.52V15.96H453.52ZM453.008 46.488L453.715 47.1951V47.1951L453.008 46.488ZM437.392 46.488L436.685 47.1951L437.392 46.488ZM436.88 15.96H437.88V14.96H436.88V15.96ZM467.28 3.2C467.476 3.2 467.629 3.25932 467.789 3.41911L469.203 2.00489C468.68 1.48201 468.023 1.2 467.28 1.2V3.2ZM467.789 3.41911C467.949 3.57889 468.008 3.73223 468.008 3.928H470.008C470.008 3.1851 469.726 2.52778 469.203 2.00489L467.789 3.41911ZM468.008 3.928V14.232H470.008V3.928H468.008ZM468.008 14.232C468.008 14.4278 467.949 14.5811 467.789 14.7409L469.203 16.1551C469.726 15.6322 470.008 14.9749 470.008 14.232H468.008ZM467.789 14.7409C467.629 14.9007 467.476 14.96 467.28 14.96V16.96C468.023 16.96 468.68 16.678 469.203 16.1551L467.789 14.7409ZM467.28 14.96H453.52V16.96H467.28V14.96ZM452.52 15.96V45.272H454.52V15.96H452.52ZM452.52 45.272C452.52 45.4678 452.461 45.6211 452.301 45.7809L453.715 47.1951C454.238 46.6722 454.52 46.0149 454.52 45.272H452.52ZM452.301 45.7809C452.141 45.9407 451.988 46 451.792 46V48C452.535 48 453.192 47.718 453.715 47.1951L452.301 45.7809ZM451.792 46H438.608V48H451.792V46ZM438.608 46C438.412 46 438.259 45.9407 438.099 45.7809L436.685 47.1951C437.208 47.718 437.865 48 438.608 48V46ZM438.099 45.7809C437.939 45.6211 437.88 45.4678 437.88 45.272H435.88C435.88 46.0149 436.162 46.6722 436.685 47.1951L438.099 45.7809ZM437.88 45.272V15.96H435.88V45.272H437.88ZM436.88 14.96H423.12V16.96H436.88V14.96ZM423.12 14.96C422.924 14.96 422.771 14.9007 422.611 14.7409L421.197 16.1551C421.72 16.678 422.377 16.96 423.12 16.96V14.96ZM422.611 14.7409C422.451 14.5811 422.392 14.4278 422.392 14.232H420.392C420.392 14.9749 420.674 15.6322 421.197 16.1551L422.611 14.7409ZM422.392 14.232V3.928H420.392V14.232H422.392ZM422.392 3.928C422.392 3.73223 422.451 3.57889 422.611 3.4191L421.197 2.00489C420.674 2.52778 420.392 3.1851 420.392 3.928H422.392ZM422.611 3.4191C422.771 3.25932 422.924 3.2 423.12 3.2V1.2C422.377 1.2 421.72 1.48201 421.197 2.00489L422.611 3.4191ZM423.12 3.2H467.28V1.2H423.12V3.2ZM506.279 33.88H505.279V34.88H506.279V33.88ZM488.999 33.88V34.88H489.999V33.88H488.999ZM488.999 15.32H489.999V14.32H488.999V15.32ZM476.071 14.808L475.364 15.5151V15.5151L476.071 14.808ZM519.079 14.808L519.786 15.5151V15.5151L519.079 14.808ZM506.279 15.32V14.32H505.279V15.32H506.279ZM506.279 34.88H517.863V32.88H506.279V34.88ZM517.863 34.88C518.059 34.88 518.212 34.9393 518.372 35.0991L519.786 33.6849C519.263 33.162 518.606 32.88 517.863 32.88V34.88ZM518.372 35.0991C518.532 35.2589 518.591 35.4122 518.591 35.608H520.591C520.591 34.8651 520.309 34.2078 519.786 33.6849L518.372 35.0991ZM518.591 35.608V45.272H520.591V35.608H518.591ZM518.591 45.272C518.591 45.4678 518.532 45.6211 518.372 45.7809L519.786 47.1951C520.309 46.6722 520.591 46.0149 520.591 45.272H518.591ZM518.372 45.7809C518.212 45.9407 518.059 46 517.863 46V48C518.606 48 519.263 47.718 519.786 47.1951L518.372 45.7809ZM517.863 46H477.287V48H517.863V46ZM477.287 46C477.091 46 476.938 45.9407 476.778 45.7809L475.364 47.1951C475.887 47.718 476.544 48 477.287 48V46ZM476.778 45.7809C476.618 45.6211 476.559 45.4678 476.559 45.272H474.559C474.559 46.0149 474.841 46.6722 475.364 47.1951L476.778 45.7809ZM476.559 45.272V35.608H474.559V45.272H476.559ZM476.559 35.608C476.559 35.4122 476.618 35.2589 476.778 35.0991L475.364 33.6849C474.841 34.2078 474.559 34.8651 474.559 35.608H476.559ZM476.778 35.0991C476.938 34.9393 477.091 34.88 477.287 34.88V32.88C476.544 32.88 475.887 33.162 475.364 33.6849L476.778 35.0991ZM477.287 34.88H488.999V32.88H477.287V34.88ZM489.999 33.88V15.32H487.999V33.88H489.999ZM488.999 14.32H477.287V16.32H488.999V14.32ZM477.287 14.32C477.091 14.32 476.938 14.2607 476.778 14.1009L475.364 15.5151C475.887 16.038 476.544 16.32 477.287 16.32V14.32ZM476.778 14.1009C476.618 13.9411 476.559 13.7878 476.559 13.592H474.559C474.559 14.3349 474.841 14.9922 475.364 15.5151L476.778 14.1009ZM476.559 13.592V3.928H474.559V13.592H476.559ZM476.559 3.928C476.559 3.73223 476.618 3.57889 476.778 3.4191L475.364 2.00489C474.841 2.52778 474.559 3.1851 474.559 3.928H476.559ZM476.778 3.4191C476.938 3.25932 477.091 3.2 477.287 3.2V1.2C476.544 1.2 475.887 1.48201 475.364 2.00489L476.778 3.4191ZM477.287 3.2H517.863V1.2H477.287V3.2ZM517.863 3.2C518.059 3.2 518.212 3.25932 518.372 3.41911L519.786 2.00489C519.263 1.48201 518.606 1.2 517.863 1.2V3.2ZM518.372 3.41911C518.532 3.57889 518.591 3.73223 518.591 3.928H520.591C520.591 3.1851 520.309 2.52778 519.786 2.00489L518.372 3.41911ZM518.591 3.928V13.592H520.591V3.928H518.591ZM518.591 13.592C518.591 13.7878 518.532 13.9411 518.372 14.1009L519.786 15.5151C520.309 14.9922 520.591 14.3349 520.591 13.592H518.591ZM518.372 14.1009C518.212 14.2607 518.059 14.32 517.863 14.32V16.32C518.606 16.32 519.263 16.038 519.786 15.5151L518.372 14.1009ZM517.863 14.32H506.279V16.32H517.863V14.32ZM505.279 15.32V33.88H507.279V15.32H505.279ZM567.23 42.968L566.648 42.1548L566.644 42.1575L567.23 42.968ZM532.606 42.968L532.02 43.7785L532.024 43.7812L532.606 42.968ZM529.214 10.008L528.403 9.42338L528.401 9.42561L529.214 10.008ZM537.726 3.608L537.37 2.67351L537.726 3.608ZM562.11 3.608L561.75 4.54106L561.754 4.54249L562.11 3.608ZM570.622 9.944L569.815 10.5343L570.622 9.944ZM545.15 33.752L544.518 34.5272L544.525 34.5328L544.532 34.5383L545.15 33.752ZM554.686 33.752L555.318 34.5272L555.321 34.5247L554.686 33.752ZM554.686 15.512L554.038 16.2732L554.053 16.2861L554.068 16.2983L554.686 15.512ZM545.15 15.448L544.532 14.6617L544.525 14.6672L544.518 14.6728L545.15 15.448ZM572.758 28.504C572.758 34.7893 570.679 39.2701 566.648 42.1548L567.812 43.7812C572.485 40.4366 574.758 35.2746 574.758 28.504H572.758ZM566.644 42.1575C562.557 45.1119 557.024 46.64 549.95 46.64V48.64C557.297 48.64 563.285 47.0534 567.816 43.7785L566.644 42.1575ZM549.95 46.64C542.877 46.64 537.32 45.1122 533.188 42.1548L532.024 43.7812C536.596 47.0532 542.602 48.64 549.95 48.64V46.64ZM533.192 42.1575C529.206 39.2769 527.142 34.7559 527.142 28.376H525.142C525.142 35.2228 527.387 40.4298 532.02 43.7785L533.192 42.1575ZM527.142 28.376V20.824H525.142V28.376H527.142ZM527.142 20.824C527.142 16.6306 528.127 13.2425 530.027 10.5904L528.401 9.42561C526.205 12.4908 525.142 16.3134 525.142 20.824H527.142ZM530.025 10.5926C531.993 7.86154 534.667 5.8435 538.082 4.54249L537.37 2.67351C533.617 4.10316 530.616 6.35179 528.403 9.42338L530.025 10.5926ZM538.082 4.54249C541.533 3.22785 545.484 2.56 549.95 2.56V0.559998C545.286 0.559998 541.087 1.25748 537.37 2.67351L538.082 4.54249ZM549.95 2.56C554.417 2.56 558.344 3.22794 561.75 4.54105L562.47 2.67494C558.793 1.25739 554.614 0.559998 549.95 0.559998V2.56ZM561.754 4.54249C565.173 5.84501 567.848 7.84449 569.815 10.5343L571.429 9.35368C569.215 6.32617 566.215 4.10165 562.466 2.67351L561.754 4.54249ZM569.815 10.5343C571.755 13.1873 572.758 16.5519 572.758 20.696H574.758C574.758 16.2214 573.67 12.418 571.429 9.35368L569.815 10.5343ZM572.758 20.696V28.504H574.758V20.696H572.758ZM542.422 29.72C542.422 31.7106 543.091 33.3641 544.518 34.5272L545.782 32.9768C544.905 32.2626 544.422 31.2281 544.422 29.72H542.422ZM544.532 34.5383C545.952 35.6541 547.792 36.16 549.95 36.16V34.16C548.097 34.16 546.737 33.7273 545.768 32.9657L544.532 34.5383ZM549.95 36.16C552.105 36.16 553.934 35.655 555.318 34.5272L554.054 32.9768C553.134 33.7263 551.806 34.16 549.95 34.16V36.16ZM555.321 34.5247C556.779 33.327 557.478 31.6603 557.478 29.656H555.478C555.478 31.1504 554.982 32.2143 554.051 32.9793L555.321 34.5247ZM557.478 29.656V19.544H555.478V29.656H557.478ZM557.478 19.544C557.478 17.5403 556.778 15.8841 555.304 14.7257L554.068 16.2983C554.983 17.0172 555.478 18.0491 555.478 19.544H557.478ZM555.334 14.7508C553.95 13.5712 552.115 13.04 549.95 13.04V15.04C551.796 15.04 553.118 15.4901 554.038 16.2732L555.334 14.7508ZM549.95 13.04C547.792 13.04 545.952 13.5459 544.532 14.6617L545.768 16.2343C546.737 15.4727 548.097 15.04 549.95 15.04V13.04ZM544.518 14.6728C543.091 15.8359 542.422 17.4894 542.422 19.48H544.422C544.422 17.9719 544.905 16.9374 545.782 16.2232L544.518 14.6728ZM542.422 19.48V29.72H544.422V19.48H542.422ZM609.493 45.656L610.289 45.0499L610.28 45.0389L609.493 45.656ZM595.541 27.864L596.328 27.2469L594.541 24.9682V27.864H595.541ZM595.029 46.488L595.736 47.1951L595.029 46.488ZM594.773 3.48L595.583 2.89343L595.578 2.88667L595.573 2.88L594.773 3.48ZM608.725 22.744L607.915 23.3306L609.725 25.8296V22.744H608.725ZM609.237 2.712L609.944 3.41911V3.4191L609.237 2.712ZM622.357 3.2C622.553 3.2 622.706 3.25932 622.866 3.41911L624.28 2.00489C623.757 1.48201 623.1 1.2 622.357 1.2V3.2ZM622.866 3.41911C623.026 3.57889 623.085 3.73223 623.085 3.928H625.085C625.085 3.1851 624.803 2.52778 624.28 2.00489L622.866 3.41911ZM623.085 3.928V45.272H625.085V3.928H623.085ZM623.085 45.272C623.085 45.4678 623.026 45.6211 622.866 45.7809L624.28 47.1951C624.803 46.6722 625.085 46.0149 625.085 45.272H623.085ZM622.866 45.7809C622.706 45.9407 622.553 46 622.357 46V48C623.1 48 623.757 47.718 624.28 47.1951L622.866 45.7809ZM622.357 46H612.053V48H622.357V46ZM612.053 46C611.375 46 610.804 45.7263 610.288 45.05L608.698 46.262C609.548 47.3777 610.683 48 612.053 48V46ZM610.28 45.0389L596.328 27.2469L594.754 28.4811L608.706 46.2731L610.28 45.0389ZM594.541 27.864V45.272H596.541V27.864H594.541ZM594.541 45.272C594.541 45.4678 594.482 45.6211 594.322 45.7809L595.736 47.1951C596.259 46.6722 596.541 46.0149 596.541 45.272H594.541ZM594.322 45.7809C594.162 45.9407 594.009 46 593.813 46V48C594.556 48 595.213 47.718 595.736 47.1951L594.322 45.7809ZM593.813 46H581.909V48H593.813V46ZM581.909 46C581.713 46 581.56 45.9407 581.4 45.7809L579.986 47.1951C580.509 47.718 581.166 48 581.909 48V46ZM581.4 45.7809C581.24 45.6211 581.181 45.4678 581.181 45.272H579.181C579.181 46.0149 579.463 46.6722 579.986 47.1951L581.4 45.7809ZM581.181 45.272V3.928H579.181V45.272H581.181ZM581.181 3.928C581.181 3.73223 581.24 3.57889 581.4 3.4191L579.986 2.00489C579.463 2.52778 579.181 3.1851 579.181 3.928H581.181ZM581.4 3.4191C581.56 3.25932 581.713 3.2 581.909 3.2V1.2C581.166 1.2 580.509 1.48201 579.986 2.00489L581.4 3.4191ZM581.909 3.2H592.277V1.2H581.909V3.2ZM592.277 3.2C592.971 3.2 593.513 3.46618 593.973 4.08L595.573 2.88C594.753 1.78715 593.631 1.2 592.277 1.2V3.2ZM593.963 4.06657L607.915 23.3306L609.535 22.1574L595.583 2.89343L593.963 4.06657ZM609.725 22.744V3.928H607.725V22.744H609.725ZM609.725 3.928C609.725 3.73223 609.784 3.57889 609.944 3.41911L608.53 2.00489C608.007 2.52778 607.725 3.1851 607.725 3.928H609.725ZM609.944 3.4191C610.104 3.25932 610.257 3.2 610.453 3.2V1.2C609.71 1.2 609.053 1.48201 608.53 2.00489L609.944 3.4191ZM610.453 3.2H622.357V1.2H610.453V3.2Z" fill="#313131" mask="url(#path-1-outside-1_321_2818)"/>
<defs>
<linearGradient id="paint0_linear_321_2818" x1="289.141" y1="0.217104" x2="289.141" y2="29.6908" gradientUnits="userSpaceOnUse">
<stop stop-color="#313131"/>
<stop offset="0.471682" stop-color="#535353" stop-opacity="0.479916"/>
<stop offset="1" stop-color="white" stop-opacity="0"/>
</linearGradient>
</defs>
</svg>
