<svg width="736" height="49" viewBox="0 0 736 49" fill="none" xmlns="http://www.w3.org/2000/svg">
<mask id="path-1-outside-1_321_2851" maskUnits="userSpaceOnUse" x="0" y="0" width="736" height="49" fill="black">
<rect fill="white" width="736" height="49"/>
<path d="M21.568 45.272C21.44 45.656 21.12 46.04 20.608 46.424C20.1387 46.808 19.52 47 18.752 47H9.792C8.98133 47 8.29867 46.7653 7.744 46.296C7.232 45.784 6.93333 45.208 6.848 44.568L1.28 3.8V3.608C1.28 3.224 1.408 2.904 1.664 2.648C1.96267 2.34933 2.304 2.2 2.688 2.2H13.696C14.5493 2.2 15.232 2.456 15.744 2.968C16.2987 3.48 16.6187 4.12 16.704 4.888L18.752 24.472L22.464 14.296C22.592 13.8693 22.8907 13.464 23.36 13.08C23.872 12.6533 24.512 12.44 25.28 12.44H29.632C30.4 12.44 31.0187 12.6533 31.488 13.08C32 13.464 32.32 13.8693 32.448 14.296L36.16 24.472L38.208 4.888C38.2933 4.12 38.592 3.48 39.104 2.968C39.6587 2.456 40.3627 2.2 41.216 2.2H52.224C52.608 2.2 52.928 2.34933 53.184 2.648C53.4827 2.904 53.632 3.224 53.632 3.608V3.8L48.064 44.568C47.9787 45.208 47.6587 45.784 47.104 46.296C46.592 46.7653 45.9307 47 45.12 47H36.16C35.392 47 34.752 46.808 34.24 46.424C33.7707 46.04 33.472 45.656 33.344 45.272L27.456 31.768L21.568 45.272ZM70.359 44.824C69.8043 46.2747 68.8443 47 67.479 47H55.383C54.999 47 54.6577 46.872 54.359 46.616C54.103 46.3173 53.975 45.976 53.975 45.592L54.039 45.208L67.991 4.312C68.1617 3.75733 68.4817 3.26667 68.951 2.84C69.4203 2.41333 70.0603 2.2 70.871 2.2H88.663C89.4737 2.2 90.1137 2.41333 90.583 2.84C91.0523 3.26667 91.3723 3.75733 91.543 4.312L105.495 45.208L105.559 45.592C105.559 45.976 105.41 46.3173 105.111 46.616C104.855 46.872 104.535 47 104.151 47H92.055C90.6897 47 89.7297 46.2747 89.175 44.824L87.575 40.344H71.959L70.359 44.824ZM79.767 14.552L75.223 27.864H84.311L79.767 14.552ZM157.358 45.016C157.443 45.1867 157.486 45.3787 157.486 45.592C157.486 45.976 157.337 46.3173 157.038 46.616C156.782 46.872 156.462 47 156.078 47H141.55C140.953 47 140.398 46.8507 139.886 46.552C139.417 46.2533 139.075 45.8693 138.862 45.4L133.23 32.728H127.854V45.272C127.854 45.7413 127.683 46.1467 127.342 46.488C127.001 46.8293 126.595 47 126.126 47H112.302C111.833 47 111.427 46.8293 111.086 46.488C110.745 46.1467 110.574 45.7413 110.574 45.272V3.928C110.574 3.45867 110.745 3.05333 111.086 2.712C111.427 2.37066 111.833 2.2 112.302 2.2H137.198C141.038 2.2 144.387 2.81866 147.246 4.056C150.147 5.29333 152.366 7.08533 153.902 9.432C155.438 11.7787 156.206 14.5307 156.206 17.688C156.206 23.4907 153.966 27.6933 149.486 30.296L157.358 45.016ZM135.854 20.888C136.793 20.888 137.518 20.5893 138.03 19.992C138.542 19.352 138.798 18.5627 138.798 17.624C138.798 16.6853 138.542 15.8747 138.03 15.192C137.561 14.4667 136.835 14.104 135.854 14.104H127.854V20.888H135.854ZM209.733 45.016C209.818 45.1867 209.861 45.3787 209.861 45.592C209.861 45.976 209.712 46.3173 209.413 46.616C209.157 46.872 208.837 47 208.453 47H193.925C193.328 47 192.773 46.8507 192.261 46.552C191.792 46.2533 191.45 45.8693 191.237 45.4L185.605 32.728H180.229V45.272C180.229 45.7413 180.058 46.1467 179.717 46.488C179.376 46.8293 178.97 47 178.501 47H164.677C164.208 47 163.802 46.8293 163.461 46.488C163.12 46.1467 162.949 45.7413 162.949 45.272V3.928C162.949 3.45867 163.12 3.05333 163.461 2.712C163.802 2.37066 164.208 2.2 164.677 2.2H189.573C193.413 2.2 196.762 2.81866 199.621 4.056C202.522 5.29333 204.741 7.08533 206.277 9.432C207.813 11.7787 208.581 14.5307 208.581 17.688C208.581 23.4907 206.341 27.6933 201.861 30.296L209.733 45.016ZM188.229 20.888C189.168 20.888 189.893 20.5893 190.405 19.992C190.917 19.352 191.173 18.5627 191.173 17.624C191.173 16.6853 190.917 15.8747 190.405 15.192C189.936 14.4667 189.21 14.104 188.229 14.104H180.229V20.888H188.229ZM227.484 44.824C226.929 46.2747 225.969 47 224.604 47H212.508C212.124 47 211.783 46.872 211.484 46.616C211.228 46.3173 211.1 45.976 211.1 45.592L211.164 45.208L225.116 4.312C225.287 3.75733 225.607 3.26667 226.076 2.84C226.545 2.41333 227.185 2.2 227.996 2.2H245.788C246.599 2.2 247.239 2.41333 247.708 2.84C248.177 3.26667 248.497 3.75733 248.668 4.312L262.62 45.208L262.684 45.592C262.684 45.976 262.535 46.3173 262.236 46.616C261.98 46.872 261.66 47 261.276 47H249.18C247.815 47 246.855 46.2747 246.3 44.824L244.7 40.344H229.084L227.484 44.824ZM236.892 14.552L232.348 27.864H241.436L236.892 14.552ZM309.107 2.2C309.576 2.2 309.982 2.37066 310.323 2.712C310.664 3.05333 310.835 3.45867 310.835 3.928V45.272C310.835 45.7413 310.664 46.1467 310.323 46.488C309.982 46.8293 309.576 47 309.107 47H298.803C297.779 47 296.926 46.552 296.243 45.656L282.291 27.864V45.272C282.291 45.7413 282.12 46.1467 281.779 46.488C281.438 46.8293 281.032 47 280.563 47H268.659C268.19 47 267.784 46.8293 267.443 46.488C267.102 46.1467 266.931 45.7413 266.931 45.272V3.928C266.931 3.45867 267.102 3.05333 267.443 2.712C267.784 2.37066 268.19 2.2 268.659 2.2H279.027C280.051 2.2 280.883 2.62666 281.523 3.48L295.475 22.744V3.928C295.475 3.45867 295.646 3.05333 295.987 2.712C296.328 2.37066 296.734 2.2 297.203 2.2H309.107ZM363.53 2.2C363.999 2.2 364.405 2.37066 364.746 2.712C365.087 3.05333 365.258 3.45867 365.258 3.928V14.232C365.258 14.7013 365.087 15.1067 364.746 15.448C364.405 15.7893 363.999 15.96 363.53 15.96H349.77V45.272C349.77 45.7413 349.599 46.1467 349.258 46.488C348.917 46.8293 348.511 47 348.042 47H334.858C334.389 47 333.983 46.8293 333.642 46.488C333.301 46.1467 333.13 45.7413 333.13 45.272V15.96H319.37C318.901 15.96 318.495 15.7893 318.154 15.448C317.813 15.1067 317.642 14.7013 317.642 14.232V3.928C317.642 3.45867 317.813 3.05333 318.154 2.712C318.495 2.37066 318.901 2.2 319.37 2.2H363.53ZM417.249 2.2C417.633 2.2 417.953 2.34933 418.209 2.648C418.508 2.904 418.657 3.20266 418.657 3.544C418.657 3.8 418.593 4.056 418.465 4.312L402.337 31V45.272C402.337 45.7413 402.166 46.1467 401.825 46.488C401.484 46.8293 401.078 47 400.609 47H386.977C386.508 47 386.102 46.8293 385.761 46.488C385.42 46.1467 385.249 45.7413 385.249 45.272V31L369.185 4.312C369.057 4.056 368.993 3.82133 368.993 3.608C368.993 3.224 369.121 2.904 369.377 2.648C369.676 2.34933 370.017 2.2 370.401 2.2H383.905C385.1 2.2 385.974 2.69066 386.529 3.672L393.761 16.344L401.185 3.8C401.825 2.73333 402.721 2.2 403.873 2.2H417.249ZM492.687 29.72C492.687 31.4693 493.263 32.8133 494.415 33.752C495.61 34.6907 497.21 35.16 499.215 35.16C501.007 35.16 502.33 34.8613 503.183 34.264C504.036 33.6667 504.762 32.7707 505.359 31.576C505.914 30.4667 506.66 29.912 507.599 29.912H521.423C521.807 29.912 522.127 30.0613 522.383 30.36C522.682 30.616 522.831 30.936 522.831 31.32C522.831 33.9227 521.956 36.4827 520.207 39C518.458 41.4747 515.791 43.544 512.207 45.208C508.666 46.8293 504.335 47.64 499.215 47.64C494.65 47.64 490.575 46.9573 486.991 45.592C483.45 44.184 480.634 42.0507 478.543 39.192C476.452 36.2907 475.407 32.6853 475.407 28.376V20.824C475.407 16.5147 476.452 12.9307 478.543 10.072C480.634 7.17066 483.45 5.03733 486.991 3.672C490.575 2.264 494.65 1.56 499.215 1.56C504.335 1.56 508.666 2.392 512.207 4.056C515.791 5.67733 518.458 7.74667 520.207 10.264C521.956 12.7387 522.831 15.2773 522.831 17.88C522.831 18.264 522.682 18.6053 522.383 18.904C522.127 19.16 521.807 19.288 521.423 19.288H507.599C506.66 19.288 505.914 18.7333 505.359 17.624C504.762 16.4293 504.036 15.5333 503.183 14.936C502.33 14.3387 501.007 14.04 499.215 14.04C497.21 14.04 495.61 14.5093 494.415 15.448C493.263 16.3867 492.687 17.7307 492.687 19.48V29.72ZM572.262 2.2C572.731 2.2 573.137 2.37066 573.478 2.712C573.819 3.05333 573.99 3.45867 573.99 3.928V45.272C573.99 45.7413 573.819 46.1467 573.478 46.488C573.137 46.8293 572.731 47 572.262 47H559.078C558.609 47 558.203 46.8293 557.862 46.488C557.521 46.1467 557.35 45.7413 557.35 45.272V31.64H544.55V45.272C544.55 45.7413 544.379 46.1467 544.038 46.488C543.697 46.8293 543.291 47 542.822 47H529.638C529.169 47 528.763 46.8507 528.422 46.552C528.081 46.2107 527.91 45.784 527.91 45.272V3.928C527.91 3.45867 528.081 3.05333 528.422 2.712C528.763 2.37066 529.169 2.2 529.638 2.2H542.822C543.291 2.2 543.697 2.37066 544.038 2.712C544.379 3.05333 544.55 3.45867 544.55 3.928V17.048H557.35V3.928C557.35 3.45867 557.521 3.05333 557.862 2.712C558.203 2.37066 558.609 2.2 559.078 2.2H572.262ZM624.061 34.52C624.53 34.52 624.936 34.6907 625.277 35.032C625.618 35.3733 625.789 35.7787 625.789 36.248V45.272C625.789 45.7413 625.618 46.1467 625.277 46.488C624.936 46.8293 624.53 47 624.061 47H583.613C583.144 47 582.738 46.8293 582.397 46.488C582.056 46.1467 581.885 45.7413 581.885 45.272V3.928C581.885 3.45867 582.056 3.05333 582.397 2.712C582.738 2.37066 583.144 2.2 583.613 2.2H623.421C623.89 2.2 624.296 2.37066 624.637 2.712C624.978 3.05333 625.149 3.45867 625.149 3.928V12.952C625.149 13.4213 624.978 13.8267 624.637 14.168C624.296 14.5093 623.89 14.68 623.421 14.68H598.525V18.712H619.901C620.37 18.712 620.776 18.8827 621.117 19.224C621.458 19.5653 621.629 19.9707 621.629 20.44V28.76C621.629 29.2293 621.458 29.6347 621.117 29.976C620.776 30.3173 620.37 30.488 619.901 30.488H598.525V34.52H624.061ZM649.812 29.72C649.812 31.4693 650.388 32.8133 651.54 33.752C652.735 34.6907 654.335 35.16 656.34 35.16C658.132 35.16 659.455 34.8613 660.308 34.264C661.161 33.6667 661.887 32.7707 662.484 31.576C663.039 30.4667 663.785 29.912 664.724 29.912H678.548C678.932 29.912 679.252 30.0613 679.508 30.36C679.807 30.616 679.956 30.936 679.956 31.32C679.956 33.9227 679.081 36.4827 677.332 39C675.583 41.4747 672.916 43.544 669.332 45.208C665.791 46.8293 661.46 47.64 656.34 47.64C651.775 47.64 647.7 46.9573 644.116 45.592C640.575 44.184 637.759 42.0507 635.668 39.192C633.577 36.2907 632.532 32.6853 632.532 28.376V20.824C632.532 16.5147 633.577 12.9307 635.668 10.072C637.759 7.17066 640.575 5.03733 644.116 3.672C647.7 2.264 651.775 1.56 656.34 1.56C661.46 1.56 665.791 2.392 669.332 4.056C672.916 5.67733 675.583 7.74667 677.332 10.264C679.081 12.7387 679.956 15.2773 679.956 17.88C679.956 18.264 679.807 18.6053 679.508 18.904C679.252 19.16 678.932 19.288 678.548 19.288H664.724C663.785 19.288 663.039 18.7333 662.484 17.624C661.887 16.4293 661.161 15.5333 660.308 14.936C659.455 14.3387 658.132 14.04 656.34 14.04C654.335 14.04 652.735 14.5093 651.54 15.448C650.388 16.3867 649.812 17.7307 649.812 19.48V29.72ZM734.507 44.76C734.678 45.016 734.763 45.2933 734.763 45.592C734.763 45.976 734.614 46.3173 734.315 46.616C734.059 46.872 733.739 47 733.355 47H716.843C715.862 47 715.094 46.6587 714.539 45.976L703.403 32.216V45.272C703.403 45.7413 703.232 46.1467 702.891 46.488C702.55 46.8293 702.144 47 701.675 47H688.491C688.022 47 687.616 46.8293 687.275 46.488C686.934 46.1467 686.763 45.7413 686.763 45.272V3.928C686.763 3.45867 686.934 3.05333 687.275 2.712C687.616 2.37066 688.022 2.2 688.491 2.2H701.675C702.144 2.2 702.55 2.37066 702.891 2.712C703.232 3.05333 703.403 3.45867 703.403 3.928V15.96L713.515 3.288C714.155 2.56266 714.944 2.2 715.883 2.2H731.307C731.691 2.2 732.011 2.34933 732.267 2.648C732.566 2.904 732.715 3.224 732.715 3.608C732.715 3.94933 732.608 4.248 732.395 4.504L717.227 23L734.507 44.76Z"/>
</mask>
<path d="M21.568 45.272C21.44 45.656 21.12 46.04 20.608 46.424C20.1387 46.808 19.52 47 18.752 47H9.792C8.98133 47 8.29867 46.7653 7.744 46.296C7.232 45.784 6.93333 45.208 6.848 44.568L1.28 3.8V3.608C1.28 3.224 1.408 2.904 1.664 2.648C1.96267 2.34933 2.304 2.2 2.688 2.2H13.696C14.5493 2.2 15.232 2.456 15.744 2.968C16.2987 3.48 16.6187 4.12 16.704 4.888L18.752 24.472L22.464 14.296C22.592 13.8693 22.8907 13.464 23.36 13.08C23.872 12.6533 24.512 12.44 25.28 12.44H29.632C30.4 12.44 31.0187 12.6533 31.488 13.08C32 13.464 32.32 13.8693 32.448 14.296L36.16 24.472L38.208 4.888C38.2933 4.12 38.592 3.48 39.104 2.968C39.6587 2.456 40.3627 2.2 41.216 2.2H52.224C52.608 2.2 52.928 2.34933 53.184 2.648C53.4827 2.904 53.632 3.224 53.632 3.608V3.8L48.064 44.568C47.9787 45.208 47.6587 45.784 47.104 46.296C46.592 46.7653 45.9307 47 45.12 47H36.16C35.392 47 34.752 46.808 34.24 46.424C33.7707 46.04 33.472 45.656 33.344 45.272L27.456 31.768L21.568 45.272ZM70.359 44.824C69.8043 46.2747 68.8443 47 67.479 47H55.383C54.999 47 54.6577 46.872 54.359 46.616C54.103 46.3173 53.975 45.976 53.975 45.592L54.039 45.208L67.991 4.312C68.1617 3.75733 68.4817 3.26667 68.951 2.84C69.4203 2.41333 70.0603 2.2 70.871 2.2H88.663C89.4737 2.2 90.1137 2.41333 90.583 2.84C91.0523 3.26667 91.3723 3.75733 91.543 4.312L105.495 45.208L105.559 45.592C105.559 45.976 105.41 46.3173 105.111 46.616C104.855 46.872 104.535 47 104.151 47H92.055C90.6897 47 89.7297 46.2747 89.175 44.824L87.575 40.344H71.959L70.359 44.824ZM79.767 14.552L75.223 27.864H84.311L79.767 14.552ZM157.358 45.016C157.443 45.1867 157.486 45.3787 157.486 45.592C157.486 45.976 157.337 46.3173 157.038 46.616C156.782 46.872 156.462 47 156.078 47H141.55C140.953 47 140.398 46.8507 139.886 46.552C139.417 46.2533 139.075 45.8693 138.862 45.4L133.23 32.728H127.854V45.272C127.854 45.7413 127.683 46.1467 127.342 46.488C127.001 46.8293 126.595 47 126.126 47H112.302C111.833 47 111.427 46.8293 111.086 46.488C110.745 46.1467 110.574 45.7413 110.574 45.272V3.928C110.574 3.45867 110.745 3.05333 111.086 2.712C111.427 2.37066 111.833 2.2 112.302 2.2H137.198C141.038 2.2 144.387 2.81866 147.246 4.056C150.147 5.29333 152.366 7.08533 153.902 9.432C155.438 11.7787 156.206 14.5307 156.206 17.688C156.206 23.4907 153.966 27.6933 149.486 30.296L157.358 45.016ZM135.854 20.888C136.793 20.888 137.518 20.5893 138.03 19.992C138.542 19.352 138.798 18.5627 138.798 17.624C138.798 16.6853 138.542 15.8747 138.03 15.192C137.561 14.4667 136.835 14.104 135.854 14.104H127.854V20.888H135.854ZM209.733 45.016C209.818 45.1867 209.861 45.3787 209.861 45.592C209.861 45.976 209.712 46.3173 209.413 46.616C209.157 46.872 208.837 47 208.453 47H193.925C193.328 47 192.773 46.8507 192.261 46.552C191.792 46.2533 191.45 45.8693 191.237 45.4L185.605 32.728H180.229V45.272C180.229 45.7413 180.058 46.1467 179.717 46.488C179.376 46.8293 178.97 47 178.501 47H164.677C164.208 47 163.802 46.8293 163.461 46.488C163.12 46.1467 162.949 45.7413 162.949 45.272V3.928C162.949 3.45867 163.12 3.05333 163.461 2.712C163.802 2.37066 164.208 2.2 164.677 2.2H189.573C193.413 2.2 196.762 2.81866 199.621 4.056C202.522 5.29333 204.741 7.08533 206.277 9.432C207.813 11.7787 208.581 14.5307 208.581 17.688C208.581 23.4907 206.341 27.6933 201.861 30.296L209.733 45.016ZM188.229 20.888C189.168 20.888 189.893 20.5893 190.405 19.992C190.917 19.352 191.173 18.5627 191.173 17.624C191.173 16.6853 190.917 15.8747 190.405 15.192C189.936 14.4667 189.21 14.104 188.229 14.104H180.229V20.888H188.229ZM227.484 44.824C226.929 46.2747 225.969 47 224.604 47H212.508C212.124 47 211.783 46.872 211.484 46.616C211.228 46.3173 211.1 45.976 211.1 45.592L211.164 45.208L225.116 4.312C225.287 3.75733 225.607 3.26667 226.076 2.84C226.545 2.41333 227.185 2.2 227.996 2.2H245.788C246.599 2.2 247.239 2.41333 247.708 2.84C248.177 3.26667 248.497 3.75733 248.668 4.312L262.62 45.208L262.684 45.592C262.684 45.976 262.535 46.3173 262.236 46.616C261.98 46.872 261.66 47 261.276 47H249.18C247.815 47 246.855 46.2747 246.3 44.824L244.7 40.344H229.084L227.484 44.824ZM236.892 14.552L232.348 27.864H241.436L236.892 14.552ZM309.107 2.2C309.576 2.2 309.982 2.37066 310.323 2.712C310.664 3.05333 310.835 3.45867 310.835 3.928V45.272C310.835 45.7413 310.664 46.1467 310.323 46.488C309.982 46.8293 309.576 47 309.107 47H298.803C297.779 47 296.926 46.552 296.243 45.656L282.291 27.864V45.272C282.291 45.7413 282.12 46.1467 281.779 46.488C281.438 46.8293 281.032 47 280.563 47H268.659C268.19 47 267.784 46.8293 267.443 46.488C267.102 46.1467 266.931 45.7413 266.931 45.272V3.928C266.931 3.45867 267.102 3.05333 267.443 2.712C267.784 2.37066 268.19 2.2 268.659 2.2H279.027C280.051 2.2 280.883 2.62666 281.523 3.48L295.475 22.744V3.928C295.475 3.45867 295.646 3.05333 295.987 2.712C296.328 2.37066 296.734 2.2 297.203 2.2H309.107ZM363.53 2.2C363.999 2.2 364.405 2.37066 364.746 2.712C365.087 3.05333 365.258 3.45867 365.258 3.928V14.232C365.258 14.7013 365.087 15.1067 364.746 15.448C364.405 15.7893 363.999 15.96 363.53 15.96H349.77V45.272C349.77 45.7413 349.599 46.1467 349.258 46.488C348.917 46.8293 348.511 47 348.042 47H334.858C334.389 47 333.983 46.8293 333.642 46.488C333.301 46.1467 333.13 45.7413 333.13 45.272V15.96H319.37C318.901 15.96 318.495 15.7893 318.154 15.448C317.813 15.1067 317.642 14.7013 317.642 14.232V3.928C317.642 3.45867 317.813 3.05333 318.154 2.712C318.495 2.37066 318.901 2.2 319.37 2.2H363.53ZM417.249 2.2C417.633 2.2 417.953 2.34933 418.209 2.648C418.508 2.904 418.657 3.20266 418.657 3.544C418.657 3.8 418.593 4.056 418.465 4.312L402.337 31V45.272C402.337 45.7413 402.166 46.1467 401.825 46.488C401.484 46.8293 401.078 47 400.609 47H386.977C386.508 47 386.102 46.8293 385.761 46.488C385.42 46.1467 385.249 45.7413 385.249 45.272V31L369.185 4.312C369.057 4.056 368.993 3.82133 368.993 3.608C368.993 3.224 369.121 2.904 369.377 2.648C369.676 2.34933 370.017 2.2 370.401 2.2H383.905C385.1 2.2 385.974 2.69066 386.529 3.672L393.761 16.344L401.185 3.8C401.825 2.73333 402.721 2.2 403.873 2.2H417.249ZM492.687 29.72C492.687 31.4693 493.263 32.8133 494.415 33.752C495.61 34.6907 497.21 35.16 499.215 35.16C501.007 35.16 502.33 34.8613 503.183 34.264C504.036 33.6667 504.762 32.7707 505.359 31.576C505.914 30.4667 506.66 29.912 507.599 29.912H521.423C521.807 29.912 522.127 30.0613 522.383 30.36C522.682 30.616 522.831 30.936 522.831 31.32C522.831 33.9227 521.956 36.4827 520.207 39C518.458 41.4747 515.791 43.544 512.207 45.208C508.666 46.8293 504.335 47.64 499.215 47.64C494.65 47.64 490.575 46.9573 486.991 45.592C483.45 44.184 480.634 42.0507 478.543 39.192C476.452 36.2907 475.407 32.6853 475.407 28.376V20.824C475.407 16.5147 476.452 12.9307 478.543 10.072C480.634 7.17066 483.45 5.03733 486.991 3.672C490.575 2.264 494.65 1.56 499.215 1.56C504.335 1.56 508.666 2.392 512.207 4.056C515.791 5.67733 518.458 7.74667 520.207 10.264C521.956 12.7387 522.831 15.2773 522.831 17.88C522.831 18.264 522.682 18.6053 522.383 18.904C522.127 19.16 521.807 19.288 521.423 19.288H507.599C506.66 19.288 505.914 18.7333 505.359 17.624C504.762 16.4293 504.036 15.5333 503.183 14.936C502.33 14.3387 501.007 14.04 499.215 14.04C497.21 14.04 495.61 14.5093 494.415 15.448C493.263 16.3867 492.687 17.7307 492.687 19.48V29.72ZM572.262 2.2C572.731 2.2 573.137 2.37066 573.478 2.712C573.819 3.05333 573.99 3.45867 573.99 3.928V45.272C573.99 45.7413 573.819 46.1467 573.478 46.488C573.137 46.8293 572.731 47 572.262 47H559.078C558.609 47 558.203 46.8293 557.862 46.488C557.521 46.1467 557.35 45.7413 557.35 45.272V31.64H544.55V45.272C544.55 45.7413 544.379 46.1467 544.038 46.488C543.697 46.8293 543.291 47 542.822 47H529.638C529.169 47 528.763 46.8507 528.422 46.552C528.081 46.2107 527.91 45.784 527.91 45.272V3.928C527.91 3.45867 528.081 3.05333 528.422 2.712C528.763 2.37066 529.169 2.2 529.638 2.2H542.822C543.291 2.2 543.697 2.37066 544.038 2.712C544.379 3.05333 544.55 3.45867 544.55 3.928V17.048H557.35V3.928C557.35 3.45867 557.521 3.05333 557.862 2.712C558.203 2.37066 558.609 2.2 559.078 2.2H572.262ZM624.061 34.52C624.53 34.52 624.936 34.6907 625.277 35.032C625.618 35.3733 625.789 35.7787 625.789 36.248V45.272C625.789 45.7413 625.618 46.1467 625.277 46.488C624.936 46.8293 624.53 47 624.061 47H583.613C583.144 47 582.738 46.8293 582.397 46.488C582.056 46.1467 581.885 45.7413 581.885 45.272V3.928C581.885 3.45867 582.056 3.05333 582.397 2.712C582.738 2.37066 583.144 2.2 583.613 2.2H623.421C623.89 2.2 624.296 2.37066 624.637 2.712C624.978 3.05333 625.149 3.45867 625.149 3.928V12.952C625.149 13.4213 624.978 13.8267 624.637 14.168C624.296 14.5093 623.89 14.68 623.421 14.68H598.525V18.712H619.901C620.37 18.712 620.776 18.8827 621.117 19.224C621.458 19.5653 621.629 19.9707 621.629 20.44V28.76C621.629 29.2293 621.458 29.6347 621.117 29.976C620.776 30.3173 620.37 30.488 619.901 30.488H598.525V34.52H624.061ZM649.812 29.72C649.812 31.4693 650.388 32.8133 651.54 33.752C652.735 34.6907 654.335 35.16 656.34 35.16C658.132 35.16 659.455 34.8613 660.308 34.264C661.161 33.6667 661.887 32.7707 662.484 31.576C663.039 30.4667 663.785 29.912 664.724 29.912H678.548C678.932 29.912 679.252 30.0613 679.508 30.36C679.807 30.616 679.956 30.936 679.956 31.32C679.956 33.9227 679.081 36.4827 677.332 39C675.583 41.4747 672.916 43.544 669.332 45.208C665.791 46.8293 661.46 47.64 656.34 47.64C651.775 47.64 647.7 46.9573 644.116 45.592C640.575 44.184 637.759 42.0507 635.668 39.192C633.577 36.2907 632.532 32.6853 632.532 28.376V20.824C632.532 16.5147 633.577 12.9307 635.668 10.072C637.759 7.17066 640.575 5.03733 644.116 3.672C647.7 2.264 651.775 1.56 656.34 1.56C661.46 1.56 665.791 2.392 669.332 4.056C672.916 5.67733 675.583 7.74667 677.332 10.264C679.081 12.7387 679.956 15.2773 679.956 17.88C679.956 18.264 679.807 18.6053 679.508 18.904C679.252 19.16 678.932 19.288 678.548 19.288H664.724C663.785 19.288 663.039 18.7333 662.484 17.624C661.887 16.4293 661.161 15.5333 660.308 14.936C659.455 14.3387 658.132 14.04 656.34 14.04C654.335 14.04 652.735 14.5093 651.54 15.448C650.388 16.3867 649.812 17.7307 649.812 19.48V29.72ZM734.507 44.76C734.678 45.016 734.763 45.2933 734.763 45.592C734.763 45.976 734.614 46.3173 734.315 46.616C734.059 46.872 733.739 47 733.355 47H716.843C715.862 47 715.094 46.6587 714.539 45.976L703.403 32.216V45.272C703.403 45.7413 703.232 46.1467 702.891 46.488C702.55 46.8293 702.144 47 701.675 47H688.491C688.022 47 687.616 46.8293 687.275 46.488C686.934 46.1467 686.763 45.7413 686.763 45.272V3.928C686.763 3.45867 686.934 3.05333 687.275 2.712C687.616 2.37066 688.022 2.2 688.491 2.2H701.675C702.144 2.2 702.55 2.37066 702.891 2.712C703.232 3.05333 703.403 3.45867 703.403 3.928V15.96L713.515 3.288C714.155 2.56266 714.944 2.2 715.883 2.2H731.307C731.691 2.2 732.011 2.34933 732.267 2.648C732.566 2.904 732.715 3.224 732.715 3.608C732.715 3.94933 732.608 4.248 732.395 4.504L717.227 23L734.507 44.76Z" fill="url(#paint0_linear_321_2851)"/>
<path d="M21.568 45.272L20.6513 44.8723L20.6335 44.9133L20.6193 44.9558L21.568 45.272ZM20.608 46.424L20.008 45.624L19.9911 45.6367L19.9748 45.65L20.608 46.424ZM7.744 46.296L7.03689 47.0031L7.06631 47.0325L7.09806 47.0594L7.744 46.296ZM6.848 44.568L7.83923 44.4358L7.8388 44.4327L6.848 44.568ZM1.28 3.8H0.28V3.86797L0.289198 3.93532L1.28 3.8ZM1.664 2.648L2.37111 3.35511L2.37111 3.3551L1.664 2.648ZM15.744 2.968L15.0369 3.6751L15.051 3.68924L15.0657 3.7028L15.744 2.968ZM16.704 4.888L17.6986 4.78399L17.6979 4.77757L16.704 4.888ZM18.752 24.472L17.7574 24.576L19.6914 24.8147L18.752 24.472ZM22.464 14.296L23.4034 14.6387L23.4134 14.6113L23.4218 14.5833L22.464 14.296ZM23.36 13.08L23.9933 13.854L24.0002 13.8482L23.36 13.08ZM31.488 13.08L30.8153 13.8199L30.8502 13.8517L30.888 13.88L31.488 13.08ZM32.448 14.296L31.4902 14.5833L31.4986 14.6113L31.5086 14.6387L32.448 14.296ZM36.16 24.472L35.2206 24.8147L37.1546 24.576L36.16 24.472ZM38.208 4.888L37.2141 4.77756L37.2134 4.78399L38.208 4.888ZM39.104 2.968L38.4257 2.2332L38.411 2.24676L38.3969 2.26089L39.104 2.968ZM53.184 2.648L52.4247 3.29879L52.4748 3.35719L52.5332 3.40726L53.184 2.648ZM53.632 3.8L54.6228 3.93532L54.632 3.86797V3.8H53.632ZM48.064 44.568L47.0732 44.4327L47.0728 44.4358L48.064 44.568ZM47.104 46.296L47.7797 47.0332L47.7823 47.0308L47.104 46.296ZM34.24 46.424L33.6068 47.198L33.6231 47.2113L33.64 47.224L34.24 46.424ZM33.344 45.272L34.2927 44.9558L34.2785 44.9133L34.2607 44.8723L33.344 45.272ZM27.456 31.768L28.3727 31.3683L27.456 29.266L26.5393 31.3683L27.456 31.768ZM20.6193 44.9558C20.5831 45.0643 20.4445 45.2966 20.008 45.624L21.208 47.224C21.7955 46.7834 22.2969 46.2477 22.5167 45.5882L20.6193 44.9558ZM19.9748 45.65C19.7273 45.8525 19.352 46 18.752 46V48C19.688 48 20.55 47.7635 21.2412 47.198L19.9748 45.65ZM18.752 46H9.792V48H18.752V46ZM9.792 46C9.18863 46 8.74293 45.8313 8.38994 45.5326L7.09806 47.0594C7.8544 47.6994 8.77403 48 9.792 48V46ZM8.45111 45.5889C8.07453 45.2123 7.89204 44.8319 7.83923 44.4358L5.85677 44.7002C5.97463 45.5841 6.38947 46.3557 7.03689 47.0031L8.45111 45.5889ZM7.8388 44.4327L2.2708 3.66468L0.289198 3.93532L5.8572 44.7033L7.8388 44.4327ZM2.28 3.8V3.608H0.28V3.8H2.28ZM2.28 3.608C2.28 3.47136 2.3149 3.41131 2.37111 3.35511L0.956894 1.94089C0.501098 2.39669 0.28 2.97664 0.28 3.608H2.28ZM2.37111 3.3551C2.50283 3.22338 2.59699 3.2 2.688 3.2V1.2C2.01101 1.2 1.4225 1.47528 0.956892 1.94089L2.37111 3.3551ZM2.688 3.2H13.696V1.2H2.688V3.2ZM13.696 3.2C14.3351 3.2 14.7456 3.38384 15.0369 3.6751L16.4511 2.26089C15.7184 1.52816 14.7636 1.2 13.696 1.2V3.2ZM15.0657 3.7028C15.4389 4.04727 15.6507 4.46355 15.7101 4.99843L17.6979 4.77757C17.5866 3.77645 17.1584 2.91272 16.4223 2.23319L15.0657 3.7028ZM15.7094 4.992L17.7574 24.576L19.7466 24.368L17.6986 4.78399L15.7094 4.992ZM19.6914 24.8147L23.4034 14.6387L21.5246 13.9533L17.8126 24.1293L19.6914 24.8147ZM23.4218 14.5833C23.4753 14.4053 23.6239 14.1562 23.9932 13.854L22.7268 12.306C22.1575 12.7718 21.7087 13.3334 21.5062 14.0086L23.4218 14.5833ZM24.0002 13.8482C24.3056 13.5937 24.7083 13.44 25.28 13.44V11.44C24.3157 11.44 23.4384 11.7129 22.7198 12.3118L24.0002 13.8482ZM25.28 13.44H29.632V11.44H25.28V13.44ZM29.632 13.44C30.2064 13.44 30.5672 13.5943 30.8153 13.8199L32.1607 12.3401C31.4702 11.7123 30.5936 11.44 29.632 11.44V13.44ZM30.888 13.88C31.301 14.1898 31.4452 14.4335 31.4902 14.5833L33.4058 14.0086C33.1948 13.3052 32.699 12.7382 32.088 12.28L30.888 13.88ZM31.5086 14.6387L35.2206 24.8147L37.0994 24.1293L33.3875 13.9533L31.5086 14.6387ZM37.1546 24.576L39.2026 4.992L37.2134 4.78399L35.1654 24.368L37.1546 24.576ZM39.2019 4.99843C39.264 4.43984 39.4709 4.01534 39.8111 3.67511L38.3969 2.26089C37.7131 2.94466 37.3227 3.80015 37.2141 4.77756L39.2019 4.99843ZM39.7823 3.7028C40.1278 3.38385 40.5787 3.2 41.216 3.2V1.2C40.1466 1.2 39.1895 1.52815 38.4257 2.2332L39.7823 3.7028ZM41.216 3.2H52.224V1.2H41.216V3.2ZM52.224 3.2C52.308 3.2 52.3534 3.21555 52.4247 3.29879L53.9433 1.99721C53.5026 1.48311 52.908 1.2 52.224 1.2V3.2ZM52.5332 3.40726C52.6164 3.4786 52.632 3.52401 52.632 3.608H54.632C54.632 2.92399 54.3489 2.3294 53.8348 1.88874L52.5332 3.40726ZM52.632 3.608V3.8H54.632V3.608H52.632ZM52.6412 3.66468L47.0732 44.4327L49.0548 44.7033L54.6228 3.93532L52.6412 3.66468ZM47.0728 44.4358C47.0233 44.8066 46.8394 45.1793 46.4257 45.5612L47.7823 47.0308C48.4779 46.3887 48.934 45.6094 49.0552 44.7002L47.0728 44.4358ZM46.4283 45.5588C46.1311 45.8312 45.725 46 45.12 46V48C46.1363 48 47.0529 47.6994 47.7797 47.0332L46.4283 45.5588ZM45.12 46H36.16V48H45.12V46ZM36.16 46C35.5639 46 35.1464 45.8538 34.84 45.624L33.64 47.224C34.3576 47.7622 35.2201 48 36.16 48V46ZM34.8732 45.65C34.4822 45.3301 34.3381 45.0922 34.2927 44.9558L32.3953 45.5882C32.6059 46.2198 33.0592 46.7499 33.6068 47.198L34.8732 45.65ZM34.2607 44.8723L28.3727 31.3683L26.5393 32.1677L32.4273 45.6717L34.2607 44.8723ZM26.5393 31.3683L20.6513 44.8723L22.4847 45.6717L28.3727 32.1677L26.5393 31.3683ZM70.359 44.824L71.2931 45.1811L71.297 45.1708L71.3007 45.1603L70.359 44.824ZM54.359 46.616L53.5997 47.2668L53.6498 47.3252L53.7082 47.3753L54.359 46.616ZM53.975 45.592L52.9886 45.4276L52.975 45.5092V45.592H53.975ZM54.039 45.208L53.0926 44.8851L53.0661 44.9627L53.0526 45.0436L54.039 45.208ZM67.991 4.312L68.9374 4.63488L68.9423 4.62055L68.9468 4.60608L67.991 4.312ZM68.951 2.84L68.2783 2.10006V2.10006L68.951 2.84ZM90.583 2.84L91.2557 2.10006V2.10006L90.583 2.84ZM91.543 4.312L90.5872 4.60608L90.5917 4.62055L90.5966 4.63488L91.543 4.312ZM105.495 45.208L106.481 45.0436L106.468 44.9627L106.441 44.8851L105.495 45.208ZM105.559 45.592H106.559V45.5092L106.545 45.4276L105.559 45.592ZM105.111 46.616L105.818 47.3231L105.818 47.3231L105.111 46.616ZM89.175 44.824L88.2333 45.1603L88.237 45.1708L88.241 45.1811L89.175 44.824ZM87.575 40.344L88.5167 40.0077L88.2797 39.344H87.575V40.344ZM71.959 40.344V39.344H71.2543L71.0173 40.0077L71.959 40.344ZM79.767 14.552L80.7134 14.229L79.767 11.4564L78.8206 14.229L79.767 14.552ZM75.223 27.864L74.2766 27.541L73.825 28.864H75.223V27.864ZM84.311 27.864V28.864H85.709L85.2574 27.541L84.311 27.864ZM69.4249 44.4669C69.1954 45.0673 68.9129 45.4369 68.6202 45.6581C68.3368 45.8723 67.9748 46 67.479 46V48C68.3486 48 69.1492 47.7651 69.8258 47.2539C70.4931 46.7497 70.968 46.0314 71.2931 45.1811L69.4249 44.4669ZM67.479 46H55.383V48H67.479V46ZM55.383 46C55.244 46 55.1321 45.9615 55.0098 45.8567L53.7082 47.3753C54.1833 47.7825 54.754 48 55.383 48V46ZM55.1183 45.9652C55.0135 45.8429 54.975 45.731 54.975 45.592H52.975C52.975 46.221 53.1925 46.7917 53.5997 47.2668L55.1183 45.9652ZM54.9614 45.7564L55.0254 45.3724L53.0526 45.0436L52.9886 45.4276L54.9614 45.7564ZM54.9854 45.5309L68.9374 4.63488L67.0446 3.98911L53.0926 44.8851L54.9854 45.5309ZM68.9468 4.60608C69.0599 4.23843 69.2742 3.8976 69.6237 3.57994L68.2783 2.10006C67.6891 2.63573 67.2634 3.27623 67.0352 4.01791L68.9468 4.60608ZM69.6237 3.57994C69.8621 3.36317 70.2376 3.2 70.871 3.2V1.2C69.8831 1.2 68.9786 1.46349 68.2783 2.10006L69.6237 3.57994ZM70.871 3.2H88.663V1.2H70.871V3.2ZM88.663 3.2C89.2964 3.2 89.6719 3.36317 89.9103 3.57994L91.2557 2.10006C90.5555 1.46349 89.6509 1.2 88.663 1.2V3.2ZM89.9103 3.57994C90.2598 3.8976 90.4741 4.23843 90.5872 4.60608L92.4988 4.01791C92.2706 3.27623 91.8449 2.63573 91.2557 2.10006L89.9103 3.57994ZM90.5966 4.63488L104.549 45.5309L106.441 44.8851L92.4894 3.98911L90.5966 4.63488ZM104.509 45.3724L104.573 45.7564L106.545 45.4276L106.481 45.0436L104.509 45.3724ZM104.559 45.592C104.559 45.683 104.536 45.7772 104.404 45.9089L105.818 47.3231C106.284 46.8575 106.559 46.269 106.559 45.592H104.559ZM104.404 45.9089C104.348 45.9651 104.288 46 104.151 46V48C104.782 48 105.362 47.7789 105.818 47.3231L104.404 45.9089ZM104.151 46H92.055V48H104.151V46ZM92.055 46C91.5592 46 91.1972 45.8723 90.9138 45.6581C90.6211 45.4369 90.3386 45.0673 90.1091 44.4669L88.241 45.1811C88.566 46.0314 89.0409 46.7497 89.7082 47.2539C90.3848 47.7651 91.1854 48 92.055 48V46ZM90.1167 44.4877L88.5167 40.0077L86.6333 40.6803L88.2333 45.1603L90.1167 44.4877ZM87.575 39.344H71.959V41.344H87.575V39.344ZM71.0173 40.0077L69.4173 44.4877L71.3007 45.1603L72.9007 40.6803L71.0173 40.0077ZM78.8206 14.229L74.2766 27.541L76.1694 28.187L80.7134 14.875L78.8206 14.229ZM75.223 28.864H84.311V26.864H75.223V28.864ZM85.2574 27.541L80.7134 14.229L78.8206 14.875L83.3646 28.187L85.2574 27.541ZM157.358 45.016L158.252 44.5688L158.246 44.5565L158.24 44.5444L157.358 45.016ZM157.038 46.616L156.331 45.9089L156.331 45.9089L157.038 46.616ZM139.886 46.552L139.349 47.3957L139.365 47.406L139.382 47.4158L139.886 46.552ZM138.862 45.4L137.948 45.8062L137.952 45.8138L138.862 45.4ZM133.23 32.728L134.144 32.3219L133.88 31.728H133.23V32.728ZM127.854 32.728V31.728H126.854V32.728H127.854ZM127.342 46.488L126.635 45.7809L127.342 46.488ZM147.246 4.056L146.849 4.97374L146.854 4.97584L147.246 4.056ZM153.902 9.432L153.065 9.97966L153.902 9.432ZM149.486 30.296L148.984 29.4313L148.149 29.9163L148.604 30.7676L149.486 30.296ZM138.03 19.992L138.789 20.6428L138.8 20.6299L138.811 20.6167L138.03 19.992ZM138.03 15.192L137.19 15.7353L137.209 15.7643L137.23 15.792L138.03 15.192ZM127.854 14.104V13.104H126.854V14.104H127.854ZM127.854 20.888H126.854V21.888H127.854V20.888ZM156.464 45.4632C156.472 45.4794 156.486 45.5154 156.486 45.592H158.486C158.486 45.2419 158.415 44.894 158.252 44.5688L156.464 45.4632ZM156.486 45.592C156.486 45.683 156.463 45.7772 156.331 45.9089L157.745 47.3231C158.211 46.8575 158.486 46.269 158.486 45.592H156.486ZM156.331 45.9089C156.275 45.9651 156.215 46 156.078 46V48C156.709 48 157.289 47.7789 157.745 47.3231L156.331 45.9089ZM156.078 46H141.55V48H156.078V46ZM141.55 46C141.128 46 140.748 45.897 140.39 45.6882L139.382 47.4158C140.048 47.8044 140.777 48 141.55 48V46ZM140.423 45.7083C140.104 45.5051 139.899 45.265 139.772 44.9862L137.952 45.8138C138.252 46.4736 138.73 47.0015 139.349 47.3957L140.423 45.7083ZM139.776 44.9939L134.144 32.3219L132.316 33.1341L137.948 45.8061L139.776 44.9939ZM133.23 31.728H127.854V33.728H133.23V31.728ZM126.854 32.728V45.272H128.854V32.728H126.854ZM126.854 45.272C126.854 45.4678 126.795 45.6211 126.635 45.7809L128.049 47.1951C128.572 46.6722 128.854 46.0149 128.854 45.272H126.854ZM126.635 45.7809C126.475 45.9407 126.322 46 126.126 46V48C126.869 48 127.526 47.718 128.049 47.1951L126.635 45.7809ZM126.126 46H112.302V48H126.126V46ZM112.302 46C112.106 46 111.953 45.9407 111.793 45.7809L110.379 47.1951C110.902 47.718 111.559 48 112.302 48V46ZM111.793 45.7809C111.633 45.6211 111.574 45.4678 111.574 45.272H109.574C109.574 46.0149 109.856 46.6722 110.379 47.1951L111.793 45.7809ZM111.574 45.272V3.928H109.574V45.272H111.574ZM111.574 3.928C111.574 3.73223 111.633 3.57889 111.793 3.4191L110.379 2.00489C109.856 2.52778 109.574 3.1851 109.574 3.928H111.574ZM111.793 3.4191C111.953 3.25932 112.106 3.2 112.302 3.2V1.2C111.559 1.2 110.902 1.48201 110.379 2.00489L111.793 3.4191ZM112.302 3.2H137.198V1.2H112.302V3.2ZM137.198 3.2C140.932 3.2 144.141 3.80173 146.849 4.97372L147.643 3.13828C144.634 1.8356 141.144 1.2 137.198 1.2V3.2ZM146.854 4.97584C149.597 6.1457 151.651 7.8183 153.065 9.97966L154.739 8.88434C153.081 6.35236 150.698 4.44096 147.638 3.13616L146.854 4.97584ZM153.065 9.97966C154.482 12.1436 155.206 14.7 155.206 17.688H157.206C157.206 14.3614 156.394 11.4137 154.739 8.88434L153.065 9.97966ZM155.206 17.688C155.206 23.1859 153.114 27.0321 148.984 29.4313L149.988 31.1607C154.818 28.3546 157.206 23.7955 157.206 17.688H155.206ZM148.604 30.7676L156.476 45.4876L158.24 44.5444L150.368 29.8244L148.604 30.7676ZM135.854 21.888C137.023 21.888 138.05 21.5049 138.789 20.6428L137.271 19.3412C136.986 19.6738 136.563 19.888 135.854 19.888V21.888ZM138.811 20.6167C139.485 19.7741 139.798 18.755 139.798 17.624H137.798C137.798 18.3703 137.599 18.9299 137.249 19.3673L138.811 20.6167ZM139.798 17.624C139.798 16.4918 139.485 15.4652 138.83 14.592L137.23 15.792C137.599 16.2841 137.798 16.8789 137.798 17.624H139.798ZM138.87 14.6487C138.188 13.5959 137.12 13.104 135.854 13.104V15.104C136.55 15.104 136.933 15.3374 137.19 15.7353L138.87 14.6487ZM135.854 13.104H127.854V15.104H135.854V13.104ZM126.854 14.104V20.888H128.854V14.104H126.854ZM127.854 21.888H135.854V19.888H127.854V21.888ZM209.733 45.016L210.627 44.5688L210.621 44.5565L210.615 44.5444L209.733 45.016ZM209.413 46.616L208.706 45.9089L208.706 45.9089L209.413 46.616ZM192.261 46.552L191.724 47.3957L191.74 47.406L191.757 47.4158L192.261 46.552ZM191.237 45.4L190.323 45.8062L190.327 45.8138L191.237 45.4ZM185.605 32.728L186.519 32.3219L186.255 31.728H185.605V32.728ZM180.229 32.728V31.728H179.229V32.728H180.229ZM179.717 46.488L179.01 45.7809L179.717 46.488ZM199.621 4.056L199.224 4.97374L199.229 4.97584L199.621 4.056ZM206.277 9.432L205.44 9.97966L206.277 9.432ZM201.861 30.296L201.359 29.4313L200.524 29.9163L200.979 30.7676L201.861 30.296ZM190.405 19.992L191.164 20.6428L191.175 20.6299L191.186 20.6167L190.405 19.992ZM190.405 15.192L189.565 15.7353L189.584 15.7643L189.605 15.792L190.405 15.192ZM180.229 14.104V13.104H179.229V14.104H180.229ZM180.229 20.888H179.229V21.888H180.229V20.888ZM208.839 45.4632C208.847 45.4794 208.861 45.5154 208.861 45.592H210.861C210.861 45.2419 210.79 44.894 210.627 44.5688L208.839 45.4632ZM208.861 45.592C208.861 45.683 208.838 45.7772 208.706 45.9089L210.12 47.3231C210.586 46.8575 210.861 46.269 210.861 45.592H208.861ZM208.706 45.9089C208.65 45.9651 208.59 46 208.453 46V48C209.084 48 209.664 47.7789 210.12 47.3231L208.706 45.9089ZM208.453 46H193.925V48H208.453V46ZM193.925 46C193.503 46 193.123 45.897 192.765 45.6882L191.757 47.4158C192.423 47.8044 193.152 48 193.925 48V46ZM192.798 45.7083C192.479 45.5051 192.274 45.265 192.147 44.9862L190.327 45.8138C190.627 46.4736 191.105 47.0015 191.724 47.3957L192.798 45.7083ZM192.151 44.9939L186.519 32.3219L184.691 33.1341L190.323 45.8061L192.151 44.9939ZM185.605 31.728H180.229V33.728H185.605V31.728ZM179.229 32.728V45.272H181.229V32.728H179.229ZM179.229 45.272C179.229 45.4678 179.17 45.6211 179.01 45.7809L180.424 47.1951C180.947 46.6722 181.229 46.0149 181.229 45.272H179.229ZM179.01 45.7809C178.85 45.9407 178.697 46 178.501 46V48C179.244 48 179.901 47.718 180.424 47.1951L179.01 45.7809ZM178.501 46H164.677V48H178.501V46ZM164.677 46C164.481 46 164.328 45.9407 164.168 45.7809L162.754 47.1951C163.277 47.718 163.934 48 164.677 48V46ZM164.168 45.7809C164.008 45.6211 163.949 45.4678 163.949 45.272H161.949C161.949 46.0149 162.231 46.6722 162.754 47.1951L164.168 45.7809ZM163.949 45.272V3.928H161.949V45.272H163.949ZM163.949 3.928C163.949 3.73223 164.008 3.57889 164.168 3.4191L162.754 2.00489C162.231 2.52778 161.949 3.1851 161.949 3.928H163.949ZM164.168 3.4191C164.328 3.25932 164.481 3.2 164.677 3.2V1.2C163.934 1.2 163.277 1.48201 162.754 2.00489L164.168 3.4191ZM164.677 3.2H189.573V1.2H164.677V3.2ZM189.573 3.2C193.307 3.2 196.516 3.80173 199.224 4.97372L200.018 3.13828C197.009 1.8356 193.519 1.2 189.573 1.2V3.2ZM199.229 4.97584C201.972 6.1457 204.026 7.8183 205.44 9.97966L207.114 8.88434C205.456 6.35236 203.073 4.44096 200.013 3.13616L199.229 4.97584ZM205.44 9.97966C206.857 12.1436 207.581 14.7 207.581 17.688H209.581C209.581 14.3614 208.769 11.4137 207.114 8.88434L205.44 9.97966ZM207.581 17.688C207.581 23.1859 205.489 27.0321 201.359 29.4313L202.363 31.1607C207.193 28.3546 209.581 23.7955 209.581 17.688H207.581ZM200.979 30.7676L208.851 45.4876L210.615 44.5444L202.743 29.8244L200.979 30.7676ZM188.229 21.888C189.398 21.888 190.425 21.5049 191.164 20.6428L189.646 19.3412C189.361 19.6738 188.938 19.888 188.229 19.888V21.888ZM191.186 20.6167C191.86 19.7741 192.173 18.755 192.173 17.624H190.173C190.173 18.3703 189.974 18.9299 189.624 19.3673L191.186 20.6167ZM192.173 17.624C192.173 16.4918 191.86 15.4652 191.205 14.592L189.605 15.792C189.974 16.2841 190.173 16.8789 190.173 17.624H192.173ZM191.245 14.6487C190.563 13.5959 189.495 13.104 188.229 13.104V15.104C188.925 15.104 189.308 15.3374 189.565 15.7353L191.245 14.6487ZM188.229 13.104H180.229V15.104H188.229V13.104ZM179.229 14.104V20.888H181.229V14.104H179.229ZM180.229 21.888H188.229V19.888H180.229V21.888ZM227.484 44.824L228.418 45.1811L228.422 45.1708L228.426 45.1603L227.484 44.824ZM211.484 46.616L210.725 47.2668L210.775 47.3252L210.833 47.3753L211.484 46.616ZM211.1 45.592L210.114 45.4276L210.1 45.5092V45.592H211.1ZM211.164 45.208L210.218 44.8851L210.191 44.9627L210.178 45.0436L211.164 45.208ZM225.116 4.312L226.062 4.63488L226.067 4.62055L226.072 4.60608L225.116 4.312ZM226.076 2.84L225.403 2.10006L225.403 2.10006L226.076 2.84ZM247.708 2.84L248.381 2.10006V2.10006L247.708 2.84ZM248.668 4.312L247.712 4.60608L247.717 4.62055L247.722 4.63488L248.668 4.312ZM262.62 45.208L263.606 45.0436L263.593 44.9627L263.566 44.8851L262.62 45.208ZM262.684 45.592H263.684V45.5092L263.67 45.4276L262.684 45.592ZM262.236 46.616L262.943 47.3231V47.3231L262.236 46.616ZM246.3 44.824L245.358 45.1603L245.362 45.1708L245.366 45.1811L246.3 44.824ZM244.7 40.344L245.642 40.0077L245.405 39.344H244.7V40.344ZM229.084 40.344V39.344H228.379L228.142 40.0077L229.084 40.344ZM236.892 14.552L237.838 14.229L236.892 11.4564L235.946 14.229L236.892 14.552ZM232.348 27.864L231.402 27.541L230.95 28.864H232.348V27.864ZM241.436 27.864V28.864H242.834L242.382 27.541L241.436 27.864ZM226.55 44.4669C226.32 45.0673 226.038 45.4369 225.745 45.6581C225.462 45.8723 225.1 46 224.604 46V48C225.474 48 226.274 47.7651 226.951 47.2539C227.618 46.7497 228.093 46.0314 228.418 45.1811L226.55 44.4669ZM224.604 46H212.508V48H224.604V46ZM212.508 46C212.369 46 212.257 45.9615 212.135 45.8567L210.833 47.3753C211.308 47.7825 211.879 48 212.508 48V46ZM212.243 45.9652C212.138 45.8429 212.1 45.731 212.1 45.592H210.1C210.1 46.221 210.318 46.7917 210.725 47.2668L212.243 45.9652ZM212.086 45.7564L212.15 45.3724L210.178 45.0436L210.114 45.4276L212.086 45.7564ZM212.11 45.5309L226.062 4.63488L224.17 3.98911L210.218 44.8851L212.11 45.5309ZM226.072 4.60608C226.185 4.23843 226.399 3.8976 226.749 3.57994L225.403 2.10006C224.814 2.63573 224.388 3.27623 224.16 4.01791L226.072 4.60608ZM226.749 3.57994C226.987 3.36317 227.363 3.2 227.996 3.2V1.2C227.008 1.2 226.104 1.46349 225.403 2.10006L226.749 3.57994ZM227.996 3.2H245.788V1.2H227.996V3.2ZM245.788 3.2C246.421 3.2 246.797 3.36317 247.035 3.57994L248.381 2.10006C247.68 1.46349 246.776 1.2 245.788 1.2V3.2ZM247.035 3.57994C247.385 3.8976 247.599 4.23843 247.712 4.60608L249.624 4.01791C249.396 3.27623 248.97 2.63573 248.381 2.10006L247.035 3.57994ZM247.722 4.63488L261.674 45.5309L263.566 44.8851L249.614 3.98911L247.722 4.63488ZM261.634 45.3724L261.698 45.7564L263.67 45.4276L263.606 45.0436L261.634 45.3724ZM261.684 45.592C261.684 45.683 261.661 45.7772 261.529 45.9089L262.943 47.3231C263.409 46.8575 263.684 46.269 263.684 45.592H261.684ZM261.529 45.9089C261.473 45.9651 261.413 46 261.276 46V48C261.907 48 262.487 47.7789 262.943 47.3231L261.529 45.9089ZM261.276 46H249.18V48H261.276V46ZM249.18 46C248.684 46 248.322 45.8723 248.039 45.6581C247.746 45.4369 247.464 45.0673 247.234 44.4669L245.366 45.1811C245.691 46.0314 246.166 46.7497 246.833 47.2539C247.51 47.7651 248.31 48 249.18 48V46ZM247.242 44.4877L245.642 40.0077L243.758 40.6803L245.358 45.1603L247.242 44.4877ZM244.7 39.344H229.084V41.344H244.7V39.344ZM228.142 40.0077L226.542 44.4877L228.426 45.1603L230.026 40.6803L228.142 40.0077ZM235.946 14.229L231.402 27.541L233.294 28.187L237.838 14.875L235.946 14.229ZM232.348 28.864H241.436V26.864H232.348V28.864ZM242.382 27.541L237.838 14.229L235.946 14.875L240.49 28.187L242.382 27.541ZM296.243 45.656L297.039 45.0499L297.03 45.0389L296.243 45.656ZM282.291 27.864L283.078 27.2469L281.291 24.9682V27.864H282.291ZM281.779 46.488L282.486 47.1951L281.779 46.488ZM281.523 3.48L282.333 2.89343L282.328 2.88667L282.323 2.88L281.523 3.48ZM295.475 22.744L294.665 23.3306L296.475 25.8296V22.744H295.475ZM295.987 2.712L296.694 3.41911V3.4191L295.987 2.712ZM309.107 3.2C309.303 3.2 309.456 3.25932 309.616 3.41911L311.03 2.00489C310.507 1.48201 309.85 1.2 309.107 1.2V3.2ZM309.616 3.41911C309.776 3.57889 309.835 3.73223 309.835 3.928H311.835C311.835 3.1851 311.553 2.52778 311.03 2.00489L309.616 3.41911ZM309.835 3.928V45.272H311.835V3.928H309.835ZM309.835 45.272C309.835 45.4678 309.776 45.6211 309.616 45.7809L311.03 47.1951C311.553 46.6722 311.835 46.0149 311.835 45.272H309.835ZM309.616 45.7809C309.456 45.9407 309.303 46 309.107 46V48C309.85 48 310.507 47.718 311.03 47.1951L309.616 45.7809ZM309.107 46H298.803V48H309.107V46ZM298.803 46C298.125 46 297.554 45.7263 297.038 45.05L295.448 46.262C296.298 47.3777 297.433 48 298.803 48V46ZM297.03 45.0389L283.078 27.2469L281.504 28.4811L295.456 46.2731L297.03 45.0389ZM281.291 27.864V45.272H283.291V27.864H281.291ZM281.291 45.272C281.291 45.4678 281.232 45.6211 281.072 45.7809L282.486 47.1951C283.009 46.6722 283.291 46.0149 283.291 45.272H281.291ZM281.072 45.7809C280.912 45.9407 280.759 46 280.563 46V48C281.306 48 281.963 47.718 282.486 47.1951L281.072 45.7809ZM280.563 46H268.659V48H280.563V46ZM268.659 46C268.463 46 268.31 45.9407 268.15 45.7809L266.736 47.1951C267.259 47.718 267.916 48 268.659 48V46ZM268.15 45.7809C267.99 45.6211 267.931 45.4678 267.931 45.272H265.931C265.931 46.0149 266.213 46.6722 266.736 47.1951L268.15 45.7809ZM267.931 45.272V3.928H265.931V45.272H267.931ZM267.931 3.928C267.931 3.73223 267.99 3.57889 268.15 3.4191L266.736 2.00489C266.213 2.52778 265.931 3.1851 265.931 3.928H267.931ZM268.15 3.4191C268.31 3.25932 268.463 3.2 268.659 3.2V1.2C267.916 1.2 267.259 1.48201 266.736 2.00489L268.15 3.4191ZM268.659 3.2H279.027V1.2H268.659V3.2ZM279.027 3.2C279.721 3.2 280.263 3.46618 280.723 4.08L282.323 2.88C281.503 1.78715 280.381 1.2 279.027 1.2V3.2ZM280.713 4.06657L294.665 23.3306L296.285 22.1574L282.333 2.89343L280.713 4.06657ZM296.475 22.744V3.928H294.475V22.744H296.475ZM296.475 3.928C296.475 3.73223 296.534 3.57889 296.694 3.41911L295.28 2.00489C294.757 2.52778 294.475 3.1851 294.475 3.928H296.475ZM296.694 3.4191C296.854 3.25932 297.007 3.2 297.203 3.2V1.2C296.46 1.2 295.803 1.48201 295.28 2.00489L296.694 3.4191ZM297.203 3.2H309.107V1.2H297.203V3.2ZM349.77 15.96V14.96H348.77V15.96H349.77ZM349.258 46.488L349.965 47.1951V47.1951L349.258 46.488ZM333.642 46.488L332.935 47.1951L333.642 46.488ZM333.13 15.96H334.13V14.96H333.13V15.96ZM363.53 3.2C363.726 3.2 363.879 3.25932 364.039 3.41911L365.453 2.00489C364.93 1.48201 364.273 1.2 363.53 1.2V3.2ZM364.039 3.41911C364.199 3.57889 364.258 3.73223 364.258 3.928H366.258C366.258 3.1851 365.976 2.52778 365.453 2.00489L364.039 3.41911ZM364.258 3.928V14.232H366.258V3.928H364.258ZM364.258 14.232C364.258 14.4278 364.199 14.5811 364.039 14.7409L365.453 16.1551C365.976 15.6322 366.258 14.9749 366.258 14.232H364.258ZM364.039 14.7409C363.879 14.9007 363.726 14.96 363.53 14.96V16.96C364.273 16.96 364.93 16.678 365.453 16.1551L364.039 14.7409ZM363.53 14.96H349.77V16.96H363.53V14.96ZM348.77 15.96V45.272H350.77V15.96H348.77ZM348.77 45.272C348.77 45.4678 348.711 45.6211 348.551 45.7809L349.965 47.1951C350.488 46.6722 350.77 46.0149 350.77 45.272H348.77ZM348.551 45.7809C348.391 45.9407 348.238 46 348.042 46V48C348.785 48 349.442 47.718 349.965 47.1951L348.551 45.7809ZM348.042 46H334.858V48H348.042V46ZM334.858 46C334.662 46 334.509 45.9407 334.349 45.7809L332.935 47.1951C333.458 47.718 334.115 48 334.858 48V46ZM334.349 45.7809C334.189 45.6211 334.13 45.4678 334.13 45.272H332.13C332.13 46.0149 332.412 46.6722 332.935 47.1951L334.349 45.7809ZM334.13 45.272V15.96H332.13V45.272H334.13ZM333.13 14.96H319.37V16.96H333.13V14.96ZM319.37 14.96C319.174 14.96 319.021 14.9007 318.861 14.7409L317.447 16.1551C317.97 16.678 318.627 16.96 319.37 16.96V14.96ZM318.861 14.7409C318.701 14.5811 318.642 14.4278 318.642 14.232H316.642C316.642 14.9749 316.924 15.6322 317.447 16.1551L318.861 14.7409ZM318.642 14.232V3.928H316.642V14.232H318.642ZM318.642 3.928C318.642 3.73223 318.701 3.57889 318.861 3.4191L317.447 2.00489C316.924 2.52778 316.642 3.1851 316.642 3.928H318.642ZM318.861 3.4191C319.021 3.25932 319.174 3.2 319.37 3.2V1.2C318.627 1.2 317.97 1.48201 317.447 2.00489L318.861 3.4191ZM319.37 3.2H363.53V1.2H319.37V3.2ZM418.209 2.648L417.45 3.29879L417.5 3.35719L417.558 3.40726L418.209 2.648ZM418.465 4.312L419.321 4.82921L419.342 4.79498L419.359 4.75921L418.465 4.312ZM402.337 31L401.481 30.4828L401.337 30.7213V31H402.337ZM401.825 46.488L401.118 45.7809V45.7809L401.825 46.488ZM385.761 46.488L386.468 45.7809L385.761 46.488ZM385.249 31H386.249V30.7223L386.106 30.4843L385.249 31ZM369.185 4.312L368.291 4.75921L368.308 4.79419L368.328 4.8277L369.185 4.312ZM369.377 2.648L370.084 3.35511V3.3551L369.377 2.648ZM386.529 3.672L385.658 4.16406L385.66 4.16766L386.529 3.672ZM393.761 16.344L392.892 16.8397L393.745 18.3339L394.622 16.8533L393.761 16.344ZM401.185 3.8L400.327 3.2855L400.324 3.29068L401.185 3.8ZM417.249 3.2C417.333 3.2 417.378 3.21556 417.45 3.29879L418.968 1.99721C418.528 1.48311 417.933 1.2 417.249 1.2V3.2ZM417.558 3.40726C417.624 3.46372 417.645 3.50035 417.651 3.51121C417.654 3.51853 417.657 3.52501 417.657 3.544H419.657C419.657 2.86465 419.343 2.30253 418.86 1.88874L417.558 3.40726ZM417.657 3.544C417.657 3.62724 417.637 3.73107 417.571 3.86479L419.359 4.75921C419.549 4.38092 419.657 3.97276 419.657 3.544H417.657ZM417.609 3.79479L401.481 30.4828L403.193 31.5172L419.321 4.82921L417.609 3.79479ZM401.337 31V45.272H403.337V31H401.337ZM401.337 45.272C401.337 45.4678 401.278 45.6211 401.118 45.7809L402.532 47.1951C403.055 46.6722 403.337 46.0149 403.337 45.272H401.337ZM401.118 45.7809C400.958 45.9407 400.805 46 400.609 46V48C401.352 48 402.009 47.718 402.532 47.1951L401.118 45.7809ZM400.609 46H386.977V48H400.609V46ZM386.977 46C386.781 46 386.628 45.9407 386.468 45.7809L385.054 47.1951C385.577 47.718 386.234 48 386.977 48V46ZM386.468 45.7809C386.308 45.6211 386.249 45.4678 386.249 45.272H384.249C384.249 46.0149 384.531 46.6722 385.054 47.1951L386.468 45.7809ZM386.249 45.272V31H384.249V45.272H386.249ZM386.106 30.4843L370.042 3.79629L368.328 4.8277L384.392 31.5157L386.106 30.4843ZM370.079 3.86478C369.998 3.70238 369.993 3.62237 369.993 3.608H367.993C367.993 4.02029 368.116 4.40961 368.291 4.75921L370.079 3.86478ZM369.993 3.608C369.993 3.47136 370.028 3.41131 370.084 3.35511L368.67 1.94089C368.214 2.39669 367.993 2.97664 367.993 3.608H369.993ZM370.084 3.3551C370.216 3.22338 370.31 3.2 370.401 3.2V1.2C369.724 1.2 369.135 1.47528 368.67 1.94089L370.084 3.3551ZM370.401 3.2H383.905V1.2H370.401V3.2ZM383.905 3.2C384.766 3.2 385.294 3.51903 385.658 4.16405L387.4 3.17994C386.655 1.8623 385.434 1.2 383.905 1.2V3.2ZM385.66 4.16766L392.892 16.8397L394.63 15.8483L387.398 3.17633L385.66 4.16766ZM394.622 16.8533L402.046 4.30932L400.324 3.29068L392.9 15.8347L394.622 16.8533ZM402.042 4.31449C402.519 3.51995 403.105 3.2 403.873 3.2V1.2C402.337 1.2 401.131 1.94672 400.328 3.28551L402.042 4.31449ZM403.873 3.2H417.249V1.2H403.873V3.2ZM494.415 33.752L493.783 34.5272L493.79 34.5328L493.797 34.5383L494.415 33.752ZM503.183 34.264L502.61 33.4448V33.4448L503.183 34.264ZM505.359 31.576L504.465 31.1288L505.359 31.576ZM522.383 30.36L521.624 31.0108L521.674 31.0692L521.732 31.1193L522.383 30.36ZM520.207 39L521.024 39.5773L521.028 39.5707L520.207 39ZM512.207 45.208L512.623 46.1173L512.628 46.115L512.207 45.208ZM486.991 45.592L486.622 46.5212L486.628 46.5239L486.635 46.5265L486.991 45.592ZM478.543 39.192L477.732 39.7766L477.736 39.7823L478.543 39.192ZM478.543 10.072L479.35 10.6623L479.354 10.6566L478.543 10.072ZM486.991 3.672L487.351 4.60507L487.357 4.60275L486.991 3.672ZM512.207 4.056L511.782 4.96107L511.788 4.96413L511.795 4.96711L512.207 4.056ZM520.207 10.264L519.386 10.8347L519.39 10.8412L520.207 10.264ZM522.383 18.904L523.09 19.6111V19.6111L522.383 18.904ZM505.359 17.624L504.465 18.0712V18.0712L505.359 17.624ZM503.183 14.936L503.756 14.1168L503.183 14.936ZM494.415 15.448L493.797 14.6617L493.79 14.6672L493.783 14.6728L494.415 15.448ZM491.687 29.72C491.687 31.7106 492.356 33.3641 493.783 34.5272L495.047 32.9768C494.17 32.2626 493.687 31.2281 493.687 29.72H491.687ZM493.797 34.5383C495.217 35.6541 497.057 36.16 499.215 36.16V34.16C497.362 34.16 496.002 33.7273 495.033 32.9657L493.797 34.5383ZM499.215 36.16C501.081 36.16 502.652 35.8561 503.756 35.0832L502.61 33.4448C502.007 33.8666 500.934 34.16 499.215 34.16V36.16ZM503.756 35.0832C504.779 34.3673 505.602 33.3257 506.253 32.0232L504.465 31.1288C503.921 32.2156 503.293 32.966 502.61 33.4448L503.756 35.0832ZM506.253 32.0232C506.703 31.1249 507.163 30.912 507.599 30.912V28.912C506.157 28.912 505.125 29.8084 504.465 31.1288L506.253 32.0232ZM507.599 30.912H521.423V28.912H507.599V30.912ZM521.423 30.912C521.507 30.912 521.552 30.9276 521.624 31.0108L523.142 29.7092C522.702 29.1951 522.107 28.912 521.423 28.912V30.912ZM521.732 31.1193C521.815 31.1906 521.831 31.236 521.831 31.32H523.831C523.831 30.636 523.548 30.0414 523.034 29.6007L521.732 31.1193ZM521.831 31.32C521.831 33.6844 521.04 36.049 519.386 38.4293L521.028 39.5707C522.873 36.9163 523.831 34.1609 523.831 31.32H521.831ZM519.39 38.4228C517.768 40.7179 515.258 42.6888 511.786 44.301L512.628 46.115C516.324 44.3992 519.147 42.2314 521.024 39.5772L519.39 38.4228ZM511.791 44.2988C508.414 45.8446 504.234 46.64 499.215 46.64V48.64C504.436 48.64 508.917 47.8141 512.623 46.1172L511.791 44.2988ZM499.215 46.64C494.749 46.64 490.798 45.9722 487.347 44.6575L486.635 46.5265C490.352 47.9425 494.551 48.64 499.215 48.64V46.64ZM487.36 44.6628C483.98 43.3188 481.321 41.2968 479.35 38.6017L477.736 39.7823C479.946 42.8045 482.919 45.0492 486.622 46.5212L487.36 44.6628ZM479.354 38.6074C477.41 35.9088 476.407 32.5195 476.407 28.376H474.407C474.407 32.8512 475.495 36.6725 477.732 39.7766L479.354 38.6074ZM476.407 28.376V20.824H474.407V28.376H476.407ZM476.407 20.824C476.407 16.6799 477.41 13.3153 479.35 10.6623L477.736 9.48168C475.495 12.546 474.407 16.3494 474.407 20.824H476.407ZM479.354 10.6566C481.324 7.92265 483.979 5.90504 487.351 4.60505L486.631 2.73894C482.92 4.16962 479.943 6.41868 477.732 9.48738L479.354 10.6566ZM487.357 4.60275C490.805 3.24815 494.752 2.56 499.215 2.56V0.559998C494.547 0.559998 490.345 1.27985 486.625 2.74125L487.357 4.60275ZM499.215 2.56C504.231 2.56 508.408 3.37575 511.782 4.96107L512.632 3.15093C508.923 1.40825 504.439 0.559998 499.215 0.559998V2.56ZM511.795 4.96711C515.26 6.5347 517.765 8.50213 519.386 10.8347L521.028 9.69334C519.15 6.99121 516.322 4.81996 512.619 3.14489L511.795 4.96711ZM519.39 10.8412C521.041 13.1757 521.831 15.5166 521.831 17.88H523.831C523.831 15.0381 522.872 12.3016 521.024 9.68676L519.39 10.8412ZM521.831 17.88C521.831 17.971 521.808 18.0652 521.676 18.1969L523.09 19.6111C523.556 19.1455 523.831 18.557 523.831 17.88H521.831ZM521.676 18.1969C521.62 18.2531 521.56 18.288 521.423 18.288V20.288C522.054 20.288 522.634 20.0669 523.09 19.6111L521.676 18.1969ZM521.423 18.288H507.599V20.288H521.423V18.288ZM507.599 18.288C507.163 18.288 506.703 18.0751 506.253 17.1768L504.465 18.0712C505.125 19.3916 506.157 20.288 507.599 20.288V18.288ZM506.253 17.1768C505.602 15.8743 504.779 14.8327 503.756 14.1168L502.61 15.7552C503.293 16.234 503.921 16.9844 504.465 18.0712L506.253 17.1768ZM503.756 14.1168C502.652 13.3439 501.081 13.04 499.215 13.04V15.04C500.934 15.04 502.007 15.3334 502.61 15.7552L503.756 14.1168ZM499.215 13.04C497.057 13.04 495.217 13.5459 493.797 14.6617L495.033 16.2343C496.002 15.4727 497.362 15.04 499.215 15.04V13.04ZM493.783 14.6728C492.356 15.8359 491.687 17.4894 491.687 19.48H493.687C493.687 17.9719 494.17 16.9374 495.047 16.2232L493.783 14.6728ZM491.687 19.48V29.72H493.687V19.48H491.687ZM573.478 2.712L572.771 3.4191V3.41911L573.478 2.712ZM573.478 46.488L572.771 45.7809V45.7809L573.478 46.488ZM557.862 46.488L558.569 45.7809V45.7809L557.862 46.488ZM557.35 31.64H558.35V30.64H557.35V31.64ZM544.55 31.64V30.64H543.55V31.64H544.55ZM544.038 46.488L543.331 45.7809L544.038 46.488ZM528.422 46.552L527.715 47.2591L527.738 47.2826L527.763 47.3046L528.422 46.552ZM528.422 2.712L529.129 3.4191L528.422 2.712ZM544.038 2.712L543.331 3.4191V3.41911L544.038 2.712ZM544.55 17.048H543.55V18.048H544.55V17.048ZM557.35 17.048V18.048H558.35V17.048H557.35ZM557.862 2.712L558.569 3.41911V3.4191L557.862 2.712ZM572.262 3.2C572.458 3.2 572.611 3.25932 572.771 3.4191L574.185 2.00489C573.662 1.48201 573.005 1.2 572.262 1.2V3.2ZM572.771 3.41911C572.931 3.57889 572.99 3.73223 572.99 3.928H574.99C574.99 3.1851 574.708 2.52778 574.185 2.00489L572.771 3.41911ZM572.99 3.928V45.272H574.99V3.928H572.99ZM572.99 45.272C572.99 45.4678 572.931 45.6211 572.771 45.7809L574.185 47.1951C574.708 46.6722 574.99 46.0149 574.99 45.272H572.99ZM572.771 45.7809C572.611 45.9407 572.458 46 572.262 46V48C573.005 48 573.662 47.718 574.185 47.1951L572.771 45.7809ZM572.262 46H559.078V48H572.262V46ZM559.078 46C558.882 46 558.729 45.9407 558.569 45.7809L557.155 47.1951C557.678 47.718 558.335 48 559.078 48V46ZM558.569 45.7809C558.409 45.6211 558.35 45.4678 558.35 45.272H556.35C556.35 46.0149 556.632 46.6722 557.155 47.1951L558.569 45.7809ZM558.35 45.272V31.64H556.35V45.272H558.35ZM557.35 30.64H544.55V32.64H557.35V30.64ZM543.55 31.64V45.272H545.55V31.64H543.55ZM543.55 45.272C543.55 45.4678 543.491 45.6211 543.331 45.7809L544.745 47.1951C545.268 46.6722 545.55 46.0149 545.55 45.272H543.55ZM543.331 45.7809C543.171 45.9407 543.018 46 542.822 46V48C543.565 48 544.222 47.718 544.745 47.1951L543.331 45.7809ZM542.822 46H529.638V48H542.822V46ZM529.638 46C529.402 46 529.233 45.9326 529.081 45.7994L527.763 47.3046C528.294 47.7687 528.936 48 529.638 48V46ZM529.129 45.8449C528.988 45.7034 528.91 45.5366 528.91 45.272H526.91C526.91 46.0314 527.174 46.718 527.715 47.2591L529.129 45.8449ZM528.91 45.272V3.928H526.91V45.272H528.91ZM528.91 3.928C528.91 3.73223 528.969 3.57889 529.129 3.4191L527.715 2.00489C527.192 2.52778 526.91 3.1851 526.91 3.928H528.91ZM529.129 3.4191C529.289 3.25932 529.442 3.2 529.638 3.2V1.2C528.895 1.2 528.238 1.48201 527.715 2.00489L529.129 3.4191ZM529.638 3.2H542.822V1.2H529.638V3.2ZM542.822 3.2C543.018 3.2 543.171 3.25932 543.331 3.4191L544.745 2.00489C544.222 1.48201 543.565 1.2 542.822 1.2V3.2ZM543.331 3.41911C543.491 3.57889 543.55 3.73223 543.55 3.928H545.55C545.55 3.1851 545.268 2.52778 544.745 2.00489L543.331 3.41911ZM543.55 3.928V17.048H545.55V3.928H543.55ZM544.55 18.048H557.35V16.048H544.55V18.048ZM558.35 17.048V3.928H556.35V17.048H558.35ZM558.35 3.928C558.35 3.73223 558.409 3.57889 558.569 3.41911L557.155 2.00489C556.632 2.52778 556.35 3.1851 556.35 3.928H558.35ZM558.569 3.4191C558.729 3.25932 558.882 3.2 559.078 3.2V1.2C558.335 1.2 557.678 1.48201 557.155 2.00489L558.569 3.4191ZM559.078 3.2H572.262V1.2H559.078V3.2ZM625.277 35.032L624.57 35.7391V35.7391L625.277 35.032ZM625.277 46.488L624.57 45.7809V45.7809L625.277 46.488ZM624.637 2.712L623.93 3.4191V3.41911L624.637 2.712ZM624.637 14.168L623.93 13.4609V13.4609L624.637 14.168ZM598.525 14.68V13.68H597.525V14.68H598.525ZM598.525 18.712H597.525V19.712H598.525V18.712ZM621.117 19.224L620.41 19.9311V19.9311L621.117 19.224ZM621.117 29.976L620.41 29.2689V29.2689L621.117 29.976ZM598.525 30.488V29.488H597.525V30.488H598.525ZM598.525 34.52H597.525V35.52H598.525V34.52ZM624.061 35.52C624.257 35.52 624.41 35.5793 624.57 35.7391L625.984 34.3249C625.461 33.802 624.804 33.52 624.061 33.52V35.52ZM624.57 35.7391C624.73 35.8989 624.789 36.0522 624.789 36.248H626.789C626.789 35.5051 626.507 34.8478 625.984 34.3249L624.57 35.7391ZM624.789 36.248V45.272H626.789V36.248H624.789ZM624.789 45.272C624.789 45.4678 624.73 45.6211 624.57 45.7809L625.984 47.1951C626.507 46.6722 626.789 46.0149 626.789 45.272H624.789ZM624.57 45.7809C624.41 45.9407 624.257 46 624.061 46V48C624.804 48 625.461 47.718 625.984 47.1951L624.57 45.7809ZM624.061 46H583.613V48H624.061V46ZM583.613 46C583.417 46 583.264 45.9407 583.104 45.7809L581.69 47.1951C582.213 47.718 582.87 48 583.613 48V46ZM583.104 45.7809C582.944 45.6211 582.885 45.4678 582.885 45.272H580.885C580.885 46.0149 581.167 46.6722 581.69 47.1951L583.104 45.7809ZM582.885 45.272V3.928H580.885V45.272H582.885ZM582.885 3.928C582.885 3.73223 582.944 3.57889 583.104 3.4191L581.69 2.00489C581.167 2.52778 580.885 3.1851 580.885 3.928H582.885ZM583.104 3.4191C583.264 3.25932 583.417 3.2 583.613 3.2V1.2C582.87 1.2 582.213 1.48201 581.69 2.00489L583.104 3.4191ZM583.613 3.2H623.421V1.2H583.613V3.2ZM623.421 3.2C623.617 3.2 623.77 3.25932 623.93 3.4191L625.344 2.00489C624.821 1.48201 624.164 1.2 623.421 1.2V3.2ZM623.93 3.41911C624.09 3.57889 624.149 3.73223 624.149 3.928H626.149C626.149 3.1851 625.867 2.52778 625.344 2.00489L623.93 3.41911ZM624.149 3.928V12.952H626.149V3.928H624.149ZM624.149 12.952C624.149 13.1478 624.09 13.3011 623.93 13.4609L625.344 14.8751C625.867 14.3522 626.149 13.6949 626.149 12.952H624.149ZM623.93 13.4609C623.77 13.6207 623.617 13.68 623.421 13.68V15.68C624.164 15.68 624.821 15.398 625.344 14.8751L623.93 13.4609ZM623.421 13.68H598.525V15.68H623.421V13.68ZM597.525 14.68V18.712H599.525V14.68H597.525ZM598.525 19.712H619.901V17.712H598.525V19.712ZM619.901 19.712C620.097 19.712 620.25 19.7713 620.41 19.9311L621.824 18.5169C621.301 17.994 620.644 17.712 619.901 17.712V19.712ZM620.41 19.9311C620.57 20.0909 620.629 20.2442 620.629 20.44H622.629C622.629 19.6971 622.347 19.0398 621.824 18.5169L620.41 19.9311ZM620.629 20.44V28.76H622.629V20.44H620.629ZM620.629 28.76C620.629 28.9558 620.57 29.1091 620.41 29.2689L621.824 30.6831C622.347 30.1602 622.629 29.5029 622.629 28.76H620.629ZM620.41 29.2689C620.25 29.4287 620.097 29.488 619.901 29.488V31.488C620.644 31.488 621.301 31.206 621.824 30.6831L620.41 29.2689ZM619.901 29.488H598.525V31.488H619.901V29.488ZM597.525 30.488V34.52H599.525V30.488H597.525ZM598.525 35.52H624.061V33.52H598.525V35.52ZM651.54 33.752L650.908 34.5272L650.915 34.5328L650.922 34.5383L651.54 33.752ZM660.308 34.264L659.735 33.4448V33.4448L660.308 34.264ZM662.484 31.576L661.59 31.1288L662.484 31.576ZM679.508 30.36L678.749 31.0108L678.799 31.0692L678.857 31.1193L679.508 30.36ZM677.332 39L678.149 39.5773L678.153 39.5707L677.332 39ZM669.332 45.208L669.748 46.1173L669.753 46.115L669.332 45.208ZM644.116 45.592L643.747 46.5212L643.753 46.5239L643.76 46.5265L644.116 45.592ZM635.668 39.192L634.857 39.7766L634.861 39.7823L635.668 39.192ZM635.668 10.072L636.475 10.6623L636.479 10.6566L635.668 10.072ZM644.116 3.672L644.476 4.60507L644.482 4.60275L644.116 3.672ZM669.332 4.056L668.907 4.96107L668.913 4.96413L668.92 4.96711L669.332 4.056ZM677.332 10.264L676.511 10.8347L676.515 10.8412L677.332 10.264ZM679.508 18.904L680.215 19.6111V19.6111L679.508 18.904ZM662.484 17.624L661.59 18.0712V18.0712L662.484 17.624ZM660.308 14.936L660.881 14.1168L660.308 14.936ZM651.54 15.448L650.922 14.6617L650.915 14.6672L650.908 14.6728L651.54 15.448ZM648.812 29.72C648.812 31.7106 649.481 33.3641 650.908 34.5272L652.172 32.9768C651.295 32.2626 650.812 31.2281 650.812 29.72H648.812ZM650.922 34.5383C652.342 35.6541 654.182 36.16 656.34 36.16V34.16C654.487 34.16 653.127 33.7273 652.158 32.9657L650.922 34.5383ZM656.34 36.16C658.206 36.16 659.777 35.8561 660.881 35.0832L659.735 33.4448C659.132 33.8666 658.058 34.16 656.34 34.16V36.16ZM660.881 35.0832C661.904 34.3673 662.727 33.3257 663.378 32.0232L661.59 31.1288C661.046 32.2156 660.418 32.966 659.735 33.4448L660.881 35.0832ZM663.378 32.0232C663.828 31.1249 664.288 30.912 664.724 30.912V28.912C663.282 28.912 662.25 29.8084 661.59 31.1288L663.378 32.0232ZM664.724 30.912H678.548V28.912H664.724V30.912ZM678.548 30.912C678.632 30.912 678.677 30.9276 678.749 31.0108L680.267 29.7092C679.827 29.1951 679.232 28.912 678.548 28.912V30.912ZM678.857 31.1193C678.94 31.1906 678.956 31.236 678.956 31.32H680.956C680.956 30.636 680.673 30.0414 680.159 29.6007L678.857 31.1193ZM678.956 31.32C678.956 33.6844 678.165 36.049 676.511 38.4293L678.153 39.5707C679.998 36.9163 680.956 34.1609 680.956 31.32H678.956ZM676.515 38.4228C674.893 40.7179 672.383 42.6888 668.911 44.301L669.753 46.115C673.449 44.3992 676.272 42.2314 678.149 39.5772L676.515 38.4228ZM668.916 44.2988C665.539 45.8446 661.359 46.64 656.34 46.64V48.64C661.56 48.64 666.042 47.8141 669.748 46.1172L668.916 44.2988ZM656.34 46.64C651.874 46.64 647.923 45.9722 644.472 44.6575L643.76 46.5265C647.477 47.9425 651.676 48.64 656.34 48.64V46.64ZM644.485 44.6628C641.105 43.3188 638.446 41.2968 636.475 38.6017L634.861 39.7823C637.071 42.8045 640.044 45.0492 643.747 46.5212L644.485 44.6628ZM636.479 38.6074C634.535 35.9088 633.532 32.5195 633.532 28.376H631.532C631.532 32.8512 632.62 36.6725 634.857 39.7766L636.479 38.6074ZM633.532 28.376V20.824H631.532V28.376H633.532ZM633.532 20.824C633.532 16.6799 634.535 13.3153 636.475 10.6623L634.861 9.48168C632.62 12.546 631.532 16.3494 631.532 20.824H633.532ZM636.479 10.6566C638.449 7.92265 641.104 5.90504 644.476 4.60505L643.756 2.73894C640.045 4.16962 637.068 6.41868 634.857 9.48738L636.479 10.6566ZM644.482 4.60275C647.93 3.24815 651.877 2.56 656.34 2.56V0.559998C651.672 0.559998 647.47 1.27985 643.75 2.74125L644.482 4.60275ZM656.34 2.56C661.356 2.56 665.533 3.37575 668.907 4.96107L669.757 3.15093C666.048 1.40825 661.564 0.559998 656.34 0.559998V2.56ZM668.92 4.96711C672.385 6.5347 674.89 8.50213 676.511 10.8347L678.153 9.69334C676.275 6.99121 673.447 4.81996 669.744 3.14489L668.92 4.96711ZM676.515 10.8412C678.166 13.1757 678.956 15.5166 678.956 17.88H680.956C680.956 15.0381 679.997 12.3016 678.149 9.68676L676.515 10.8412ZM678.956 17.88C678.956 17.971 678.933 18.0652 678.801 18.1969L680.215 19.6111C680.681 19.1455 680.956 18.557 680.956 17.88H678.956ZM678.801 18.1969C678.745 18.2531 678.685 18.288 678.548 18.288V20.288C679.179 20.288 679.759 20.0669 680.215 19.6111L678.801 18.1969ZM678.548 18.288H664.724V20.288H678.548V18.288ZM664.724 18.288C664.288 18.288 663.828 18.0751 663.378 17.1768L661.59 18.0712C662.25 19.3916 663.282 20.288 664.724 20.288V18.288ZM663.378 17.1768C662.727 15.8743 661.904 14.8327 660.881 14.1168L659.735 15.7552C660.418 16.234 661.046 16.9844 661.59 18.0712L663.378 17.1768ZM660.881 14.1168C659.777 13.3439 658.206 13.04 656.34 13.04V15.04C658.058 15.04 659.132 15.3334 659.735 15.7552L660.881 14.1168ZM656.34 13.04C654.182 13.04 652.342 13.5459 650.922 14.6617L652.158 16.2343C653.127 15.4727 654.487 15.04 656.34 15.04V13.04ZM650.908 14.6728C649.481 15.8359 648.812 17.4894 648.812 19.48H650.812C650.812 17.9719 651.295 16.9374 652.172 16.2232L650.908 14.6728ZM648.812 19.48V29.72H650.812V19.48H648.812ZM734.507 44.76L735.339 44.2053L735.316 44.1707L735.29 44.1381L734.507 44.76ZM734.315 46.616L733.608 45.9089V45.9089L734.315 46.616ZM714.539 45.976L713.762 46.6051L713.763 46.6066L714.539 45.976ZM703.403 32.216L704.18 31.5869L702.403 29.3908V32.216H703.403ZM702.891 46.488L702.184 45.7809L702.891 46.488ZM687.275 46.488L686.568 47.1951L687.275 46.488ZM687.275 2.712L686.568 2.00489L687.275 2.712ZM702.891 2.712L702.184 3.4191V3.41911L702.891 2.712ZM703.403 15.96H702.403V18.8164L704.185 16.5837L703.403 15.96ZM713.515 3.288L712.765 2.62638L712.749 2.64493L712.733 2.66427L713.515 3.288ZM732.267 2.648L731.508 3.29879L731.558 3.35719L731.616 3.40726L732.267 2.648ZM732.395 4.504L731.627 3.86379L731.622 3.86989L732.395 4.504ZM717.227 23L716.454 22.3659L715.942 22.9899L716.444 23.6219L717.227 23ZM733.675 45.3147C733.74 45.4117 733.763 45.497 733.763 45.592H735.763C735.763 45.0897 735.616 44.6203 735.339 44.2053L733.675 45.3147ZM733.763 45.592C733.763 45.683 733.74 45.7772 733.608 45.9089L735.022 47.3231C735.488 46.8575 735.763 46.269 735.763 45.592H733.763ZM733.608 45.9089C733.552 45.9651 733.492 46 733.355 46V48C733.986 48 734.566 47.7789 735.022 47.3231L733.608 45.9089ZM733.355 46H716.843V48H733.355V46ZM716.843 46C716.123 46 715.656 45.7654 715.315 45.3454L713.763 46.6066C714.531 47.552 715.6 48 716.843 48V46ZM715.316 45.3469L704.18 31.5869L702.626 32.8451L713.762 46.6051L715.316 45.3469ZM702.403 32.216V45.272H704.403V32.216H702.403ZM702.403 45.272C702.403 45.4678 702.344 45.6211 702.184 45.7809L703.598 47.1951C704.121 46.6722 704.403 46.0149 704.403 45.272H702.403ZM702.184 45.7809C702.024 45.9407 701.871 46 701.675 46V48C702.418 48 703.075 47.718 703.598 47.1951L702.184 45.7809ZM701.675 46H688.491V48H701.675V46ZM688.491 46C688.295 46 688.142 45.9407 687.982 45.7809L686.568 47.1951C687.091 47.718 687.748 48 688.491 48V46ZM687.982 45.7809C687.822 45.6211 687.763 45.4678 687.763 45.272H685.763C685.763 46.0149 686.045 46.6722 686.568 47.1951L687.982 45.7809ZM687.763 45.272V3.928H685.763V45.272H687.763ZM687.763 3.928C687.763 3.73223 687.822 3.57889 687.982 3.4191L686.568 2.00489C686.045 2.52778 685.763 3.1851 685.763 3.928H687.763ZM687.982 3.4191C688.142 3.25932 688.295 3.2 688.491 3.2V1.2C687.748 1.2 687.091 1.48201 686.568 2.00489L687.982 3.4191ZM688.491 3.2H701.675V1.2H688.491V3.2ZM701.675 3.2C701.871 3.2 702.024 3.25932 702.184 3.4191L703.598 2.00489C703.075 1.48201 702.418 1.2 701.675 1.2V3.2ZM702.184 3.41911C702.344 3.57889 702.403 3.73223 702.403 3.928H704.403C704.403 3.1851 704.121 2.52778 703.598 2.00489L702.184 3.41911ZM702.403 3.928V15.96H704.403V3.928H702.403ZM704.185 16.5837L714.297 3.91173L712.733 2.66427L702.621 15.3363L704.185 16.5837ZM714.265 3.94962C714.722 3.43193 715.241 3.2 715.883 3.2V1.2C714.648 1.2 713.588 1.6934 712.765 2.62638L714.265 3.94962ZM715.883 3.2H731.307V1.2H715.883V3.2ZM731.307 3.2C731.391 3.2 731.436 3.21555 731.508 3.29879L733.026 1.99721C732.586 1.48311 731.991 1.2 731.307 1.2V3.2ZM731.616 3.40726C731.699 3.4786 731.715 3.52401 731.715 3.608H733.715C733.715 2.92399 733.432 2.3294 732.918 1.88874L731.616 3.40726ZM731.715 3.608C731.715 3.72159 731.686 3.79223 731.627 3.86381L733.163 5.14418C733.53 4.70376 733.715 4.17707 733.715 3.608H731.715ZM731.622 3.86989L716.454 22.3659L718 23.6341L733.168 5.13811L731.622 3.86989ZM716.444 23.6219L733.724 45.3819L735.29 44.1381L718.01 22.3781L716.444 23.6219Z" fill="#313131" mask="url(#path-1-outside-1_321_2851)"/>
<defs>
<linearGradient id="paint0_linear_321_2851" x1="338.421" y1="0.217104" x2="338.421" y2="29.6908" gradientUnits="userSpaceOnUse">
<stop stop-color="#313131"/>
<stop offset="0.471682" stop-color="#535353" stop-opacity="0.479916"/>
<stop offset="1" stop-color="white" stop-opacity="0"/>
</linearGradient>
</defs>
</svg>
