<svg width="55" height="230" viewBox="0 0 55 230" fill="none" xmlns="http://www.w3.org/2000/svg">
<path d="M33.5534 219C33.5534 213.109 38.329 208.333 44.22 208.333C50.1111 208.333 54.8867 213.109 54.8867 219C54.8867 224.891 50.1111 229.667 44.22 229.667C38.329 229.667 33.5534 224.891 33.5534 219ZM0.895709 11C0.895709 5.10896 5.67134 0.333328 11.5624 0.333328C17.4534 0.333328 22.229 5.10896 22.229 11C22.229 16.891 17.4534 21.6667 11.5624 21.6667C5.67134 21.6667 0.895709 16.891 0.895709 11ZM13.5185 11.4164C13.2258 12.7916 12.9413 14.1454 12.665 15.478L8.74834 14.6659C9.02611 13.3262 9.31203 11.9655 9.60621 10.5836L13.5185 11.4164ZM11.1041 23.2229C10.5843 25.8828 10.1004 28.45 9.65114 30.9276L5.71532 30.214C6.16801 27.7175 6.65531 25.1325 7.17838 22.4558L11.1041 23.2229ZM8.31133 38.6699C7.86294 41.4007 7.46214 44.0086 7.10682 46.4991L3.14692 45.9342C3.50648 43.4139 3.91159 40.7782 4.36418 38.0218L8.31133 38.6699ZM6.11966 54.0998C5.79535 56.8974 5.53828 59.5209 5.34426 61.9813L1.35664 61.6669C1.55488 59.1529 1.81689 56.4804 2.14627 53.6392L6.11966 54.0998ZM4.91949 69.8076C4.84488 72.6504 4.87703 75.2117 5.0043 77.5201L1.01036 77.7403C0.87627 75.308 0.843857 72.637 0.920867 69.7027L4.91949 69.8076ZM5.88604 84.9522C6.47104 87.8895 7.28147 90.1519 8.2371 91.9077L4.7238 93.8199C3.53373 91.6335 2.6078 88.9707 1.96308 85.7335L5.88604 84.9522ZM12.8249 96.7551C14.759 97.8709 17.0221 98.4527 19.6083 98.8162L19.0514 102.777C16.2416 102.382 13.3994 101.704 10.826 100.22L12.8249 96.7551ZM27.4039 99.562C30.0742 99.8255 32.8742 100.226 35.591 101.136L34.3199 104.929C32.0318 104.162 29.5855 103.797 27.0111 103.543L27.4039 99.562ZM43.0827 105.537C44.9683 107.301 46.6519 109.559 48.0884 112.442L44.5083 114.226C43.2596 111.72 41.8497 109.861 40.3506 108.459L43.0827 105.537ZM50.9387 120.232C51.5623 122.593 52.0866 125.223 52.5021 128.154L48.5417 128.716C48.145 125.917 47.6494 123.442 47.0713 121.253L50.9387 120.232ZM53.3113 136.167C53.476 138.683 53.5791 141.375 53.616 144.258L49.6163 144.309C49.5802 141.49 49.4796 138.867 49.3198 136.429L53.3113 136.167ZM53.5608 152.157C53.4982 154.655 53.3936 157.275 53.2446 160.023L49.2505 159.807C49.3975 157.094 49.5005 154.513 49.562 152.057L53.5608 152.157ZM52.7018 168.164C52.5084 170.632 52.2836 173.193 52.026 175.848L48.0446 175.462C48.3 172.83 48.5227 170.294 48.714 167.851L52.7018 168.164ZM51.1737 183.926C50.892 186.406 50.5845 188.962 50.2503 191.594L46.2822 191.091C46.6142 188.475 46.9196 185.937 47.1992 183.474L51.1737 183.926ZM49.1668 199.727C48.8244 202.186 48.4606 204.707 48.0749 207.291L44.1187 206.7C44.5026 204.129 44.8645 201.621 45.205 199.175L49.1668 199.727ZM46.8545 215.215C46.6399 216.567 46.4198 217.936 46.194 219.322L42.2461 218.678C42.471 217.298 42.6902 215.935 42.9038 214.588L46.8545 215.215Z" fill="white"/>
</svg>
