<svg width="64" height="155" viewBox="0 0 64 155" fill="none" xmlns="http://www.w3.org/2000/svg">
<path d="M42.3924 144C42.3924 138.109 47.168 133.333 53.059 133.333C58.9501 133.333 63.7257 138.109 63.7257 144C63.7257 149.891 58.9501 154.667 53.059 154.667C47.168 154.667 42.3924 149.891 42.3924 144ZM0.8333 11C0.8333 5.10896 5.60893 0.333328 11.5 0.333328C17.391 0.333328 22.1666 5.10896 22.1666 11C22.1666 16.891 17.391 21.6667 11.5 21.6667C5.60893 21.6667 0.8333 16.891 0.8333 11ZM12.2681 9.15338C13.5753 9.69714 14.8446 10.2345 16.0769 10.7656L14.4936 14.4389C13.2777 13.9148 12.0241 13.3841 10.7318 12.8466L12.2681 9.15338ZM23.1155 13.9182C25.6825 15.1165 28.0532 16.2833 30.2381 17.4212L28.3905 20.9689C26.2629 19.8609 23.9445 18.7196 21.4234 17.5426L23.1155 13.9182ZM37.1774 21.311C39.7084 22.8525 41.8938 24.3483 43.7588 25.8077L41.2937 28.9579C39.5752 27.6131 37.523 26.2049 35.0968 24.7273L37.1774 21.311ZM49.7493 31.7063C51.8277 34.4929 52.8167 37.2783 52.7514 40.0819L48.7525 39.9889C48.7927 38.2632 48.209 36.3315 46.5429 34.0979L49.7493 31.7063ZM49.5319 48.3504C48.0073 50.3997 46.0351 52.3708 43.8515 54.2964L41.2059 51.2963C43.2912 49.4573 45.0335 47.6956 46.3227 45.9628L49.5319 48.3504ZM37.699 59.3281C35.6721 60.9107 33.6113 62.4882 31.5386 64.1358L29.0496 61.0045C31.1373 59.345 33.2532 57.7245 35.2373 56.1753L37.699 59.3281ZM25.6431 69.0787C23.7239 70.8065 21.9187 72.5884 20.3037 74.4464L17.2847 71.8223C19.034 69.8097 20.9619 67.9109 22.9669 66.1059L25.6431 69.0787ZM16.0074 80.4484C14.8143 82.581 13.9268 84.8073 13.4238 87.1548L9.51254 86.3168C10.1102 83.5275 11.1558 80.9276 12.5166 78.4953L16.0074 80.4484ZM13.1008 94.2391C13.3551 96.4455 13.9403 98.794 14.9303 101.302L11.2098 102.771C10.1033 99.9679 9.42481 97.2803 9.1271 94.6971L13.1008 94.2391ZM18.3098 107.942C19.5248 109.911 20.9717 111.964 22.6755 114.105L19.5452 116.596C17.7537 114.344 16.2132 112.161 14.9059 110.043L18.3098 107.942ZM27.7346 119.914C29.3649 121.641 31.1505 123.42 33.1013 125.251L30.3638 128.167C28.359 126.286 26.5156 124.45 24.8253 122.659L27.7346 119.914ZM38.7991 130.343C40.6963 131.963 42.7155 133.621 44.8625 135.318L42.3821 138.457C40.198 136.73 38.1395 135.04 36.2013 133.385L38.7991 130.343ZM50.9484 139.977C52.0152 140.769 53.1087 141.57 54.2292 142.378L51.8889 145.622C50.7539 144.803 49.6455 143.992 48.5635 143.188L50.9484 139.977Z" fill="white"/>
</svg>
