<svg width="58" height="43" viewBox="0 0 58 43" fill="none" xmlns="http://www.w3.org/2000/svg">
<path d="M55.9133 6.1882C54.4974 6.59368 53.021 5.77462 52.6155 4.35878C52.21 2.94294 53.0291 1.46647 54.4449 1.06099C55.8607 0.655505 57.3372 1.47456 57.7427 2.8904C58.1482 4.30624 57.3291 5.78272 55.9133 6.1882ZM3.57392 42.1846C2.15808 42.5901 0.681603 41.771 0.276122 40.3552C-0.12936 38.9393 0.6897 37.4629 2.10554 37.0574C3.52138 36.6519 4.99786 37.471 5.40334 38.8868C5.80882 40.3026 4.98976 41.7791 3.57392 42.1846ZM2.78405 39.1241C4.34098 38.9496 5.68241 38.6841 6.84668 38.3403L7.1299 39.2993C5.90015 39.6625 4.50001 39.9381 2.89541 40.1179L2.78405 39.1241ZM13.3541 33.8219C14.8047 31.7083 15.64 29.1558 16.8259 26.2697L17.7509 26.6498C16.6056 29.4371 15.7087 32.1584 14.1786 34.3878L13.3541 33.8219ZM20.9653 18.7999C22.5008 16.8126 24.4966 14.8402 27.2072 12.9571L27.7777 13.7784C25.1499 15.6039 23.2288 17.5059 21.7567 19.4113L20.9653 18.7999ZM34.6847 8.87389C37.0181 7.86253 39.6694 6.90245 42.6916 6.00846L42.9752 6.96738C39.987 7.85134 37.3742 8.79805 35.0824 9.79141L34.6847 8.87389ZM50.9135 3.94857C52.2497 3.66595 53.6412 3.39369 55.0904 3.13252L55.2678 4.11667C53.828 4.37614 52.4464 4.64648 51.1204 4.92693L50.9135 3.94857Z" fill="#34C81E"/>
</svg>
