<svg width="95" height="211" viewBox="0 0 95 211" fill="none" xmlns="http://www.w3.org/2000/svg">
<path d="M94.1311 200C94.1311 194.109 89.3555 189.333 83.4644 189.333C77.5734 189.333 72.7978 194.109 72.7978 200C72.7978 205.891 77.5734 210.667 83.4644 210.667C89.3555 210.667 94.1311 205.891 94.1311 200ZM21.7862 11C21.7862 5.10896 17.0106 0.333328 11.1196 0.333328C5.22852 0.333328 0.452888 5.10896 0.452888 11C0.452888 16.891 5.22852 21.6667 11.1196 21.6667C17.0106 21.6667 21.7862 16.891 21.7862 11ZM85.4385 200.321C85.6609 198.953 85.868 197.609 86.0601 196.29L82.1019 195.713C81.913 197.01 81.7093 198.332 81.4903 199.679L85.4385 200.321ZM87.0361 188.654C87.3364 185.897 87.5641 183.256 87.7226 180.724L83.7305 180.474C83.576 182.941 83.3537 185.521 83.0596 188.221L87.0361 188.654ZM87.9982 172.876C88.0131 170.118 87.9336 167.507 87.7651 165.034L83.7743 165.306C83.9357 167.674 84.0127 170.186 83.9983 172.854L87.9982 172.876ZM86.8619 157.171C86.3942 154.367 85.7882 151.772 85.0546 149.366L81.2286 150.533C81.9073 152.759 82.4751 155.183 82.9164 157.829L86.8619 157.171ZM82.0678 141.856C80.7835 139.314 79.3172 137.053 77.6966 135.029L74.5745 137.53C76.02 139.335 77.3367 141.362 78.4978 143.66L82.0678 141.856ZM71.9341 129.249C69.8098 127.527 67.5498 126.054 65.2019 124.763L63.2746 128.268C65.4466 129.463 67.5029 130.806 69.4157 132.356L71.9341 129.249ZM57.9712 121.382C55.5345 120.404 53.0464 119.534 50.5543 118.714L49.3041 122.513C51.7528 123.319 54.1531 124.16 56.481 125.094L57.9712 121.382ZM43.1447 116.358C40.6786 115.579 38.2462 114.793 35.866 113.938L34.5142 117.703C36.9699 118.585 39.4624 119.39 41.9397 120.173L43.1447 116.358ZM28.858 111.086C26.5829 110.02 24.41 108.831 22.3671 107.462L20.1403 110.785C22.3824 112.288 24.7386 113.573 27.1609 114.708L28.858 111.086ZM16.7139 102.815C15.0567 101.136 13.5325 99.2381 12.1695 97.0703L8.7832 99.1994C10.3039 101.618 12.01 103.743 13.8666 105.624L16.7139 102.815ZM8.91061 90.5429C8.07392 88.3958 7.353 86.0396 6.76619 83.4463L2.86481 84.329C3.49222 87.1018 4.26949 89.6495 5.18359 91.9953L8.91061 90.5429ZM5.54277 76.0442C5.28082 73.6875 5.10983 71.1736 5.03825 68.4897L1.03968 68.5963C1.11399 71.383 1.29195 74.0092 1.56725 76.4861L5.54277 76.0442ZM5.09263 60.8244C5.18527 58.3894 5.34838 55.8361 5.58627 53.1577L1.60195 52.8038C1.35852 55.5447 1.1909 58.1654 1.09552 60.6723L5.09263 60.8244ZM6.40789 45.6601C6.72597 43.1953 7.10048 40.6369 7.53398 37.9809L3.58622 37.3366C3.14595 40.034 2.76489 42.6366 2.44078 45.1482L6.40789 45.6601ZM8.87064 30.46C9.33781 28.0203 9.85027 25.506 10.4096 22.9146L6.49963 22.0707C5.93404 24.6911 5.41533 27.2359 4.94202 29.7077L8.87064 30.46ZM12.1136 15.3958C12.4187 14.108 12.7346 12.8026 13.0612 11.4794L9.17786 10.5206C8.84823 11.8557 8.52943 13.1733 8.22133 14.4736L12.1136 15.3958Z" fill="white"/>
</svg>
