<svg width="107" height="214" viewBox="0 0 107 214" fill="none" xmlns="http://www.w3.org/2000/svg">
<path d="M8.19891 203C8.19891 197.109 12.9745 192.333 18.8656 192.333C24.7566 192.333 29.5322 197.109 29.5322 203C29.5322 208.891 24.7566 213.667 18.8656 213.667C12.9745 213.667 8.19891 208.891 8.19891 203ZM82.8333 11.5C82.8333 5.60896 87.609 0.833328 93.5 0.833328C99.391 0.833328 104.167 5.60896 104.167 11.5C104.167 17.391 99.391 22.1667 93.5 22.1667C87.609 22.1667 82.8333 17.391 82.8333 11.5ZM17.7057 204.629C16.4697 203.749 15.3077 202.884 14.2176 202.032L16.681 198.88C17.72 199.693 18.8339 200.522 20.0255 201.371L17.7057 204.629ZM7.94807 196.49C5.66206 194.145 3.92645 191.861 2.72924 189.61L6.26078 187.732C7.23626 189.566 8.71693 191.548 10.8123 193.698L7.94807 196.49ZM0.806872 180.651C1.14085 177.659 2.45078 174.899 4.39733 172.319L7.59051 174.728C5.94422 176.91 5.01526 179.007 4.78217 181.095L0.806872 180.651ZM10.435 166.171C12.4269 164.504 14.6681 162.851 17.0952 161.19L19.3536 164.492C16.9957 166.105 14.8651 167.68 13.0015 169.239L10.435 166.171ZM24.0425 156.686C26.2789 155.294 28.6196 153.878 31.0306 152.428L33.0917 155.857C30.6848 157.304 28.3653 158.707 26.1556 160.082L24.0425 156.686ZM38.0051 148.236C40.2812 146.861 42.5954 145.45 44.9292 143.992L47.0483 147.384C44.6916 148.856 42.3591 150.279 40.0734 151.66L38.0051 148.236ZM51.7504 139.617C53.9802 138.144 56.2087 136.623 58.4192 135.047L60.7409 138.304C58.4866 139.911 56.2187 141.459 53.9555 142.954L51.7504 139.617ZM64.8831 130.225C66.9886 128.577 69.0601 126.871 71.0819 125.1L73.7169 128.11C71.6348 129.933 69.5065 131.686 67.3489 133.375L64.8831 130.225ZM76.9458 119.628C78.8312 117.747 80.6523 115.798 82.3942 113.774L85.4257 116.384C83.6132 118.489 81.7228 120.512 79.7712 122.46L76.9458 119.628ZM87.3381 107.517C88.8827 105.375 90.3363 103.156 91.6849 100.854L95.1363 102.876C93.7206 105.293 92.1972 107.618 90.5822 109.857L87.3381 107.517ZM95.3489 93.8078C96.4338 91.431 97.4094 88.9707 98.2628 86.4215L102.056 87.6913C101.157 90.3764 100.13 92.9671 98.9878 95.4688L95.3489 93.8078ZM100.388 78.7547C100.947 76.2337 101.392 73.6305 101.711 70.9407L105.683 71.4121C105.348 74.2337 104.881 76.9687 104.293 79.6207L100.388 78.7547ZM102.272 63.0397C102.337 60.4655 102.292 57.8166 102.129 55.0898L106.122 54.8514C106.292 57.6884 106.339 60.4504 106.271 63.1402L102.272 63.0397ZM101.339 47.1021C100.987 44.5272 100.534 41.8872 99.9752 39.1797L103.893 38.3709C104.469 41.1638 104.937 43.8927 105.302 46.5597L101.339 47.1021ZM98.1369 31.4552C97.4557 28.919 96.6851 26.3272 95.8209 23.6782L99.6237 22.4377C100.509 25.1514 101.3 27.8109 102 30.4176L98.1369 31.4552ZM93.1625 16.1335C92.6779 14.8509 92.1722 13.5557 91.645 12.2476L95.355 10.7524C95.8929 12.087 96.4092 13.4093 96.9043 14.7196L93.1625 16.1335Z" fill="white"/>
</svg>
