<svg width="90" height="55" viewBox="0 0 90 55" fill="none" xmlns="http://www.w3.org/2000/svg">
<path d="M87.2339 6.06365C85.8181 6.46913 84.3416 5.65007 83.9361 4.23423C83.5306 2.81839 84.3497 1.34192 85.7655 0.936438C87.1814 0.530956 88.6579 1.35001 89.0633 2.76585C89.4688 4.1817 88.6498 5.65817 87.2339 6.06365ZM3.43613 54.4C2.02029 54.8055 0.543822 53.9864 0.138341 52.5706C-0.26714 51.1547 0.551912 49.6783 1.96776 49.2728C3.3836 48.8673 4.86007 49.6864 5.26555 51.1022C5.67103 52.518 4.85198 53.9945 3.43613 54.4ZM2.29952 51.5397C3.14469 50.3934 3.9845 49.2834 4.81908 48.2083L5.60901 48.8215C4.77962 49.89 3.94478 50.9934 3.10437 52.1331L2.29952 51.5397ZM10.0991 41.7812C12.0155 39.5839 13.9045 37.5648 15.768 35.7067L16.4741 36.4148C14.6278 38.2558 12.7546 40.2579 10.8527 42.4385L10.0991 41.7812ZM21.8942 30.0793C24.1358 28.1937 26.3409 26.5259 28.5129 25.0429L29.0768 25.8687C26.9329 27.3325 24.7544 28.98 22.5379 30.8445L21.8942 30.0793ZM35.6464 20.7323C38.2132 19.3739 40.7343 18.237 43.2155 17.2608L43.5817 18.1913C41.1321 19.1551 38.6452 20.2767 36.1142 21.6162L35.6464 20.7323ZM51.0978 14.5904C53.8169 13.797 56.4926 13.1256 59.1297 12.4886L59.3645 13.4607C56.7322 14.0965 54.0744 14.7636 51.3779 15.5504L51.0978 14.5904ZM67.167 10.5334C69.8273 9.85028 72.4566 9.10716 75.0684 8.20689L75.3942 9.1523C72.748 10.0645 70.0907 10.8151 67.4157 11.502L67.167 10.5334ZM82.6405 5.0496C83.842 4.44759 85.0423 3.79139 86.2425 3.0713L86.757 3.92879C85.5343 4.66238 84.3118 5.33072 83.0885 5.94365L82.6405 5.0496Z" fill="#34C81E"/>
</svg>
