<svg width="61" height="218" viewBox="0 0 61 218" fill="none" xmlns="http://www.w3.org/2000/svg">
<path d="M38.8333 207C38.8333 201.109 43.6089 196.333 49.5 196.333C55.391 196.333 60.1666 201.109 60.1666 207C60.1666 212.891 55.391 217.667 49.5 217.667C43.6089 217.667 38.8333 212.891 38.8333 207ZM0.555949 11C0.555949 5.10896 5.33158 0.333328 11.2226 0.333328C17.1137 0.333328 21.8893 5.10896 21.8893 11C21.8893 16.891 17.1137 21.6667 11.2226 21.6667C5.33158 21.6667 0.555949 16.891 0.555949 11ZM12.961 10.011C13.6368 11.1989 14.2821 12.3735 14.8978 13.5351L11.3636 15.4085C10.7669 14.2828 10.1408 13.1431 9.48424 11.989L12.961 10.011ZM18.3438 20.5731C19.4605 23.0642 20.4379 25.4946 21.2865 27.8687L17.5198 29.215C16.7077 26.9429 15.7696 24.6092 14.6938 22.2092L18.3438 20.5731ZM23.6109 35.4191C24.2947 38.0767 24.8153 40.6618 25.1901 43.1816L21.2336 43.7702C20.8796 41.3901 20.3869 38.9413 19.7371 36.4158L23.6109 35.4191ZM25.9148 51.074C26.0086 53.7937 25.9376 56.4341 25.7295 59.0058L21.7425 58.6832C21.9387 56.2586 22.0055 53.7721 21.9172 51.2119L25.9148 51.074ZM24.6554 66.877C24.1554 69.5006 23.531 72.0545 22.8181 74.5516L18.9718 73.4535C19.6563 71.0558 20.2514 68.619 20.7262 66.128L24.6554 66.877ZM20.3998 82.0248C19.5176 84.4919 18.5786 86.9165 17.6223 89.3089L13.9081 87.8242C14.8543 85.457 15.7738 83.0818 16.6334 80.678L20.3998 82.0248ZM14.7091 96.4764C13.7365 98.8657 12.7851 101.235 11.8887 103.611L8.14628 102.199C9.06132 99.7739 10.0283 97.366 11.0043 94.9683L14.7091 96.4764ZM9.39496 110.794C8.6458 113.2 7.99131 115.622 7.46684 118.079L3.55497 117.244C4.10913 114.648 4.79688 112.106 5.5758 109.604L9.39496 110.794ZM6.32854 125.468C6.10613 127.892 6.03351 130.365 6.14243 132.904L2.14611 133.075C2.0291 130.348 2.10738 127.695 2.34528 125.102L6.32854 125.468ZM6.97225 140.333C7.39372 142.67 7.97753 145.072 8.74673 147.551L4.92648 148.736C4.10997 146.105 3.48689 143.544 3.03576 141.043L6.97225 140.333ZM11.3492 154.57C12.294 156.767 13.3841 159.026 14.6334 161.35L11.11 163.244C9.80865 160.822 8.66749 158.459 7.67443 156.15L11.3492 154.57ZM18.463 167.884C19.7636 169.938 21.1847 172.041 22.7346 174.197L19.4867 176.532C17.8937 174.316 16.4285 172.148 15.0838 170.025L18.463 167.884ZM27.3812 180.33C28.8927 182.23 30.5005 184.169 32.2094 186.15L29.1809 188.763C27.439 186.744 25.7972 184.763 24.2509 182.82L27.3812 180.33ZM37.2816 191.826C38.9785 193.663 40.7593 195.534 42.6272 197.441L39.7699 200.24C37.8758 198.306 36.068 196.407 34.3432 194.54L37.2816 191.826ZM48.0129 202.8C48.9483 203.709 49.9028 204.625 50.8767 205.549L48.1232 208.451C47.1383 207.516 46.1726 206.589 45.2258 205.669L48.0129 202.8Z" fill="white"/>
</svg>
